{
.appVersion = "1075";
classes = (
{
code = "A Aacute Abreve Acircumflex Adieresis Agrave Amacron Aogonek Aring Atilde AE AEacute B C Cacute Ccaron Ccedilla Ccircumflex Cdotaccent D Eth Dcaron Dcroat E Eacute Ebreve Ecaron Ecircumflex Edieresis Edotaccent Egrave Emacron Eogonek F G Gbreve Gcircumflex Gcommaaccent Gdotaccent H Hbar Hcircumflex I Iacute Ibreve Icircumflex Idieresis Idotaccent Igrave Imacron Iogonek Itilde J Jacute Jcircumflex K Kcommaaccent L Lacute Lcaron Lcommaaccent Ldot Lslash M N Nacute Ncaron Ncommaaccent Eng Ntilde O Oacute Obreve Ocircumflex Odieresis Ograve Ohungarumlaut Omacron Oslash Oslashacute Otilde OE P Thorn Q R Racute Rcaron Rcommaaccent S Sacute Scaron Scedilla Scircumflex Scommaaccent Germandbls T Tbar Tcaron Tcedilla Tcommaaccent U Uacute Ubreve Ucircumflex Udieresis Ugrave Uhungarumlaut Umacron Uogonek Uring Utilde V W Wacute Wcircumflex Wdieresis Wgrave X Y Yacute Ycircumflex Ydieresis Ygrave Z Zacute Zcaron Zdotaccent Germandbls";
name = Uppercase;
}
);
copyright = "Copyright © 2018 Sometype Mono Project Authors (https://github.com/dharmatype/Sometype-Mono)";
customParameters = (
{
name = fsType;
value = (
);
},
{
name = licenseURL;
value = "http://scripts.sil.org/OFL";
},
{
name = license;
value = "This Font Software is licensed under the SIL Open Font License, Version 1.1. This license is available with a FAQ at: http://scripts.sil.org/OFL";
},
{
name = trademark;
value = "Sometype Mono is a trademark of Dharma Type.";
},
{
name = description;
value = "Original Designed by Ryoichi Tsunekawa from Dharma Type in 2017-2018.";
},
{
name = vendorID;
value = dhrm;
},
{
name = isFixedPitch;
value = 1;
},
{
name = glyphOrder;
value = (
.notdef,
space
);
},
{
name = note;
value = "Add “Scale to UPM 2048” in Instance before Export for TTF, If necessary.";
},
{
name = "Disable Last Change";
value = 1;
},
{
name = "Family Alignment Zones";
value = (
"{710, 12}",
"{650, 12}",
"{630, 12}",
"{470, 12}",
"{0, -12}",
"{-210, -12}"
);
}
);

glyphs = (
{
color = 0;
glyphname = .notdef;
layers = (
{
background = {
paths = (
{
closed = 1;
nodes = (
"570 355 LINE",
"290 722 LINE",
"10 355 LINE",
"290 -12 LINE"
);
},
{
closed = 1;
nodes = (
"248 163 OFFCURVE",
"232 179 OFFCURVE",
"232 201 CURVE SMOOTH",
"232 223 OFFCURVE",
"248 240 OFFCURVE",
"270 240 CURVE SMOOTH",
"292 240 OFFCURVE",
"309 223 OFFCURVE",
"309 201 CURVE SMOOTH",
"309 179 OFFCURVE",
"292 163 OFFCURVE",
"270 163 CURVE SMOOTH"
);
},
{
closed = 1;
nodes = (
"238 293 OFFCURVE",
"236 304 OFFCURVE",
"236 314 CURVE SMOOTH",
"236 343 OFFCURVE",
"252 360 OFFCURVE",
"282 369 CURVE SMOOTH",
"298 374 LINE SMOOTH",
"326 383 OFFCURVE",
"335 388 OFFCURVE",
"335 404 CURVE SMOOTH",
"335 426 OFFCURVE",
"319 434 OFFCURVE",
"284 434 CURVE SMOOTH",
"247 434 OFFCURVE",
"222 425 OFFCURVE",
"197 403 CURVE",
"166 448 LINE",
"201 476 OFFCURVE",
"236 488 OFFCURVE",
"282 488 CURVE SMOOTH",
"356 488 OFFCURVE",
"393 460 OFFCURVE",
"393 405 CURVE SMOOTH",
"393 363 OFFCURVE",
"372 341 OFFCURVE",
"325 329 CURVE SMOOTH",
"309 325 LINE SMOOTH",
"293 321 OFFCURVE",
"286 315 OFFCURVE",
"286 300 CURVE SMOOTH",
"286 295 OFFCURVE",
"287 288 OFFCURVE",
"289 280 CURVE",
"242 280 LINE"
);
}
);
};
layerId = "B9B856C8-1FA2-46F4-A929-F36A99765E59";
paths = (
{
closed = 1;
nodes = (
"570 355 LINE",
"290 722 LINE",
"10 355 LINE",
"290 -12 LINE"
);
},
{
closed = 1;
nodes = (
"248 163 OFFCURVE",
"232 179 OFFCURVE",
"232 201 CURVE SMOOTH",
"232 223 OFFCURVE",
"248 240 OFFCURVE",
"270 240 CURVE SMOOTH",
"292 240 OFFCURVE",
"309 223 OFFCURVE",
"309 201 CURVE SMOOTH",
"309 179 OFFCURVE",
"292 163 OFFCURVE",
"270 163 CURVE SMOOTH"
);
},
{
closed = 1;
nodes = (
"238 293 OFFCURVE",
"236 304 OFFCURVE",
"236 314 CURVE SMOOTH",
"236 343 OFFCURVE",
"252 360 OFFCURVE",
"282 369 CURVE SMOOTH",
"298 374 LINE SMOOTH",
"326 383 OFFCURVE",
"335 388 OFFCURVE",
"335 404 CURVE SMOOTH",
"335 426 OFFCURVE",
"319 434 OFFCURVE",
"284 434 CURVE SMOOTH",
"247 434 OFFCURVE",
"222 425 OFFCURVE",
"197 403 CURVE",
"166 448 LINE",
"201 476 OFFCURVE",
"236 488 OFFCURVE",
"282 488 CURVE SMOOTH",
"356 488 OFFCURVE",
"393 460 OFFCURVE",
"393 405 CURVE SMOOTH",
"393 363 OFFCURVE",
"372 341 OFFCURVE",
"325 329 CURVE SMOOTH",
"309 325 LINE SMOOTH",
"293 321 OFFCURVE",
"286 315 OFFCURVE",
"286 300 CURVE SMOOTH",
"286 295 OFFCURVE",
"287 288 OFFCURVE",
"289 280 CURVE",
"242 280 LINE"
);
}
);
width = 580;
},
{
background = {
paths = (
{
closed = 1;
nodes = (
"570 355 LINE",
"290 722 LINE",
"10 355 LINE",
"290 -12 LINE"
);
},
{
closed = 1;
nodes = (
"248 163 OFFCURVE",
"232 179 OFFCURVE",
"232 201 CURVE SMOOTH",
"232 223 OFFCURVE",
"248 240 OFFCURVE",
"270 240 CURVE SMOOTH",
"292 240 OFFCURVE",
"309 223 OFFCURVE",
"309 201 CURVE SMOOTH",
"309 179 OFFCURVE",
"292 163 OFFCURVE",
"270 163 CURVE SMOOTH"
);
},
{
closed = 1;
nodes = (
"238 293 OFFCURVE",
"236 304 OFFCURVE",
"236 314 CURVE SMOOTH",
"236 343 OFFCURVE",
"252 360 OFFCURVE",
"282 369 CURVE SMOOTH",
"298 374 LINE SMOOTH",
"326 383 OFFCURVE",
"335 388 OFFCURVE",
"335 404 CURVE SMOOTH",
"335 426 OFFCURVE",
"319 434 OFFCURVE",
"284 434 CURVE SMOOTH",
"247 434 OFFCURVE",
"222 425 OFFCURVE",
"197 403 CURVE",
"166 448 LINE",
"201 476 OFFCURVE",
"236 488 OFFCURVE",
"282 488 CURVE SMOOTH",
"356 488 OFFCURVE",
"393 460 OFFCURVE",
"393 405 CURVE SMOOTH",
"393 363 OFFCURVE",
"372 341 OFFCURVE",
"325 329 CURVE SMOOTH",
"309 325 LINE SMOOTH",
"293 321 OFFCURVE",
"286 315 OFFCURVE",
"286 300 CURVE SMOOTH",
"286 295 OFFCURVE",
"287 288 OFFCURVE",
"289 280 CURVE",
"242 280 LINE"
);
}
);
};
layerId = "27302DAC-E04E-41A7-B2D2-BD8305143A0A";
paths = (
{
closed = 1;
nodes = (
"570 355 LINE",
"290 722 LINE",
"10 355 LINE",
"290 -12 LINE"
);
},
{
closed = 1;
nodes = (
"248 163 OFFCURVE",
"232 179 OFFCURVE",
"232 201 CURVE SMOOTH",
"232 223 OFFCURVE",
"248 240 OFFCURVE",
"270 240 CURVE SMOOTH",
"292 240 OFFCURVE",
"309 223 OFFCURVE",
"309 201 CURVE SMOOTH",
"309 179 OFFCURVE",
"292 163 OFFCURVE",
"270 163 CURVE SMOOTH"
);
},
{
closed = 1;
nodes = (
"238 293 OFFCURVE",
"236 304 OFFCURVE",
"236 314 CURVE SMOOTH",
"236 343 OFFCURVE",
"252 360 OFFCURVE",
"282 369 CURVE SMOOTH",
"298 374 LINE SMOOTH",
"326 383 OFFCURVE",
"335 388 OFFCURVE",
"335 404 CURVE SMOOTH",
"335 426 OFFCURVE",
"319 434 OFFCURVE",
"284 434 CURVE SMOOTH",
"247 434 OFFCURVE",
"222 425 OFFCURVE",
"197 403 CURVE",
"166 448 LINE",
"201 476 OFFCURVE",
"236 488 OFFCURVE",
"282 488 CURVE SMOOTH",
"356 488 OFFCURVE",
"393 460 OFFCURVE",
"393 405 CURVE SMOOTH",
"393 363 OFFCURVE",
"372 341 OFFCURVE",
"325 329 CURVE SMOOTH",
"309 325 LINE SMOOTH",
"293 321 OFFCURVE",
"286 315 OFFCURVE",
"286 300 CURVE SMOOTH",
"286 295 OFFCURVE",
"287 288 OFFCURVE",
"289 280 CURVE",
"242 280 LINE"
);
}
);
width = 580;
}
);
},
{
color = 0;
glyphname = A;
layers = (
{
anchors = (
{
name = bottom;
position = "{290, 0}";
},
{
name = ogonek;
position = "{560, 0}";
},
{
name = top;
position = "{290, 650}";
}
);
background = {
anchors = (
{
name = bottom;
position = "{290, 0}";
},
{
name = ogonek;
position = "{560, 0}";
},
{
name = top;
position = "{290, 650}";
}
);
paths = (
{
closed = 1;
nodes = (
"566 0 LINE",
"352 650 LINE",
"282 650 LINE",
"239 549 LINE",
"239 650 LINE",
"394 144 LINE",
"440 0 LINE"
);
},
{
closed = 1;
nodes = (
"439 144 LINE",
"439 254 LINE",
"139 254 LINE",
"139 144 LINE"
);
},
{
closed = 1;
nodes = (
"134 0 LINE",
"180 144 LINE",
"335 650 LINE",
"335 549 LINE",
"298 650 LINE",
"228 650 LINE",
"14 0 LINE"
);
}
);
};
layerId = "27302DAC-E04E-41A7-B2D2-BD8305143A0A";
paths = (
{
closed = 1;
nodes = (
"134 0 LINE",
"180 144 LINE",
"394 144 LINE",
"440 0 LINE",
"566 0 LINE",
"352 650 LINE",
"228 650 LINE",
"14 0 LINE"
);
},
{
closed = 1;
nodes = (
"287 493 LINE",
"360 254 LINE",
"214 254 LINE"
);
}
);
width = 580;
},
{
anchors = (
{
name = bottom;
position = "{290, 0}";
},
{
name = ogonek;
position = "{546, 0}";
},
{
name = top;
position = "{290, 650}";
}
);
background = {
anchors = (
{
name = bottom;
position = "{290, 0}";
},
{
name = ogonek;
position = "{546, 0}";
},
{
name = top;
position = "{290, 650}";
}
);
paths = (
{
closed = 1;
nodes = (
"551 0 LINE",
"334 650 LINE",
"279 650 LINE",
"260 568 LINE",
"260 650 LINE",
"403 214 LINE",
"473 0 LINE"
);
},
{
closed = 1;
nodes = (
"451 180 LINE",
"451 250 LINE",
"127 250 LINE",
"127 180 LINE"
);
},
{
closed = 1;
nodes = (
"103 0 LINE",
"173 214 LINE",
"316 650 LINE",
"316 568 LINE",
"297 650 LINE",
"246 650 LINE",
"29 0 LINE"
);
}
);
};
layerId = "B9B856C8-1FA2-46F4-A929-F36A99765E59";
paths = (
{
closed = 1;
nodes = (
"103 0 LINE",
"162 180 LINE",
"414 180 LINE",
"473 0 LINE",
"551 0 LINE",
"334 650 LINE",
"246 650 LINE",
"29 0 LINE"
);
},
{
closed = 1;
nodes = (
"288 564 LINE",
"391 250 LINE",
"185 250 LINE"
);
}
);
width = 580;
}
);
unicode = 0041;
},
{
color = 0;
glyphname = AE;
layers = (
{
anchors = (
{
name = bottom;
position = "{291, 0}";
},
{
name = top;
position = "{304, 650}";
}
);
background = {
anchors = (
{
name = bottom;
position = "{291, 0}";
},
{
name = top;
position = "{304, 650}";
}
);
paths = (
{
closed = 1;
nodes = (
"103 0 LINE",
"155 158 LINE",
"312 650 LINE",
"215 650 LINE",
"-7 0 LINE"
);
},
{
closed = 1;
nodes = (
"282 130 LINE",
"282 230 LINE",
"114 230 LINE",
"114 130 LINE"
);
},
{
closed = 1;
nodes = (
"570 0 LINE",
"570 100 LINE",
"389 100 LINE",
"389 0 LINE"
);
},
{
closed = 1;
nodes = (
"389 0 LINE",
"389 650 LINE",
"282 650 LINE",
"282 0 LINE"
);
},
{
closed = 1;
nodes = (
"541 281 LINE",
"541 381 LINE",
"389 381 LINE",
"389 281 LINE"
);
},
{
closed = 1;
nodes = (
"570 550 LINE",
"570 650 LINE",
"262 650 LINE",
"262 550 LINE"
);
}
);
};
layerId = "27302DAC-E04E-41A7-B2D2-BD8305143A0A";
paths = (
{
closed = 1;
nodes = (
"103 0 LINE",
"146 130 LINE",
"282 130 LINE",
"282 0 LINE",
"570 0 LINE",
"570 100 LINE",
"389 100 LINE",
"389 281 LINE",
"541 281 LINE",
"541 381 LINE",
"389 381 LINE",
"389 550 LINE",
"570 550 LINE",
"570 650 LINE",
"215 650 LINE",
"-7 0 LINE"
);
},
{
closed = 1;
nodes = (
"280 550 LINE",
"282 550 LINE",
"282 230 LINE",
"178 230 LINE"
);
}
);
width = 580;
},
{
anchors = (
{
name = bottom;
position = "{289, 0}";
},
{
name = top;
position = "{308, 650}";
}
);
background = {
anchors = (
{
name = bottom;
position = "{289, 0}";
},
{
name = top;
position = "{308, 650}";
}
);
paths = (
{
closed = 1;
nodes = (
"78 0 LINE",
"155 210 LINE",
"318 650 LINE",
"249 650 LINE",
"4 0 LINE"
);
},
{
closed = 1;
nodes = (
"295 154 LINE",
"295 223 LINE",
"101 223 LINE",
"101 154 LINE"
);
},
{
closed = 1;
nodes = (
"566 0 LINE",
"566 69 LINE",
"366 69 LINE",
"366 0 LINE"
);
},
{
closed = 1;
nodes = (
"366 0 LINE",
"366 650 LINE",
"295 650 LINE",
"295 0 LINE"
);
},
{
closed = 1;
nodes = (
"537 297 LINE",
"537 365 LINE",
"366 365 LINE",
"366 297 LINE"
);
},
{
closed = 1;
nodes = (
"566 581 LINE",
"566 650 LINE",
"277 650 LINE",
"277 581 LINE"
);
}
);
};
layerId = "B9B856C8-1FA2-46F4-A929-F36A99765E59";
paths = (
{
closed = 1;
nodes = (
"78 0 LINE",
"134 154 LINE",
"295 154 LINE",
"295 0 LINE",
"566 0 LINE",
"566 69 LINE",
"366 69 LINE",
"366 297 LINE",
"537 297 LINE",
"537 365 LINE",
"366 365 LINE",
"366 581 LINE",
"566 581 LINE",
"566 650 LINE",
"249 650 LINE",
"4 0 LINE"
);
},
{
closed = 1;
nodes = (
"292 581 LINE",
"295 581 LINE",
"295 223 LINE",
"160 223 LINE"
);
}
);
width = 580;
}
);
unicode = 00C6;
},
{
color = 0;
glyphname = B;
layers = (
{
anchors = (
{
name = bottom;
position = "{289, 0}";
},
{
name = top;
position = "{289, 650}";
}
);
background = {
anchors = (
{
name = bottom;
position = "{289, 0}";
},
{
name = top;
position = "{289, 650}";
}
);
paths = (
{
closed = 1;
nodes = (
"322 0 LINE SMOOTH",
"462 0 OFFCURVE",
"533 61 OFFCURVE",
"533 182 CURVE SMOOTH",
"533 299 OFFCURVE",
"467 352 OFFCURVE",
"322 352 CURVE SMOOTH",
"197 352 LINE",
"197 279 LINE",
"299 279 LINE SMOOTH",
"377 279 OFFCURVE",
"411 253 OFFCURVE",
"411 192 CURVE SMOOTH",
"411 135 OFFCURVE",
"381 110 OFFCURVE",
"312 110 CURVE SMOOTH",
"197 110 LINE",
"197 0 LINE"
);
},
{
closed = 1;
nodes = (
"197 0 LINE",
"197 650 LINE",
"76 650 LINE",
"76 0 LINE"
);
},
{
closed = 1;
nodes = (
"424 339 LINE",
"424 343 LINE",
"414 343 LINE",
"414 339 LINE"
);
},
{
closed = 1;
nodes = (
"309 326 LINE SMOOTH",
"454 326 OFFCURVE",
"515 376 OFFCURVE",
"515 483 CURVE SMOOTH",
"515 594 OFFCURVE",
"449 650 OFFCURVE",
"309 650 CURVE SMOOTH",
"197 650 LINE",
"197 540 LINE",
"300 540 LINE SMOOTH",
"369 540 OFFCURVE",
"394 519 OFFCURVE",
"394 467 CURVE SMOOTH",
"394 412 OFFCURVE",
"365 389 OFFCURVE",
"287 389 CURVE SMOOTH",
"197 389 LINE",
"197 326 LINE"
);
}
);
};
layerId = "27302DAC-E04E-41A7-B2D2-BD8305143A0A";
paths = (
{
closed = 1;
nodes = (
"322 0 LINE SMOOTH",
"462 0 OFFCURVE",
"533 61 OFFCURVE",
"533 182 CURVE SMOOTH",
"533 267 OFFCURVE",
"498 318 OFFCURVE",
"424 340 CURVE",
"424 342 LINE",
"487 364 OFFCURVE",
"515 411 OFFCURVE",
"515 483 CURVE SMOOTH",
"515 594 OFFCURVE",
"449 650 OFFCURVE",
"309 650 CURVE SMOOTH",
"76 650 LINE",
"76 0 LINE"
);
},
{
closed = 1;
nodes = (
"197 279 LINE",
"299 279 LINE SMOOTH",
"377 279 OFFCURVE",
"411 253 OFFCURVE",
"411 192 CURVE SMOOTH",
"411 135 OFFCURVE",
"381 110 OFFCURVE",
"312 110 CURVE SMOOTH",
"197 110 LINE"
);
},
{
closed = 1;
nodes = (
"197 540 LINE",
"300 540 LINE SMOOTH",
"369 540 OFFCURVE",
"394 519 OFFCURVE",
"394 467 CURVE SMOOTH",
"394 412 OFFCURVE",
"365 389 OFFCURVE",
"287 389 CURVE SMOOTH",
"197 389 LINE"
);
}
);
width = 580;
},
{
anchors = (
{
name = bottom;
position = "{291, 0}";
},
{
name = top;
position = "{291, 650}";
}
);
background = {
anchors = (
{
name = bottom;
position = "{291, 0}";
},
{
name = top;
position = "{291, 650}";
}
);
paths = (
{
closed = 1;
nodes = (
"326 0 LINE SMOOTH",
"457 0 OFFCURVE",
"523 60 OFFCURVE",
"523 180 CURVE SMOOTH",
"523 296 OFFCURVE",
"460 350 OFFCURVE",
"325 350 CURVE SMOOTH",
"160 350 LINE",
"160 300 LINE",
"304 300 LINE SMOOTH",
"404 300 OFFCURVE",
"447 264 OFFCURVE",
"447 182 CURVE SMOOTH",
"447 104 OFFCURVE",
"408 70 OFFCURVE",
"317 70 CURVE SMOOTH",
"160 70 LINE",
"160 0 LINE"
);
},
{
closed = 1;
nodes = (
"160 0 LINE",
"160 650 LINE",
"86 650 LINE",
"86 0 LINE"
);
},
{
closed = 1;
nodes = (
"414 339 LINE",
"414 343 LINE",
"404 343 LINE",
"404 339 LINE"
);
},
{
closed = 1;
nodes = (
"313 328 LINE SMOOTH",
"448 328 OFFCURVE",
"505 377 OFFCURVE",
"505 484 CURVE SMOOTH",
"505 595 OFFCURVE",
"444 650 OFFCURVE",
"312 650 CURVE SMOOTH",
"160 650 LINE",
"160 580 LINE",
"305 580 LINE SMOOTH",
"396 580 OFFCURVE",
"430 549 OFFCURVE",
"430 477 CURVE SMOOTH",
"430 401 OFFCURVE",
"392 369 OFFCURVE",
"292 369 CURVE SMOOTH",
"160 369 LINE",
"160 328 LINE"
);
}
);
};
layerId = "B9B856C8-1FA2-46F4-A929-F36A99765E59";
paths = (
{
closed = 1;
nodes = (
"326 0 LINE SMOOTH",
"457 0 OFFCURVE",
"523 60 OFFCURVE",
"523 180 CURVE SMOOTH",
"523 267 OFFCURVE",
"488 319 OFFCURVE",
"414 339 CURVE",
"414 341 LINE",
"477 363 OFFCURVE",
"505 409 OFFCURVE",
"505 484 CURVE SMOOTH",
"505 595 OFFCURVE",
"444 650 OFFCURVE",
"312 650 CURVE SMOOTH",
"86 650 LINE",
"86 0 LINE"
);
},
{
closed = 1;
nodes = (
"160 300 LINE",
"304 300 LINE SMOOTH",
"404 300 OFFCURVE",
"447 264 OFFCURVE",
"447 182 CURVE SMOOTH",
"447 104 OFFCURVE",
"408 70 OFFCURVE",
"317 70 CURVE SMOOTH",
"160 70 LINE"
);
},
{
closed = 1;
nodes = (
"160 580 LINE",
"305 580 LINE SMOOTH",
"396 580 OFFCURVE",
"430 549 OFFCURVE",
"430 477 CURVE SMOOTH",
"430 401 OFFCURVE",
"392 369 OFFCURVE",
"292 369 CURVE SMOOTH",
"160 369 LINE"
);
}
);
width = 580;
}
);
unicode = 0042;
},
{
color = 0;
glyphname = C;
layers = (
{
anchors = (
{
name = bottom;
position = "{313, 0}";
},
{
name = top;
position = "{308, 650}";
}
);
background = {
anchors = (
{
name = bottom;
position = "{313, 0}";
},
{
name = top;
position = "{308, 650}";
}
);
paths = (
{
closed = 1;
nodes = (
"423 -12 OFFCURVE",
"492 22 OFFCURVE",
"558 101 CURVE",
"558 54 LINE",
"451 192 LINE",
"477 172 LINE",
"430 122 OFFCURVE",
"384 100 OFFCURVE",
"329 100 CURVE SMOOTH",
"229 100 OFFCURVE",
"179 175 OFFCURVE",
"179 325 CURVE SMOOTH",
"179 475 OFFCURVE",
"229 550 OFFCURVE",
"329 550 CURVE SMOOTH",
"384 550 OFFCURVE",
"430 528 OFFCURVE",
"477 478 CURVE",
"445 479 LINE",
"527 606 LINE",
"558 549 LINE",
"492 628 OFFCURVE",
"423 662 OFFCURVE",
"328 662 CURVE SMOOTH",
"152 662 OFFCURVE",
"57 544 OFFCURVE",
"57 325 CURVE SMOOTH",
"57 106 OFFCURVE",
"152 -12 OFFCURVE",
"328 -12 CURVE SMOOTH"
);
}
);
};
layerId = "27302DAC-E04E-41A7-B2D2-BD8305143A0A";
paths = (
{
closed = 1;
nodes = (
"414 -12 OFFCURVE",
"478 16 OFFCURVE",
"539 79 CURVE",
"471 166 LINE",
"426 120 OFFCURVE",
"382 100 OFFCURVE",
"329 100 CURVE SMOOTH",
"229 100 OFFCURVE",
"179 175 OFFCURVE",
"179 325 CURVE SMOOTH",
"179 475 OFFCURVE",
"229 550 OFFCURVE",
"329 550 CURVE SMOOTH",
"376 550 OFFCURVE",
"417 534 OFFCURVE",
"457 498 CURVE",
"518 591 LINE",
"463 640 OFFCURVE",
"404 662 OFFCURVE",
"328 662 CURVE SMOOTH",
"152 662 OFFCURVE",
"57 544 OFFCURVE",
"57 325 CURVE SMOOTH",
"57 106 OFFCURVE",
"152 -12 OFFCURVE",
"328 -12 CURVE SMOOTH"
);
}
);
width = 580;
},
{
anchors = (
{
name = bottom;
position = "{316, 0}";
},
{
name = top;
position = "{311, 650}";
}
);
background = {
anchors = (
{
name = bottom;
position = "{316, 0}";
},
{
name = top;
position = "{311, 650}";
}
);
paths = (
{
closed = 1;
nodes = (
"422 -12 OFFCURVE",
"488 21 OFFCURVE",
"562 107 CURVE",
"563 20 LINE",
"469 146 LINE",
"511 156 LINE",
"450 86 OFFCURVE",
"400 59 OFFCURVE",
"332 59 CURVE SMOOTH",
"207 59 OFFCURVE",
"143 148 OFFCURVE",
"143 325 CURVE SMOOTH",
"143 502 OFFCURVE",
"207 591 OFFCURVE",
"332 591 CURVE SMOOTH",
"400 591 OFFCURVE",
"450 564 OFFCURVE",
"511 494 CURVE",
"439 492 LINE",
"528 629 LINE",
"562 543 LINE",
"488 629 OFFCURVE",
"422 662 OFFCURVE",
"332 662 CURVE SMOOTH",
"160 662 OFFCURVE",
"67 543 OFFCURVE",
"67 325 CURVE SMOOTH",
"67 107 OFFCURVE",
"160 -12 OFFCURVE",
"332 -12 CURVE SMOOTH"
);
}
);
};
layerId = "B9B856C8-1FA2-46F4-A929-F36A99765E59";
paths = (
{
closed = 1;
nodes = (
"407 -12 OFFCURVE",
"466 11 OFFCURVE",
"526 69 CURVE",
"483 127 LINE",
"434 78 OFFCURVE",
"390 59 OFFCURVE",
"332 59 CURVE SMOOTH",
"207 59 OFFCURVE",
"143 148 OFFCURVE",
"143 325 CURVE SMOOTH",
"143 502 OFFCURVE",
"207 591 OFFCURVE",
"332 591 CURVE SMOOTH",
"384 591 OFFCURVE",
"425 575 OFFCURVE",
"468 537 CURVE",
"508 598 LINE",
"454 643 OFFCURVE",
"400 662 OFFCURVE",
"332 662 CURVE SMOOTH",
"160 662 OFFCURVE",
"67 543 OFFCURVE",
"67 325 CURVE SMOOTH",
"67 107 OFFCURVE",
"160 -12 OFFCURVE",
"332 -12 CURVE SMOOTH"
);
}
);
width = 580;
}
);
unicode = 0043;
},
{
color = 0;
glyphname = D;
layers = (
{
anchors = (
{
name = bottom;
position = "{289, 0}";
},
{
name = center;
position = "{130, 325}";
},
{
name = top;
position = "{259, 650}";
}
);
background = {
anchors = (
{
name = bottom;
position = "{289, 0}";
},
{
name = center;
position = "{130, 325}";
},
{
name = top;
position = "{259, 650}";
}
);
paths = (
{
closed = 1;
nodes = (
"250 0 LINE SMOOTH",
"435 0 OFFCURVE",
"536 114 OFFCURVE",
"536 325 CURVE SMOOTH",
"536 536 OFFCURVE",
"434 650 OFFCURVE",
"247 650 CURVE SMOOTH",
"192 650 LINE",
"192 540 LINE",
"241 540 LINE SMOOTH",
"359 540 OFFCURVE",
"414 472 OFFCURVE",
"414 325 CURVE SMOOTH",
"414 178 OFFCURVE",
"359 110 OFFCURVE",
"241 110 CURVE SMOOTH",
"192 110 LINE",
"192 0 LINE"
);
},
{
closed = 1;
nodes = (
"192 0 LINE",
"192 650 LINE",
"72 650 LINE",
"72 0 LINE"
);
}
);
};
layerId = "27302DAC-E04E-41A7-B2D2-BD8305143A0A";
paths = (
{
closed = 1;
nodes = (
"250 0 LINE SMOOTH",
"435 0 OFFCURVE",
"536 114 OFFCURVE",
"536 325 CURVE SMOOTH",
"536 536 OFFCURVE",
"434 650 OFFCURVE",
"247 650 CURVE SMOOTH",
"72 650 LINE",
"72 0 LINE"
);
},
{
closed = 1;
nodes = (
"192 540 LINE",
"241 540 LINE SMOOTH",
"359 540 OFFCURVE",
"414 472 OFFCURVE",
"414 325 CURVE SMOOTH",
"414 178 OFFCURVE",
"359 110 OFFCURVE",
"241 110 CURVE SMOOTH",
"192 110 LINE"
);
}
);
width = 580;
},
{
anchors = (
{
name = bottom;
position = "{290, 0}";
},
{
name = center;
position = "{139, 325}";
},
{
name = top;
position = "{260, 650}";
}
);
background = {
anchors = (
{
name = bottom;
position = "{290, 0}";
},
{
name = center;
position = "{139, 325}";
},
{
name = top;
position = "{260, 650}";
}
);
paths = (
{
closed = 1;
nodes = (
"246 0 LINE SMOOTH",
"433 0 OFFCURVE",
"525 107 OFFCURVE",
"525 325 CURVE SMOOTH",
"525 543 OFFCURVE",
"432 650 OFFCURVE",
"242 650 CURVE SMOOTH",
"156 650 LINE",
"156 580 LINE",
"236 580 LINE SMOOTH",
"383 580 OFFCURVE",
"449 501 OFFCURVE",
"449 325 CURVE SMOOTH",
"449 149 OFFCURVE",
"383 70 OFFCURVE",
"236 70 CURVE SMOOTH",
"156 70 LINE",
"156 0 LINE"
);
},
{
closed = 1;
nodes = (
"156 0 LINE",
"156 650 LINE",
"82 650 LINE",
"82 0 LINE"
);
}
);
};
layerId = "B9B856C8-1FA2-46F4-A929-F36A99765E59";
paths = (
{
closed = 1;
nodes = (
"246 0 LINE SMOOTH",
"433 0 OFFCURVE",
"525 107 OFFCURVE",
"525 325 CURVE SMOOTH",
"525 543 OFFCURVE",
"432 650 OFFCURVE",
"242 650 CURVE SMOOTH",
"82 650 LINE",
"82 0 LINE"
);
},
{
closed = 1;
nodes = (
"156 580 LINE",
"236 580 LINE SMOOTH",
"383 580 OFFCURVE",
"449 501 OFFCURVE",
"449 325 CURVE SMOOTH",
"449 149 OFFCURVE",
"383 70 OFFCURVE",
"236 70 CURVE SMOOTH",
"156 70 LINE"
);
}
);
width = 580;
}
);
unicode = 0044;
},
{
color = 1;
glyphname = Eth;
layers = (
{
anchors = (
{
name = _center;
position = "{173, 325}";
}
);
background = {
anchors = (
{
name = _center;
position = "{173, 325}";
}
);
components = (
{
name = D;
transform = "{1, 0, 0, 1, 25, 0}";
}
);
paths = (
{
closed = 1;
nodes = (
"326 294 LINE",
"326 356 LINE",
"14 356 LINE",
"14 294 LINE"
);
}
);
};
components = (
{
name = D;
transform = "{1, 0, 0, 1, 25, 0}";
}
);
layerId = "B9B856C8-1FA2-46F4-A929-F36A99765E59";
paths = (
{
closed = 1;
nodes = (
"326 294 LINE",
"326 356 LINE",
"14 356 LINE",
"14 294 LINE"
);
}
);
width = 580;
},
{
anchors = (
{
name = _center;
position = "{160, 325}";
}
);
background = {
anchors = (
{
name = _center;
position = "{160, 325}";
}
);
components = (
{
name = D;
transform = "{1, 0, 0, 1, 20, 0}";
}
);
paths = (
{
closed = 1;
nodes = (
"326 277 LINE",
"326 373 LINE",
"10 373 LINE",
"10 277 LINE"
);
}
);
};
components = (
{
name = D;
transform = "{1, 0, 0, 1, 20, 0}";
}
);
layerId = "27302DAC-E04E-41A7-B2D2-BD8305143A0A";
paths = (
{
closed = 1;
nodes = (
"326 277 LINE",
"326 373 LINE",
"10 373 LINE",
"10 277 LINE"
);
}
);
width = 580;
}
);
unicode = 00D0;
},
{
color = 0;
glyphname = E;
layers = (
{
anchors = (
{
name = bottom;
position = "{289, 0}";
},
{
name = ogonek;
position = "{519, 0}";
},
{
name = top;
position = "{305, 650}";
},
{
name = topleft;
position = "{9, 650}";
}
);
background = {
anchors = (
{
name = bottom;
position = "{289, 0}";
},
{
name = ogonek;
position = "{519, 0}";
},
{
name = top;
position = "{305, 650}";
},
{
name = topleft;
position = "{9, 650}";
}
);
paths = (
{
closed = 1;
nodes = (
"212 0 LINE",
"212 650 LINE",
"92 650 LINE",
"92 0 LINE"
);
},
{
closed = 1;
nodes = (
"519 0 LINE",
"519 110 LINE",
"212 110 LINE",
"212 0 LINE"
);
},
{
closed = 1;
nodes = (
"471 276 LINE",
"471 386 LINE",
"212 386 LINE",
"212 276 LINE"
);
},
{
closed = 1;
nodes = (
"519 540 LINE",
"519 650 LINE",
"212 650 LINE",
"212 540 LINE"
);
}
);
};
layerId = "27302DAC-E04E-41A7-B2D2-BD8305143A0A";
paths = (
{
closed = 1;
nodes = (
"519 0 LINE",
"519 110 LINE",
"212 110 LINE",
"212 276 LINE",
"471 276 LINE",
"471 386 LINE",
"212 386 LINE",
"212 540 LINE",
"519 540 LINE",
"519 650 LINE",
"92 650 LINE",
"92 0 LINE"
);
}
);
width = 580;
},
{
anchors = (
{
name = bottom;
position = "{291, 0}";
},
{
name = ogonek;
position = "{510, 0}";
},
{
name = top;
position = "{309, 650}";
},
{
name = topleft;
position = "{11, 650}";
}
);
background = {
anchors = (
{
name = bottom;
position = "{291, 0}";
},
{
name = ogonek;
position = "{510, 0}";
},
{
name = top;
position = "{309, 650}";
},
{
name = topleft;
position = "{11, 650}";
}
);
paths = (
{
closed = 1;
nodes = (
"182 0 LINE",
"182 650 LINE",
"108 650 LINE",
"108 0 LINE"
);
},
{
closed = 1;
nodes = (
"510 0 LINE",
"510 70 LINE",
"182 70 LINE",
"182 0 LINE"
);
},
{
closed = 1;
nodes = (
"462 296 LINE",
"462 366 LINE",
"182 366 LINE",
"182 296 LINE"
);
},
{
closed = 1;
nodes = (
"510 580 LINE",
"510 650 LINE",
"182 650 LINE",
"182 580 LINE"
);
}
);
};
layerId = "B9B856C8-1FA2-46F4-A929-F36A99765E59";
paths = (
{
closed = 1;
nodes = (
"510 0 LINE",
"510 70 LINE",
"182 70 LINE",
"182 296 LINE",
"462 296 LINE",
"462 366 LINE",
"182 366 LINE",
"182 580 LINE",
"510 580 LINE",
"510 650 LINE",
"108 650 LINE",
"108 0 LINE"
);
}
);
width = 580;
}
);
unicode = 0045;
},
{
color = 0;
glyphname = F;
layers = (
{
anchors = (
{
name = bottom;
position = "{289, 0}";
},
{
name = top;
position = "{289, 650}";
}
);
background = {
anchors = (
{
name = bottom;
position = "{289, 0}";
},
{
name = top;
position = "{289, 650}";
}
);
paths = (
{
closed = 1;
nodes = (
"218 0 LINE",
"218 650 LINE",
"98 650 LINE",
"98 0 LINE"
);
},
{
closed = 1;
nodes = (
"477 268 LINE",
"477 378 LINE",
"218 378 LINE",
"218 268 LINE"
);
},
{
closed = 1;
nodes = (
"525 540 LINE",
"525 650 LINE",
"218 650 LINE",
"218 540 LINE"
);
}
);
};
layerId = "27302DAC-E04E-41A7-B2D2-BD8305143A0A";
paths = (
{
closed = 1;
nodes = (
"218 0 LINE",
"218 268 LINE",
"477 268 LINE",
"477 378 LINE",
"218 378 LINE",
"218 540 LINE",
"525 540 LINE",
"525 650 LINE",
"98 650 LINE",
"98 0 LINE"
);
}
);
width = 580;
},
{
anchors = (
{
name = bottom;
position = "{292, 0}";
},
{
name = top;
position = "{292, 650}";
}
);
background = {
anchors = (
{
name = bottom;
position = "{292, 0}";
},
{
name = top;
position = "{292, 650}";
}
);
paths = (
{
closed = 1;
nodes = (
"186 0 LINE",
"186 650 LINE",
"112 650 LINE",
"112 0 LINE"
);
},
{
closed = 1;
nodes = (
"466 292 LINE",
"466 362 LINE",
"186 362 LINE",
"186 292 LINE"
);
},
{
closed = 1;
nodes = (
"514 580 LINE",
"514 650 LINE",
"186 650 LINE",
"186 580 LINE"
);
}
);
};
layerId = "B9B856C8-1FA2-46F4-A929-F36A99765E59";
paths = (
{
closed = 1;
nodes = (
"186 0 LINE",
"186 292 LINE",
"466 292 LINE",
"466 362 LINE",
"186 362 LINE",
"186 580 LINE",
"514 580 LINE",
"514 650 LINE",
"112 650 LINE",
"112 0 LINE"
);
}
);
width = 580;
}
);
unicode = 0046;
},
{
color = 0;
glyphname = G;
layers = (
{
anchors = (
{
name = bottom;
position = "{300, 0}";
},
{
name = top;
position = "{290, 650}";
}
);
background = {
anchors = (
{
name = bottom;
position = "{300, 0}";
},
{
name = top;
position = "{290, 650}";
}
);
paths = (
{
closed = 1;
nodes = (
"168 325 LINE",
"168 475 OFFCURVE",
"218 550 OFFCURVE",
"318 550 CURVE SMOOTH",
"373 550 OFFCURVE",
"419 528 OFFCURVE",
"466 478 CURVE",
"434 479 LINE",
"516 606 LINE",
"547 549 LINE",
"481 628 OFFCURVE",
"412 662 OFFCURVE",
"317 662 CURVE SMOOTH",
"141 662 OFFCURVE",
"46 544 OFFCURVE",
"46 325 CURVE"
);
},
{
closed = 1;
nodes = (
"371 -12 OFFCURVE",
"432 24 OFFCURVE",
"484 109 CURVE",
"516 44 LINE",
"434 171 LINE",
"459 186 LINE",
"415 126 OFFCURVE",
"372 100 OFFCURVE",
"315 100 CURVE SMOOTH",
"218 100 OFFCURVE",
"168 176 OFFCURVE",
"168 325 CURVE",
"46 325 LINE",
"46 116 OFFCURVE",
"139 -12 OFFCURVE",
"291 -12 CURVE SMOOTH"
);
},
{
closed = 1;
nodes = (
"524 0 LINE",
"524 379 LINE",
"404 379 LINE",
"404 118 LINE",
"414 118 LINE",
"444 0 LINE"
);
},
{
closed = 1;
nodes = (
"404 269 LINE",
"404 379 LINE",
"297 379 LINE",
"297 269 LINE"
);
}
);
};
layerId = "27302DAC-E04E-41A7-B2D2-BD8305143A0A";
paths = (
{
closed = 1;
nodes = (
"346 -12 OFFCURVE",
"392 5 OFFCURVE",
"433 44 CURVE",
"444 0 LINE",
"524 0 LINE",
"524 379 LINE",
"297 379 LINE",
"297 269 LINE",
"404 269 LINE",
"404 129 LINE",
"377 109 OFFCURVE",
"349 100 OFFCURVE",
"315 100 CURVE SMOOTH",
"218 100 OFFCURVE",
"168 176 OFFCURVE",
"168 325 CURVE SMOOTH",
"168 475 OFFCURVE",
"218 550 OFFCURVE",
"318 550 CURVE SMOOTH",
"365 550 OFFCURVE",
"406 534 OFFCURVE",
"446 498 CURVE",
"507 591 LINE",
"452 640 OFFCURVE",
"393 662 OFFCURVE",
"317 662 CURVE SMOOTH",
"141 662 OFFCURVE",
"46 544 OFFCURVE",
"46 325 CURVE SMOOTH",
"46 116 OFFCURVE",
"139 -12 OFFCURVE",
"291 -12 CURVE SMOOTH"
);
}
);
width = 580;
},
{
anchors = (
{
name = bottom;
position = "{300, 0}";
},
{
name = top;
position = "{290, 650}";
}
);
background = {
anchors = (
{
name = bottom;
position = "{300, 0}";
},
{
name = top;
position = "{290, 650}";
}
);
paths = (
{
closed = 1;
nodes = (
"132 325 LINE",
"132 502 OFFCURVE",
"196 591 OFFCURVE",
"321 591 CURVE SMOOTH",
"389 591 OFFCURVE",
"439 564 OFFCURVE",
"500 494 CURVE",
"428 492 LINE",
"517 629 LINE",
"551 543 LINE",
"477 629 OFFCURVE",
"411 662 OFFCURVE",
"321 662 CURVE SMOOTH",
"149 662 OFFCURVE",
"56 543 OFFCURVE",
"56 325 CURVE"
);
},
{
closed = 1;
nodes = (
"382 -12 OFFCURVE",
"437 18 OFFCURVE",
"494 90 CURVE",
"520 21 LINE",
"431 158 LINE",
"482 157 LINE",
"431 88 OFFCURVE",
"384 59 OFFCURVE",
"316 59 CURVE SMOOTH",
"194 59 OFFCURVE",
"132 149 OFFCURVE",
"132 325 CURVE",
"56 325 LINE",
"56 113 OFFCURVE",
"148 -12 OFFCURVE",
"305 -12 CURVE SMOOTH"
);
},
{
closed = 1;
nodes = (
"514 0 LINE",
"514 358 LINE",
"440 358 LINE",
"440 79 LINE",
"454 79 LINE",
"467 0 LINE"
);
},
{
closed = 1;
nodes = (
"440 288 LINE",
"440 358 LINE",
"307 358 LINE",
"307 288 LINE"
);
}
);
};
layerId = "B9B856C8-1FA2-46F4-A929-F36A99765E59";
paths = (
{
closed = 1;
nodes = (
"366 -12 OFFCURVE",
"413 7 OFFCURVE",
"459 51 CURVE",
"467 0 LINE",
"514 0 LINE",
"514 358 LINE",
"307 358 LINE",
"307 288 LINE",
"440 288 LINE",
"440 109 LINE",
"403 74 OFFCURVE",
"365 59 OFFCURVE",
"316 59 CURVE SMOOTH",
"194 59 OFFCURVE",
"132 149 OFFCURVE",
"132 325 CURVE SMOOTH",
"132 502 OFFCURVE",
"196 591 OFFCURVE",
"321 591 CURVE SMOOTH",
"373 591 OFFCURVE",
"414 575 OFFCURVE",
"457 537 CURVE",
"497 598 LINE",
"443 643 OFFCURVE",
"389 662 OFFCURVE",
"321 662 CURVE SMOOTH",
"149 662 OFFCURVE",
"56 543 OFFCURVE",
"56 325 CURVE SMOOTH",
"56 113 OFFCURVE",
"148 -12 OFFCURVE",
"305 -12 CURVE SMOOTH"
);
}
);
width = 580;
}
);
unicode = 0047;
},
{
color = 0;
glyphname = H;
layers = (
{
anchors = (
{
name = bottom;
position = "{290, 0}";
},
{
name = center;
position = "{290, 518}";
},
{
name = top;
position = "{290, 650}";
},
{
name = topleft;
position = "{10, 650}";
}
);
background = {
anchors = (
{
name = bottom;
position = "{290, 0}";
},
{
name = center;
position = "{290, 518}";
},
{
name = top;
position = "{290, 650}";
},
{
name = topleft;
position = "{10, 650}";
}
);
paths = (
{
closed = 1;
nodes = (
"515 0 LINE",
"515 650 LINE",
"395 650 LINE",
"395 0 LINE"
);
},
{
closed = 1;
nodes = (
"185 0 LINE",
"185 650 LINE",
"65 650 LINE",
"65 0 LINE"
);
},
{
closed = 1;
nodes = (
"395 276 LINE",
"395 386 LINE",
"185 386 LINE",
"185 276 LINE"
);
}
);
};
layerId = "27302DAC-E04E-41A7-B2D2-BD8305143A0A";
paths = (
{
closed = 1;
nodes = (
"185 0 LINE",
"185 276 LINE",
"395 276 LINE",
"395 0 LINE",
"515 0 LINE",
"515 650 LINE",
"395 650 LINE",
"395 386 LINE",
"185 386 LINE",
"185 650 LINE",
"65 650 LINE",
"65 0 LINE"
);
}
);
width = 580;
},
{
anchors = (
{
name = bottom;
position = "{290, 0}";
},
{
name = center;
position = "{290, 508}";
},
{
name = top;
position = "{290, 650}";
},
{
name = topleft;
position = "{10, 650}";
}
);
background = {
anchors = (
{
name = bottom;
position = "{290, 0}";
},
{
name = center;
position = "{290, 508}";
},
{
name = top;
position = "{290, 650}";
},
{
name = topleft;
position = "{10, 650}";
}
);
paths = (
{
closed = 1;
nodes = (
"505 0 LINE",
"505 650 LINE",
"431 650 LINE",
"431 0 LINE"
);
},
{
closed = 1;
nodes = (
"149 0 LINE",
"149 650 LINE",
"75 650 LINE",
"75 0 LINE"
);
},
{
closed = 1;
nodes = (
"431 296 LINE",
"431 366 LINE",
"149 366 LINE",
"149 296 LINE"
);
}
);
};
layerId = "B9B856C8-1FA2-46F4-A929-F36A99765E59";
paths = (
{
closed = 1;
nodes = (
"149 0 LINE",
"149 296 LINE",
"431 296 LINE",
"431 0 LINE",
"505 0 LINE",
"505 650 LINE",
"431 650 LINE",
"431 366 LINE",
"149 366 LINE",
"149 650 LINE",
"75 650 LINE",
"75 0 LINE"
);
}
);
width = 580;
}
);
unicode = 0048;
},
{
color = 0;
glyphname = Hbar;
layers = (
{
anchors = (
{
name = bottom;
position = "{290, 0}";
},
{
name = center;
position = "{290, 508}";
},
{
name = top;
position = "{290, 650}";
},
{
name = topleft;
position = "{10, 650}";
}
);
background = {
paths = (
{
closed = 1;
nodes = (
"149 0 LINE",
"149 266 LINE",
"431 266 LINE",
"431 0 LINE",
"505 0 LINE",
"505 650 LINE",
"431 650 LINE",
"431 336 LINE",
"149 336 LINE",
"149 650 LINE",
"75 650 LINE",
"75 0 LINE"
);
},
{
closed = 1;
nodes = (
"550 461 LINE",
"550 525 LINE",
"30 525 LINE",
"30 461 LINE"
);
}
);
};
hints = (
{
horizontal = 1;
origin = "{0, 19}";
target = up;
type = BottomGhost;
},
{
horizontal = 1;
origin = "{0, 1}";
target = "{1, 3}";
},
{
horizontal = 1;
origin = "{0, 17}";
target = "{0, 16}";
},
{
origin = "{0, 19}";
target = "{0, 0}";
},
{
origin = "{0, 3}";
target = "{0, 4}";
},
{
horizontal = 1;
origin = "{0, 14}";
target = down;
type = TopGhost;
}
);
layerId = "B9B856C8-1FA2-46F4-A929-F36A99765E59";
paths = (
{
closed = 1;
nodes = (
"149 0 LINE",
"149 266 LINE",
"431 266 LINE",
"431 0 LINE",
"505 0 LINE",
"505 461 LINE",
"550 461 LINE",
"550 525 LINE",
"505 525 LINE",
"505 650 LINE",
"431 650 LINE",
"431 525 LINE",
"149 525 LINE",
"149 650 LINE",
"75 650 LINE",
"75 525 LINE",
"30 525 LINE",
"30 461 LINE",
"75 461 LINE",
"75 0 LINE"
);
},
{
closed = 1;
nodes = (
"149 461 LINE",
"431 461 LINE",
"431 336 LINE",
"149 336 LINE"
);
}
);
width = 580;
},
{
anchors = (
{
name = bottom;
position = "{290, 0}";
},
{
name = center;
position = "{290, 518}";
},
{
name = top;
position = "{290, 650}";
},
{
name = topleft;
position = "{10, 650}";
}
);
background = {
paths = (
{
closed = 1;
nodes = (
"185 0 LINE",
"185 246 LINE",
"395 246 LINE",
"395 0 LINE",
"515 0 LINE",
"515 650 LINE",
"395 650 LINE",
"395 356 LINE",
"185 356 LINE",
"185 650 LINE",
"65 650 LINE",
"65 0 LINE"
);
},
{
closed = 1;
nodes = (
"557 455 LINE",
"557 551 LINE",
"23 551 LINE",
"23 455 LINE"
);
}
);
};
layerId = "27302DAC-E04E-41A7-B2D2-BD8305143A0A";
paths = (
{
closed = 1;
nodes = (
"185 0 LINE",
"185 246 LINE",
"395 246 LINE",
"395 0 LINE",
"515 0 LINE",
"515 455 LINE",
"557 455 LINE",
"557 551 LINE",
"515 551 LINE",
"515 650 LINE",
"395 650 LINE",
"395 551 LINE",
"185 551 LINE",
"185 650 LINE",
"65 650 LINE",
"65 551 LINE",
"23 551 LINE",
"23 455 LINE",
"65 455 LINE",
"65 0 LINE"
);
},
{
closed = 1;
nodes = (
"185 455 LINE",
"395 455 LINE",
"395 356 LINE",
"185 356 LINE"
);
}
);
width = 580;
}
);
unicode = 0126;
},
{
color = 0;
glyphname = I;
layers = (
{
anchors = (
{
name = bottom;
position = "{290, 0}";
},
{
name = ogonek;
position = "{396, 0}";
},
{
name = top;
position = "{290, 650}";
},
{
name = topleft;
position = "{10, 650}";
}
);
background = {
anchors = (
{
name = bottom;
position = "{290, 0}";
},
{
name = ogonek;
position = "{396, 0}";
},
{
name = top;
position = "{290, 650}";
},
{
name = topleft;
position = "{10, 650}";
}
);
paths = (
{
closed = 1;
nodes = (
"350 0 LINE",
"350 650 LINE",
"230 650 LINE",
"230 0 LINE"
);
},
{
closed = 1;
nodes = (
"230 0 LINE",
"230 110 LINE",
"73 110 LINE",
"73 0 LINE"
);
},
{
closed = 1;
nodes = (
"507 0 LINE",
"507 110 LINE",
"350 110 LINE",
"350 0 LINE"
);
},
{
closed = 1;
nodes = (
"230 540 LINE",
"230 650 LINE",
"73 650 LINE",
"73 540 LINE"
);
},
{
closed = 1;
nodes = (
"507 540 LINE",
"507 650 LINE",
"350 650 LINE",
"350 540 LINE"
);
}
);
};
layerId = "27302DAC-E04E-41A7-B2D2-BD8305143A0A";
paths = (
{
closed = 1;
nodes = (
"507 0 LINE",
"507 110 LINE",
"350 110 LINE",
"350 540 LINE",
"507 540 LINE",
"507 650 LINE",
"73 650 LINE",
"73 540 LINE",
"230 540 LINE",
"230 110 LINE",
"73 110 LINE",
"73 0 LINE"
);
}
);
width = 580;
},
{
anchors = (
{
name = bottom;
position = "{290, 0}";
},
{
name = ogonek;
position = "{385, 0}";
},
{
name = top;
position = "{290, 650}";
},
{
name = topleft;
position = "{10, 650}";
}
);
background = {
anchors = (
{
name = bottom;
position = "{290, 0}";
},
{
name = ogonek;
position = "{385, 0}";
},
{
name = top;
position = "{290, 650}";
},
{
name = topleft;
position = "{10, 650}";
}
);
paths = (
{
closed = 1;
nodes = (
"327 0 LINE",
"327 650 LINE",
"253 650 LINE",
"253 0 LINE"
);
},
{
closed = 1;
nodes = (
"253 0 LINE",
"253 70 LINE",
"82 70 LINE",
"82 0 LINE"
);
},
{
closed = 1;
nodes = (
"498 0 LINE",
"498 70 LINE",
"327 70 LINE",
"327 0 LINE"
);
},
{
closed = 1;
nodes = (
"253 580 LINE",
"253 650 LINE",
"82 650 LINE",
"82 580 LINE"
);
},
{
closed = 1;
nodes = (
"498 580 LINE",
"498 650 LINE",
"327 650 LINE",
"327 580 LINE"
);
}
);
};
layerId = "B9B856C8-1FA2-46F4-A929-F36A99765E59";
paths = (
{
closed = 1;
nodes = (
"498 0 LINE",
"498 70 LINE",
"327 70 LINE",
"327 580 LINE",
"498 580 LINE",
"498 650 LINE",
"82 650 LINE",
"82 580 LINE",
"253 580 LINE",
"253 70 LINE",
"82 70 LINE",
"82 0 LINE"
);
}
);
width = 580;
}
);
unicode = 0049;
},
{
color = 0;
glyphname = J;
layers = (
{
anchors = (
{
name = bottom;
position = "{291, 0}";
},
{
name = top;
position = "{323, 650}";
}
);
background = {
anchors = (
{
name = bottom;
position = "{291, 0}";
},
{
name = top;
position = "{323, 650}";
}
);
paths = (
{
closed = 1;
nodes = (
"409 -12 OFFCURVE",
"490 65 OFFCURVE",
"490 201 CURVE SMOOTH",
"490 650 LINE",
"369 650 LINE",
"369 208 LINE SMOOTH",
"369 138 OFFCURVE",
"332 100 OFFCURVE",
"259 100 CURVE SMOOTH",
"201 100 OFFCURVE",
"154 124 OFFCURVE",
"105 180 CURVE",
"159 221 LINE",
"26 48 LINE",
"30 98 LINE",
"98 21 OFFCURVE",
"169 -12 OFFCURVE",
"265 -12 CURVE SMOOTH"
);
},
{
closed = 1;
nodes = (
"369 540 LINE",
"369 650 LINE",
"157 650 LINE",
"157 540 LINE"
);
}
);
};
layerId = "27302DAC-E04E-41A7-B2D2-BD8305143A0A";
paths = (
{
closed = 1;
nodes = (
"409 -12 OFFCURVE",
"490 65 OFFCURVE",
"490 201 CURVE SMOOTH",
"490 650 LINE",
"157 650 LINE",
"157 540 LINE",
"369 540 LINE",
"369 208 LINE SMOOTH",
"369 138 OFFCURVE",
"332 100 OFFCURVE",
"259 100 CURVE SMOOTH",
"206 100 OFFCURVE",
"162 120 OFFCURVE",
"117 167 CURVE",
"49 78 LINE",
"111 15 OFFCURVE",
"178 -12 OFFCURVE",
"265 -12 CURVE SMOOTH"
);
}
);
width = 580;
},
{
anchors = (
{
name = bottom;
position = "{288, 0}";
},
{
name = top;
position = "{326, 650}";
}
);
background = {
anchors = (
{
name = bottom;
position = "{288, 0}";
},
{
name = top;
position = "{326, 650}";
}
);
paths = (
{
closed = 1;
nodes = (
"402 -12 OFFCURVE",
"478 62 OFFCURVE",
"478 193 CURVE SMOOTH",
"478 650 LINE",
"404 650 LINE",
"404 200 LINE SMOOTH",
"404 110 OFFCURVE",
"353 59 OFFCURVE",
"263 59 CURVE SMOOTH",
"195 59 OFFCURVE",
"137 88 OFFCURVE",
"86 149 CURVE",
"125 147 LINE",
"31 21 LINE",
"34 99 LINE",
"102 22 OFFCURVE",
"172 -12 OFFCURVE",
"266 -12 CURVE SMOOTH"
);
},
{
closed = 1;
nodes = (
"404 580 LINE",
"404 650 LINE",
"175 650 LINE",
"175 580 LINE"
);
}
);
};
layerId = "B9B856C8-1FA2-46F4-A929-F36A99765E59";
paths = (
{
closed = 1;
nodes = (
"402 -12 OFFCURVE",
"478 62 OFFCURVE",
"478 193 CURVE SMOOTH",
"478 650 LINE",
"175 650 LINE",
"175 580 LINE",
"404 580 LINE",
"404 200 LINE SMOOTH",
"404 110 OFFCURVE",
"353 59 OFFCURVE",
"263 59 CURVE SMOOTH",
"205 59 OFFCURVE",
"154 80 OFFCURVE",
"108 125 CURVE",
"65 67 LINE",
"124 12 OFFCURVE",
"186 -12 OFFCURVE",
"266 -12 CURVE SMOOTH"
);
}
);
width = 580;
}
);
unicode = 004A;
},
{
color = 0;
glyphname = K;
layers = (
{
anchors = (
{
name = bottom;
position = "{304, 0}";
},
{
name = top;
position = "{289, 650}";
}
);
background = {
anchors = (
{
name = bottom;
position = "{304, 0}";
},
{
name = top;
position = "{289, 650}";
}
);
paths = (
{
closed = 1;
nodes = (
"43 285 LINE",
"178 177 LINE",
"559 650 LINE",
"410 650 LINE",
"43 177 LINE"
);
},
{
closed = 1;
nodes = (
"184 0 LINE",
"184 650 LINE",
"64 650 LINE",
"64 0 LINE"
);
},
{
closed = 1;
nodes = (
"564 0 LINE",
"341 409 LINE",
"206 307 LINE",
"204 409 LINE",
"427 0 LINE"
);
}
);
};
layerId = "27302DAC-E04E-41A7-B2D2-BD8305143A0A";
paths = (
{
closed = 1;
nodes = (
"184 0 LINE",
"184 184 LINE",
"269 290 LINE",
"427 0 LINE",
"564 0 LINE",
"351 391 LINE",
"559 650 LINE",
"410 650 LINE",
"184 359 LINE",
"184 650 LINE",
"64 650 LINE",
"64 0 LINE"
);
}
);
width = 580;
},
{
anchors = (
{
name = bottom;
position = "{305, 0}";
},
{
name = top;
position = "{292, 650}";
}
);
background = {
anchors = (
{
name = bottom;
position = "{305, 0}";
},
{
name = top;
position = "{292, 650}";
}
);
paths = (
{
closed = 1;
nodes = (
"59 285 LINE",
"147 204 LINE",
"542 650 LINE",
"449 650 LINE",
"59 204 LINE"
);
},
{
closed = 1;
nodes = (
"155 0 LINE",
"155 650 LINE",
"81 650 LINE",
"81 0 LINE"
);
},
{
closed = 1;
nodes = (
"547 0 LINE",
"312 397 LINE",
"226 295 LINE",
"226 396 LINE",
"461 0 LINE"
);
}
);
};
layerId = "B9B856C8-1FA2-46F4-A929-F36A99765E59";
paths = (
{
closed = 1;
nodes = (
"155 0 LINE",
"155 213 LINE",
"263 334 LINE",
"461 0 LINE",
"547 0 LINE",
"314 393 LINE",
"542 650 LINE",
"449 650 LINE",
"155 314 LINE",
"155 650 LINE",
"81 650 LINE",
"81 0 LINE"
);
}
);
width = 580;
}
);
unicode = 004B;
},
{
color = 0;
glyphname = L;
layers = (
{
anchors = (
{
name = bottom;
position = "{311, 0}";
},
{
name = center;
position = "{288, 325}";
},
{
name = top;
position = "{158, 650}";
},
{
name = topright;
position = "{344, 650}";
}
);
background = {
anchors = (
{
name = bottom;
position = "{311, 0}";
},
{
name = center;
position = "{288, 325}";
},
{
name = top;
position = "{158, 650}";
},
{
name = topright;
position = "{344, 650}";
}
);
paths = (
{
closed = 1;
nodes = (
"218 0 LINE",
"218 650 LINE",
"98 650 LINE",
"98 0 LINE"
);
},
{
closed = 1;
nodes = (
"525 0 LINE",
"525 110 LINE",
"218 110 LINE",
"218 0 LINE"
);
}
);
};
layerId = "27302DAC-E04E-41A7-B2D2-BD8305143A0A";
paths = (
{
closed = 1;
nodes = (
"525 0 LINE",
"525 110 LINE",
"218 110 LINE",
"218 650 LINE",
"98 650 LINE",
"98 0 LINE"
);
}
);
width = 580;
},
{
anchors = (
{
name = bottom;
position = "{313, 0}";
},
{
name = center;
position = "{292, 325}";
},
{
name = top;
position = "{149, 650}";
},
{
name = topright;
position = "{306, 650}";
}
);
background = {
anchors = (
{
name = bottom;
position = "{313, 0}";
},
{
name = center;
position = "{292, 325}";
},
{
name = top;
position = "{149, 650}";
},
{
name = topright;
position = "{306, 650}";
}
);
paths = (
{
closed = 1;
nodes = (
"186 0 LINE",
"186 650 LINE",
"112 650 LINE",
"112 0 LINE"
);
},
{
closed = 1;
nodes = (
"514 0 LINE",
"514 70 LINE",
"186 70 LINE",
"186 0 LINE"
);
}
);
};
layerId = "B9B856C8-1FA2-46F4-A929-F36A99765E59";
paths = (
{
closed = 1;
nodes = (
"514 0 LINE",
"514 70 LINE",
"186 70 LINE",
"186 650 LINE",
"112 650 LINE",
"112 0 LINE"
);
}
);
width = 580;
}
);
unicode = 004C;
},
{
color = 1;
glyphname = Lslash;
layers = (
{
anchors = (
{
name = _center;
position = "{319, 325}";
}
);
background = {
anchors = (
{
name = _center;
position = "{319, 325}";
}
);
components = (
{
name = L;
transform = "{1, 0, 0, 1, 19, 0}";
}
);
paths = (
{
closed = 1;
nodes = (
"427 385 LINE",
"392 447 LINE",
"46 247 LINE",
"81 185 LINE"
);
}
);
};
components = (
{
name = L;
transform = "{1, 0, 0, 1, 19, 0}";
}
);
layerId = "B9B856C8-1FA2-46F4-A929-F36A99765E59";
paths = (
{
closed = 1;
nodes = (
"427 385 LINE",
"392 447 LINE",
"46 247 LINE",
"81 185 LINE"
);
}
);
width = 580;
},
{
anchors = (
{
name = _center;
position = "{317, 325}";
}
);
background = {
anchors = (
{
name = _center;
position = "{317, 325}";
}
);
components = (
{
name = L;
transform = "{1, 0, 0, 1, 17, 0}";
}
);
paths = (
{
closed = 1;
nodes = (
"449 387 LINE",
"399 475 LINE",
"34 267 LINE",
"84 179 LINE"
);
}
);
};
components = (
{
name = L;
transform = "{1, 0, 0, 1, 17, 0}";
}
);
layerId = "27302DAC-E04E-41A7-B2D2-BD8305143A0A";
paths = (
{
closed = 1;
nodes = (
"449 387 LINE",
"399 475 LINE",
"34 267 LINE",
"84 179 LINE"
);
}
);
width = 580;
}
);
unicode = 0141;
},
{
color = 0;
glyphname = M;
layers = (
{
anchors = (
{
name = bottom;
position = "{290, 0}";
},
{
name = top;
position = "{290, 650}";
}
);
background = {
paths = (
{
closed = 1;
nodes = (
"291 126 LINE",
"343 197 LINE",
"343 126 LINE",
"196 650 LINE",
"108 650 LINE",
"255 126 LINE"
);
},
{
closed = 1;
nodes = (
"157 0 LINE",
"157 650 LINE",
"55 650 LINE",
"55 0 LINE"
);
},
{
closed = 1;
nodes = (
"525 0 LINE",
"525 650 LINE",
"417 650 LINE",
"417 0 LINE"
);
},
{
closed = 1;
nodes = (
"466 650 LINE",
"380 650 LINE",
"233 126 LINE",
"233 197 LINE",
"283 126 LINE",
"319 126 LINE"
);
}
);
};
layerId = "27302DAC-E04E-41A7-B2D2-BD8305143A0A";
paths = (
{
closed = 1;
nodes = (
"157 0 LINE",
"157 478 LINE",
"256 126 LINE",
"318 126 LINE",
"417 478 LINE",
"417 0 LINE",
"525 0 LINE",
"525 650 LINE",
"380 650 LINE",
"288 323 LINE",
"196 650 LINE",
"55 650 LINE",
"55 0 LINE"
);
}
);
width = 580;
},
{
anchors = (
{
name = bottom;
position = "{290, 0}";
},
{
name = top;
position = "{290, 650}";
}
);
background = {
paths = (
{
closed = 1;
nodes = (
"291 132 LINE",
"323 214 LINE",
"323 132 LINE",
"167 650 LINE",
"103 650 LINE",
"260 132 LINE"
);
},
{
closed = 1;
nodes = (
"134 0 LINE",
"134 650 LINE",
"66 650 LINE",
"66 0 LINE"
);
},
{
closed = 1;
nodes = (
"514 0 LINE",
"514 650 LINE",
"442 650 LINE",
"442 0 LINE"
);
},
{
closed = 1;
nodes = (
"473 650 LINE",
"411 650 LINE",
"255 132 LINE",
"255 214 LINE",
"289 132 LINE",
"316 132 LINE"
);
}
);
};
layerId = "B9B856C8-1FA2-46F4-A929-F36A99765E59";
paths = (
{
closed = 1;
nodes = (
"134 0 LINE",
"134 551 LINE",
"261 132 LINE",
"315 132 LINE",
"442 551 LINE",
"442 0 LINE",
"514 0 LINE",
"514 650 LINE",
"411 650 LINE",
"289 245 LINE",
"167 650 LINE",
"66 650 LINE",
"66 0 LINE"
);
}
);
width = 580;
}
);
unicode = 004D;
},
{
color = 0;
glyphname = N;
layers = (
{
anchors = (
{
name = bottom;
position = "{290, 0}";
},
{
name = top;
position = "{290, 650}";
}
);
background = {
anchors = (
{
name = bottom;
position = "{290, 0}";
},
{
name = top;
position = "{290, 650}";
}
);
paths = (
{
closed = 1;
nodes = (
"514 105 LINE",
"515 0 LINE",
"199 650 LINE",
"86 650 LINE",
"402 0 LINE"
);
},
{
closed = 1;
nodes = (
"173 0 LINE",
"173 650 LINE",
"65 650 LINE",
"65 0 LINE"
);
},
{
closed = 1;
nodes = (
"515 0 LINE",
"515 650 LINE",
"407 650 LINE",
"407 45 LINE",
"402 0 LINE"
);
}
);
};
layerId = "27302DAC-E04E-41A7-B2D2-BD8305143A0A";
paths = (
{
closed = 1;
nodes = (
"173 0 LINE",
"173 471 LINE",
"402 0 LINE",
"515 0 LINE",
"515 650 LINE",
"407 650 LINE",
"407 223 LINE",
"199 650 LINE",
"65 650 LINE",
"65 0 LINE"
);
}
);
width = 580;
},
{
anchors = (
{
name = bottom;
position = "{290, 0}";
},
{
name = top;
position = "{290, 650}";
}
);
background = {
anchors = (
{
name = bottom;
position = "{290, 0}";
},
{
name = top;
position = "{290, 650}";
}
);
paths = (
{
closed = 1;
nodes = (
"505 21 LINE",
"505 0 LINE",
"169 650 LINE",
"93 650 LINE",
"429 0 LINE"
);
},
{
closed = 1;
nodes = (
"145 0 LINE",
"145 650 LINE",
"75 650 LINE",
"75 0 LINE"
);
},
{
closed = 1;
nodes = (
"505 0 LINE",
"505 650 LINE",
"435 650 LINE",
"435 28 LINE",
"429 0 LINE"
);
}
);
};
layerId = "B9B856C8-1FA2-46F4-A929-F36A99765E59";
paths = (
{
closed = 1;
nodes = (
"145 0 LINE",
"145 549 LINE",
"429 0 LINE",
"505 0 LINE",
"505 650 LINE",
"435 650 LINE",
"435 136 LINE",
"169 650 LINE",
"75 650 LINE",
"75 0 LINE"
);
}
);
width = 580;
}
);
unicode = 004E;
},
{
color = 0;
glyphname = Eng;
layers = (
{
anchors = (
{
name = bottom;
position = "{290, 0}";
},
{
name = top;
position = "{290, 650}";
}
);
background = {
components = (
{
name = N;
}
);
paths = (
{
closed = 1;
nodes = (
"207 -172 LINE",
"248 -206 OFFCURVE",
"290 -222 OFFCURVE",
"342 -222 CURVE SMOOTH",
"448 -222 OFFCURVE",
"505 -157 OFFCURVE",
"505 -33 CURVE SMOOTH",
"505 78 LINE",
"431 78 LINE",
"431 -18 LINE SMOOTH",
"431 -114 OFFCURVE",
"405 -151 OFFCURVE",
"341 -151 CURVE SMOOTH",
"299 -151 OFFCURVE",
"266 -135 OFFCURVE",
"233 -104 CURVE",
"281 -66 LINE",
"212 -247 LINE"
);
}
);
};
layerId = "B9B856C8-1FA2-46F4-A929-F36A99765E59";
paths = (
{
closed = 1;
nodes = (
"448 -222 OFFCURVE",
"505 -157 OFFCURVE",
"505 -33 CURVE SMOOTH",
"505 650 LINE",
"435 650 LINE",
"435 136 LINE",
"169 650 LINE",
"75 650 LINE",
"75 0 LINE",
"145 0 LINE",
"145 549 LINE",
"431 -4 LINE",
"431 -18 LINE SMOOTH",
"431 -114 OFFCURVE",
"405 -151 OFFCURVE",
"341 -151 CURVE SMOOTH",
"310 -151 OFFCURVE",
"284 -142 OFFCURVE",
"259 -125 CURVE",
"233 -191 LINE",
"266 -212 OFFCURVE",
"301 -222 OFFCURVE",
"342 -222 CURVE SMOOTH"
);
}
);
width = 580;
},
{
anchors = (
{
name = bottom;
position = "{290, 0}";
},
{
name = top;
position = "{290, 650}";
}
);
background = {
components = (
{
name = N;
}
);
paths = (
{
closed = 1;
nodes = (
"181 -172 LINE",
"224 -206 OFFCURVE",
"268 -222 OFFCURVE",
"323 -222 CURVE SMOOTH",
"447 -222 OFFCURVE",
"515 -146 OFFCURVE",
"515 -9 CURVE SMOOTH",
"515 158 LINE",
"395 158 LINE",
"395 -5 LINE SMOOTH",
"395 -78 OFFCURVE",
"371 -112 OFFCURVE",
"314 -112 CURVE SMOOTH",
"282 -112 OFFCURVE",
"254 -100 OFFCURVE",
"226 -77 CURVE",
"266 -36 LINE",
"198 -225 LINE"
);
}
);
};
layerId = "27302DAC-E04E-41A7-B2D2-BD8305143A0A";
paths = (
{
closed = 1;
nodes = (
"447 -222 OFFCURVE",
"515 -146 OFFCURVE",
"515 -9 CURVE SMOOTH",
"515 650 LINE",
"407 650 LINE",
"407 223 LINE",
"199 650 LINE",
"65 650 LINE",
"65 0 LINE",
"173 0 LINE",
"173 471 LINE",
"395 14 LINE",
"395 -5 LINE SMOOTH",
"395 -78 OFFCURVE",
"371 -112 OFFCURVE",
"314 -112 CURVE SMOOTH",
"290 -112 OFFCURVE",
"268 -105 OFFCURVE",
"246 -92 CURVE",
"210 -192 LINE",
"244 -212 OFFCURVE",
"280 -222 OFFCURVE",
"323 -222 CURVE SMOOTH"
);
}
);
width = 580;
}
);
unicode = 014A;
},
{
color = 0;
glyphname = O;
layers = (
{
anchors = (
{
name = bottom;
position = "{290, 0}";
},
{
name = center;
position = "{290, 325}";
},
{
name = ogonek;
position = "{530, 10}";
},
{
name = top;
position = "{290, 650}";
},
{
name = topleft;
position = "{10, 650}";
},
{
name = topright;
position = "{570, 650}";
}
);
background = {
anchors = (
{
name = bottom;
position = "{290, 0}";
},
{
name = center;
position = "{290, 325}";
},
{
name = ogonek;
position = "{530, 10}";
},
{
name = top;
position = "{290, 650}";
},
{
name = topleft;
position = "{10, 650}";
},
{
name = topright;
position = "{570, 650}";
}
);
paths = (
{
closed = 1;
nodes = (
"456 -12 OFFCURVE",
"542 103 OFFCURVE",
"542 325 CURVE SMOOTH",
"542 547 OFFCURVE",
"456 662 OFFCURVE",
"290 662 CURVE SMOOTH",
"124 662 OFFCURVE",
"38 547 OFFCURVE",
"38 325 CURVE SMOOTH",
"38 103 OFFCURVE",
"124 -12 OFFCURVE",
"290 -12 CURVE SMOOTH"
);
},
{
closed = 1;
nodes = (
"203 100 OFFCURVE",
"160 174 OFFCURVE",
"160 325 CURVE SMOOTH",
"160 476 OFFCURVE",
"203 550 OFFCURVE",
"290 550 CURVE SMOOTH",
"377 550 OFFCURVE",
"420 476 OFFCURVE",
"420 325 CURVE SMOOTH",
"420 174 OFFCURVE",
"377 100 OFFCURVE",
"290 100 CURVE SMOOTH"
);
}
);
};
backgroundImage = {
crop = "{{0, 0}, {82.38, 144.54}}";
imagePath = "scan-image/scan2017-1-CO.png";
transform = "{7.39665, 0, 0, 7.39665, 13, -276}";
};
layerId = "27302DAC-E04E-41A7-B2D2-BD8305143A0A";
paths = (
{
closed = 1;
nodes = (
"456 -12 OFFCURVE",
"542 103 OFFCURVE",
"542 325 CURVE SMOOTH",
"542 547 OFFCURVE",
"456 662 OFFCURVE",
"290 662 CURVE SMOOTH",
"124 662 OFFCURVE",
"38 547 OFFCURVE",
"38 325 CURVE SMOOTH",
"38 103 OFFCURVE",
"124 -12 OFFCURVE",
"290 -12 CURVE SMOOTH"
);
},
{
closed = 1;
nodes = (
"203 100 OFFCURVE",
"160 174 OFFCURVE",
"160 325 CURVE SMOOTH",
"160 476 OFFCURVE",
"203 550 OFFCURVE",
"290 550 CURVE SMOOTH",
"377 550 OFFCURVE",
"420 476 OFFCURVE",
"420 325 CURVE SMOOTH",
"420 174 OFFCURVE",
"377 100 OFFCURVE",
"290 100 CURVE SMOOTH"
);
}
);
width = 580;
},
{
anchors = (
{
name = bottom;
position = "{290, 0}";
},
{
name = center;
position = "{290, 325}";
},
{
name = ogonek;
position = "{530, 10}";
},
{
name = top;
position = "{290, 650}";
},
{
name = topleft;
position = "{10, 650}";
},
{
name = topright;
position = "{570, 650}";
}
);
background = {
anchors = (
{
name = bottom;
position = "{290, 0}";
},
{
name = center;
position = "{290, 325}";
},
{
name = ogonek;
position = "{530, 10}";
},
{
name = top;
position = "{290, 650}";
},
{
name = topleft;
position = "{10, 650}";
},
{
name = topright;
position = "{570, 650}";
}
);
paths = (
{
closed = 1;
nodes = (
"450 -12 OFFCURVE",
"533 103 OFFCURVE",
"533 325 CURVE SMOOTH",
"533 547 OFFCURVE",
"450 662 OFFCURVE",
"290 662 CURVE SMOOTH",
"130 662 OFFCURVE",
"47 547 OFFCURVE",
"47 325 CURVE SMOOTH",
"47 103 OFFCURVE",
"130 -12 OFFCURVE",
"290 -12 CURVE SMOOTH"
);
},
{
closed = 1;
nodes = (
"178 59 OFFCURVE",
"123 147 OFFCURVE",
"123 325 CURVE SMOOTH",
"123 503 OFFCURVE",
"178 591 OFFCURVE",
"290 591 CURVE SMOOTH",
"402 591 OFFCURVE",
"457 503 OFFCURVE",
"457 325 CURVE SMOOTH",
"457 147 OFFCURVE",
"402 59 OFFCURVE",
"290 59 CURVE SMOOTH"
);
}
);
};
backgroundImage = {
crop = "{{0, 0}, {82.38, 144.54}}";
imagePath = "scan-image/scan2017-1-CO.png";
transform = "{8.62745, 0, 0, 8.62745, -33, -327}";
};
layerId = "B9B856C8-1FA2-46F4-A929-F36A99765E59";
paths = (
{
closed = 1;
nodes = (
"450 -12 OFFCURVE",
"533 103 OFFCURVE",
"533 325 CURVE SMOOTH",
"533 547 OFFCURVE",
"450 662 OFFCURVE",
"290 662 CURVE SMOOTH",
"130 662 OFFCURVE",
"47 547 OFFCURVE",
"47 325 CURVE SMOOTH",
"47 103 OFFCURVE",
"130 -12 OFFCURVE",
"290 -12 CURVE SMOOTH"
);
},
{
closed = 1;
nodes = (
"178 59 OFFCURVE",
"123 147 OFFCURVE",
"123 325 CURVE SMOOTH",
"123 503 OFFCURVE",
"178 591 OFFCURVE",
"290 591 CURVE SMOOTH",
"402 591 OFFCURVE",
"457 503 OFFCURVE",
"457 325 CURVE SMOOTH",
"457 147 OFFCURVE",
"402 59 OFFCURVE",
"290 59 CURVE SMOOTH"
);
}
);
width = 580;
}
);
unicode = 004F;
},
{
color = 0;
glyphname = OE;
layers = (
{
anchors = (
{
name = bottom;
position = "{289, 0}";
},
{
name = top;
position = "{289, 650}";
}
);
background = {
anchors = (
{
name = bottom;
position = "{289, 0}";
},
{
name = top;
position = "{289, 650}";
}
);
paths = (
{
closed = 1;
nodes = (
"274 0 LINE",
"274 100 LINE",
"262 100 LINE SMOOTH",
"185 100 OFFCURVE",
"131 147 OFFCURVE",
"131 325 CURVE SMOOTH",
"131 503 OFFCURVE",
"185 550 OFFCURVE",
"262 550 CURVE SMOOTH",
"274 550 LINE",
"274 650 LINE",
"257 650 LINE SMOOTH",
"103 650 OFFCURVE",
"21 538 OFFCURVE",
"21 325 CURVE SMOOTH",
"21 112 OFFCURVE",
"102 0 OFFCURVE",
"253 0 CURVE SMOOTH"
);
},
{
closed = 1;
nodes = (
"563 0 LINE",
"563 100 LINE",
"382 100 LINE",
"382 0 LINE"
);
},
{
closed = 1;
nodes = (
"382 0 LINE",
"382 650 LINE",
"274 650 LINE",
"274 0 LINE"
);
},
{
closed = 1;
nodes = (
"534 281 LINE",
"534 381 LINE",
"382 381 LINE",
"382 281 LINE"
);
},
{
closed = 1;
nodes = (
"563 550 LINE",
"563 650 LINE",
"382 650 LINE",
"382 550 LINE"
);
}
);
};
layerId = "27302DAC-E04E-41A7-B2D2-BD8305143A0A";
paths = (
{
closed = 1;
nodes = (
"563 0 LINE",
"563 100 LINE",
"382 100 LINE",
"382 281 LINE",
"534 281 LINE",
"534 381 LINE",
"382 381 LINE",
"382 550 LINE",
"563 550 LINE",
"563 650 LINE",
"257 650 LINE SMOOTH",
"103 650 OFFCURVE",
"21 538 OFFCURVE",
"21 325 CURVE SMOOTH",
"21 112 OFFCURVE",
"102 0 OFFCURVE",
"253 0 CURVE SMOOTH"
);
},
{
closed = 1;
nodes = (
"185 100 OFFCURVE",
"131 147 OFFCURVE",
"131 325 CURVE SMOOTH",
"131 503 OFFCURVE",
"185 550 OFFCURVE",
"262 550 CURVE SMOOTH",
"274 550 LINE",
"274 100 LINE",
"262 100 LINE SMOOTH"
);
}
);
width = 580;
},
{
anchors = (
{
name = bottom;
position = "{290, 0}";
},
{
name = top;
position = "{290, 650}";
}
);
background = {
anchors = (
{
name = bottom;
position = "{290, 0}";
},
{
name = top;
position = "{290, 650}";
}
);
paths = (
{
closed = 1;
nodes = (
"288 0 LINE",
"288 69 LINE",
"266 69 LINE SMOOTH",
"167 69 OFFCURVE",
"106 133 OFFCURVE",
"106 325 CURVE SMOOTH",
"106 517 OFFCURVE",
"167 581 OFFCURVE",
"266 581 CURVE SMOOTH",
"288 581 LINE",
"288 650 LINE",
"260 650 LINE SMOOTH",
"111 650 OFFCURVE",
"31 540 OFFCURVE",
"31 325 CURVE SMOOTH",
"31 110 OFFCURVE",
"109 0 OFFCURVE",
"256 0 CURVE SMOOTH"
);
},
{
closed = 1;
nodes = (
"560 0 LINE",
"560 69 LINE",
"360 69 LINE",
"360 0 LINE"
);
},
{
closed = 1;
nodes = (
"360 0 LINE",
"360 650 LINE",
"288 650 LINE",
"288 0 LINE"
);
},
{
closed = 1;
nodes = (
"531 297 LINE",
"531 365 LINE",
"360 365 LINE",
"360 297 LINE"
);
},
{
closed = 1;
nodes = (
"560 581 LINE",
"560 650 LINE",
"360 650 LINE",
"360 581 LINE"
);
}
);
};
layerId = "B9B856C8-1FA2-46F4-A929-F36A99765E59";
paths = (
{
closed = 1;
nodes = (
"560 0 LINE",
"560 69 LINE",
"360 69 LINE",
"360 297 LINE",
"531 297 LINE",
"531 365 LINE",
"360 365 LINE",
"360 581 LINE",
"560 581 LINE",
"560 650 LINE",
"260 650 LINE SMOOTH",
"111 650 OFFCURVE",
"31 540 OFFCURVE",
"31 325 CURVE SMOOTH",
"31 110 OFFCURVE",
"109 0 OFFCURVE",
"256 0 CURVE SMOOTH"
);
},
{
closed = 1;
nodes = (
"167 69 OFFCURVE",
"106 133 OFFCURVE",
"106 325 CURVE SMOOTH",
"106 517 OFFCURVE",
"167 581 OFFCURVE",
"266 581 CURVE SMOOTH",
"288 581 LINE",
"288 69 LINE",
"266 69 LINE SMOOTH"
);
}
);
width = 580;
}
);
unicode = 0152;
},
{
color = 0;
glyphname = P;
layers = (
{
anchors = (
{
name = bottom;
position = "{289, 0}";
},
{
name = top;
position = "{289, 650}";
}
);
background = {
anchors = (
{
name = bottom;
position = "{289, 0}";
},
{
name = top;
position = "{289, 650}";
}
);
paths = (
{
closed = 1;
nodes = (
"325 258 LINE SMOOTH",
"463 258 OFFCURVE",
"538 327 OFFCURVE",
"538 454 CURVE SMOOTH",
"538 581 OFFCURVE",
"463 650 OFFCURVE",
"325 650 CURVE SMOOTH",
"200 650 LINE",
"200 540 LINE",
"315 540 LINE SMOOTH",
"387 540 OFFCURVE",
"416 515 OFFCURVE",
"416 454 CURVE SMOOTH",
"416 393 OFFCURVE",
"387 368 OFFCURVE",
"315 368 CURVE SMOOTH",
"200 368 LINE",
"200 258 LINE"
);
},
{
closed = 1;
nodes = (
"200 0 LINE",
"200 650 LINE",
"79 650 LINE",
"79 0 LINE"
);
}
);
};
layerId = "27302DAC-E04E-41A7-B2D2-BD8305143A0A";
paths = (
{
closed = 1;
nodes = (
"200 0 LINE",
"200 258 LINE",
"325 258 LINE SMOOTH",
"463 258 OFFCURVE",
"538 327 OFFCURVE",
"538 454 CURVE SMOOTH",
"538 581 OFFCURVE",
"463 650 OFFCURVE",
"325 650 CURVE SMOOTH",
"79 650 LINE",
"79 0 LINE"
);
},
{
closed = 1;
nodes = (
"200 540 LINE",
"315 540 LINE SMOOTH",
"387 540 OFFCURVE",
"416 515 OFFCURVE",
"416 454 CURVE SMOOTH",
"416 393 OFFCURVE",
"387 368 OFFCURVE",
"315 368 CURVE SMOOTH",
"200 368 LINE"
);
}
);
width = 580;
},
{
anchors = (
{
name = bottom;
position = "{292, 0}";
},
{
name = top;
position = "{292, 650}";
}
);
background = {
anchors = (
{
name = bottom;
position = "{292, 0}";
},
{
name = top;
position = "{292, 650}";
}
);
paths = (
{
closed = 1;
nodes = (
"326 278 LINE SMOOTH",
"459 278 OFFCURVE",
"527 341 OFFCURVE",
"527 464 CURVE SMOOTH",
"527 587 OFFCURVE",
"459 650 OFFCURVE",
"326 650 CURVE SMOOTH",
"164 650 LINE",
"164 580 LINE",
"316 580 LINE SMOOTH",
"412 580 OFFCURVE",
"451 546 OFFCURVE",
"451 464 CURVE SMOOTH",
"451 382 OFFCURVE",
"412 348 OFFCURVE",
"316 348 CURVE SMOOTH",
"164 348 LINE",
"164 278 LINE"
);
},
{
closed = 1;
nodes = (
"164 0 LINE",
"164 650 LINE",
"90 650 LINE",
"90 0 LINE"
);
}
);
};
layerId = "B9B856C8-1FA2-46F4-A929-F36A99765E59";
paths = (
{
closed = 1;
nodes = (
"164 0 LINE",
"164 278 LINE",
"326 278 LINE SMOOTH",
"459 278 OFFCURVE",
"527 341 OFFCURVE",
"527 464 CURVE SMOOTH",
"527 587 OFFCURVE",
"459 650 OFFCURVE",
"326 650 CURVE SMOOTH",
"90 650 LINE",
"90 0 LINE"
);
},
{
closed = 1;
nodes = (
"164 580 LINE",
"316 580 LINE SMOOTH",
"412 580 OFFCURVE",
"451 546 OFFCURVE",
"451 464 CURVE SMOOTH",
"451 382 OFFCURVE",
"412 348 OFFCURVE",
"316 348 CURVE SMOOTH",
"164 348 LINE"
);
}
);
width = 580;
}
);
unicode = 0050;
},
{
color = 0;
glyphname = Thorn;
layers = (
{
anchors = (
{
name = bottom;
position = "{289, 0}";
},
{
name = top;
position = "{289, 650}";
}
);
background = {
anchors = (
{
name = bottom;
position = "{289, 0}";
},
{
name = top;
position = "{289, 650}";
}
);
paths = (
{
closed = 1;
nodes = (
"325 153 LINE SMOOTH",
"463 153 OFFCURVE",
"538 222 OFFCURVE",
"538 349 CURVE SMOOTH",
"538 476 OFFCURVE",
"463 545 OFFCURVE",
"325 545 CURVE SMOOTH",
"200 545 LINE",
"200 435 LINE",
"315 435 LINE SMOOTH",
"387 435 OFFCURVE",
"416 410 OFFCURVE",
"416 349 CURVE SMOOTH",
"416 288 OFFCURVE",
"387 263 OFFCURVE",
"315 263 CURVE SMOOTH",
"200 263 LINE",
"200 153 LINE"
);
},
{
closed = 1;
nodes = (
"200 0 LINE",
"200 650 LINE",
"79 650 LINE",
"79 0 LINE"
);
}
);
};
layerId = "27302DAC-E04E-41A7-B2D2-BD8305143A0A";
paths = (
{
closed = 1;
nodes = (
"200 0 LINE",
"200 153 LINE",
"325 153 LINE SMOOTH",
"463 153 OFFCURVE",
"538 222 OFFCURVE",
"538 349 CURVE SMOOTH",
"538 476 OFFCURVE",
"463 545 OFFCURVE",
"325 545 CURVE SMOOTH",
"200 545 LINE",
"200 650 LINE",
"79 650 LINE",
"79 0 LINE"
);
},
{
closed = 1;
nodes = (
"200 435 LINE",
"315 435 LINE SMOOTH",
"387 435 OFFCURVE",
"416 410 OFFCURVE",
"416 349 CURVE SMOOTH",
"416 288 OFFCURVE",
"387 263 OFFCURVE",
"315 263 CURVE SMOOTH",
"200 263 LINE"
);
}
);
width = 580;
},
{
anchors = (
{
name = bottom;
position = "{292, 0}";
},
{
name = top;
position = "{292, 650}";
}
);
background = {
anchors = (
{
name = bottom;
position = "{292, 0}";
},
{
name = top;
position = "{292, 650}";
}
);
paths = (
{
closed = 1;
nodes = (
"326 165 LINE SMOOTH",
"460 165 OFFCURVE",
"527 228 OFFCURVE",
"527 351 CURVE SMOOTH",
"527 474 OFFCURVE",
"460 537 OFFCURVE",
"326 537 CURVE SMOOTH",
"164 537 LINE",
"164 467 LINE",
"316 467 LINE SMOOTH",
"412 467 OFFCURVE",
"451 433 OFFCURVE",
"451 351 CURVE SMOOTH",
"451 269 OFFCURVE",
"412 235 OFFCURVE",
"316 235 CURVE SMOOTH",
"164 235 LINE",
"164 165 LINE"
);
},
{
closed = 1;
nodes = (
"164 0 LINE",
"164 650 LINE",
"90 650 LINE",
"90 0 LINE"
);
}
);
};
hints = (
{
horizontal = 1;
origin = "{0, 12}";
target = up;
type = BottomGhost;
},
{
horizontal = 1;
origin = "{0, 1}";
target = "{1, 8}";
},
{
horizontal = 1;
origin = "{1, 0}";
target = "{0, 9}";
},
{
origin = "{0, 12}";
target = "{0, 0}";
},
{
origin = "{1, 4}";
target = "{0, 5}";
},
{
horizontal = 1;
origin = "{0, 11}";
target = down;
type = TopGhost;
}
);
layerId = "B9B856C8-1FA2-46F4-A929-F36A99765E59";
paths = (
{
closed = 1;
nodes = (
"164 0 LINE",
"164 165 LINE",
"326 165 LINE SMOOTH",
"460 165 OFFCURVE",
"527 228 OFFCURVE",
"527 351 CURVE SMOOTH",
"527 474 OFFCURVE",
"460 537 OFFCURVE",
"326 537 CURVE SMOOTH",
"164 537 LINE",
"164 650 LINE",
"90 650 LINE",
"90 0 LINE"
);
},
{
closed = 1;
nodes = (
"164 467 LINE",
"316 467 LINE SMOOTH",
"412 467 OFFCURVE",
"451 433 OFFCURVE",
"451 351 CURVE SMOOTH",
"451 269 OFFCURVE",
"412 235 OFFCURVE",
"316 235 CURVE SMOOTH",
"164 235 LINE"
);
}
);
width = 580;
}
);
unicode = 00DE;
},
{
color = 0;
glyphname = Q;
layers = (
{
anchors = (
{
name = bottom;
position = "{300, 0}";
},
{
name = center;
position = "{290, 325}";
},
{
name = ogonek;
position = "{530, 10}";
},
{
name = top;
position = "{290, 650}";
},
{
name = topleft;
position = "{10, 650}";
},
{
name = topright;
position = "{570, 650}";
}
);
background = {
anchors = (
{
name = bottom;
position = "{300, 0}";
},
{
name = top;
position = "{300, 650}";
}
);
components = (
{
name = O;
}
);
paths = (
{
closed = 1;
nodes = (
"500 -222 OFFCURVE",
"552 -203 OFFCURVE",
"611 -156 CURVE",
"577 -192 LINE",
"523 -49 LINE",
"558 -69 LINE",
"519 -98 OFFCURVE",
"481 -112 OFFCURVE",
"442 -112 CURVE SMOOTH",
"387 -112 OFFCURVE",
"365 -84 OFFCURVE",
"365 -14 CURVE SMOOTH",
"365 21 LINE",
"244 21 LINE",
"244 -21 LINE SMOOTH",
"244 -158 OFFCURVE",
"304 -222 OFFCURVE",
"431 -222 CURVE SMOOTH"
);
}
);
};
layerId = "27302DAC-E04E-41A7-B2D2-BD8305143A0A";
paths = (
{
closed = 1;
nodes = (
"485 -222 OFFCURVE",
"529 -210 OFFCURVE",
"573 -183 CURVE",
"536 -84 LINE",
"505 -103 OFFCURVE",
"474 -112 OFFCURVE",
"442 -112 CURVE SMOOTH",
"387 -112 OFFCURVE",
"365 -84 OFFCURVE",
"365 -14 CURVE SMOOTH",
"365 -3 LINE",
"482 28 OFFCURVE",
"542 139 OFFCURVE",
"542 325 CURVE SMOOTH",
"542 547 OFFCURVE",
"456 662 OFFCURVE",
"290 662 CURVE SMOOTH",
"124 662 OFFCURVE",
"38 547 OFFCURVE",
"38 325 CURVE SMOOTH",
"38 125 OFFCURVE",
"108 11 OFFCURVE",
"244 -9 CURVE",
"244 -21 LINE SMOOTH",
"244 -158 OFFCURVE",
"304 -222 OFFCURVE",
"431 -222 CURVE SMOOTH"
);
},
{
closed = 1;
nodes = (
"203 100 OFFCURVE",
"160 174 OFFCURVE",
"160 325 CURVE SMOOTH",
"160 476 OFFCURVE",
"203 550 OFFCURVE",
"290 550 CURVE SMOOTH",
"377 550 OFFCURVE",
"420 476 OFFCURVE",
"420 325 CURVE SMOOTH",
"420 174 OFFCURVE",
"377 100 OFFCURVE",
"290 100 CURVE SMOOTH"
);
}
);
width = 580;
},
{
anchors = (
{
name = bottom;
position = "{300, 0}";
},
{
name = center;
position = "{290, 325}";
},
{
name = ogonek;
position = "{530, 10}";
},
{
name = top;
position = "{290, 650}";
},
{
name = topleft;
position = "{10, 650}";
},
{
name = topright;
position = "{570, 650}";
}
);
background = {
anchors = (
{
name = bottom;
position = "{300, 0}";
},
{
name = top;
position = "{300, 650}";
}
);
components = (
{
name = O;
}
);
paths = (
{
closed = 1;
nodes = (
"506 -222 OFFCURVE",
"568 -195 OFFCURVE",
"610 -147 CURVE",
"570 -222 LINE",
"522 -67 LINE",
"588 -84 LINE",
"561 -124 OFFCURVE",
"498 -153 OFFCURVE",
"441 -153 CURVE SMOOTH",
"373 -153 OFFCURVE",
"339 -111 OFFCURVE",
"339 -27 CURVE SMOOTH",
"339 16 LINE",
"265 16 LINE",
"265 -35 LINE SMOOTH",
"265 -155 OFFCURVE",
"327 -222 OFFCURVE",
"437 -222 CURVE SMOOTH"
);
}
);
};
hints = (
{
horizontal = 1;
origin = "{0, 16}";
target = "{1, 5}";
},
{
horizontal = 1;
origin = "{0, 22}";
target = "{1, 11}";
},
{
origin = "{0, 19}";
target = "{1, 2}";
},
{
origin = "{1, 8}";
target = "{0, 13}";
},
{
origin = "{0, 23}";
target = "{0, 9}";
}
);
layerId = "B9B856C8-1FA2-46F4-A929-F36A99765E59";
paths = (
{
closed = 1;
nodes = (
"482 -222 OFFCURVE",
"524 -210 OFFCURVE",
"560 -189 CURVE",
"540 -126 LINE",
"511 -143 OFFCURVE",
"475 -153 OFFCURVE",
"441 -153 CURVE SMOOTH",
"373 -153 OFFCURVE",
"339 -111 OFFCURVE",
"339 -27 CURVE SMOOTH",
"339 -8 LINE",
"467 14 OFFCURVE",
"533 127 OFFCURVE",
"533 325 CURVE SMOOTH",
"533 547 OFFCURVE",
"450 662 OFFCURVE",
"290 662 CURVE SMOOTH",
"130 662 OFFCURVE",
"47 547 OFFCURVE",
"47 325 CURVE SMOOTH",
"47 115 OFFCURVE",
"121 1 OFFCURVE",
"265 -11 CURVE",
"265 -35 LINE SMOOTH",
"265 -155 OFFCURVE",
"327 -222 OFFCURVE",
"437 -222 CURVE SMOOTH"
);
},
{
closed = 1;
nodes = (
"178 59 OFFCURVE",
"123 147 OFFCURVE",
"123 325 CURVE SMOOTH",
"123 503 OFFCURVE",
"178 591 OFFCURVE",
"290 591 CURVE SMOOTH",
"402 591 OFFCURVE",
"457 503 OFFCURVE",
"457 325 CURVE SMOOTH",
"457 147 OFFCURVE",
"402 59 OFFCURVE",
"290 59 CURVE SMOOTH"
);
}
);
width = 580;
}
);
unicode = 0051;
},
{
color = 0;
glyphname = R;
layers = (
{
anchors = (
{
name = bottom;
position = "{301, 0}";
},
{
name = top;
position = "{271, 650}";
}
);
background = {
anchors = (
{
name = bottom;
position = "{301, 0}";
},
{
name = top;
position = "{271, 650}";
}
);
paths = (
{
closed = 1;
nodes = (
"307 260 LINE SMOOTH",
"444 260 OFFCURVE",
"519 329 OFFCURVE",
"519 455 CURVE SMOOTH",
"519 581 OFFCURVE",
"444 650 OFFCURVE",
"307 650 CURVE SMOOTH",
"192 650 LINE",
"192 540 LINE",
"297 540 LINE SMOOTH",
"368 540 OFFCURVE",
"397 515 OFFCURVE",
"397 455 CURVE SMOOTH",
"397 395 OFFCURVE",
"368 370 OFFCURVE",
"297 370 CURVE SMOOTH",
"192 370 LINE",
"192 260 LINE"
);
},
{
closed = 1;
nodes = (
"192 0 LINE",
"192 650 LINE",
"71 650 LINE",
"71 0 LINE"
);
},
{
closed = 1;
nodes = (
"554 0 LINE",
"354 345 LINE",
"218 293 LINE",
"218 345 LINE",
"414 0 LINE"
);
}
);
};
backgroundImage = {
crop = "{{0, 0}, {82.38, 144.54}}";
imagePath = "scan-image/scan2017-1-CR.png";
transform = "{7.26217, 0, 0, 7.26217, -7, -292}";
};
layerId = "27302DAC-E04E-41A7-B2D2-BD8305143A0A";
paths = (
{
closed = 1;
nodes = (
"192 0 LINE",
"192 260 LINE",
"266 260 LINE",
"414 0 LINE",
"554 0 LINE",
"396 272 LINE",
"476 297 OFFCURVE",
"519 360 OFFCURVE",
"519 455 CURVE SMOOTH",
"519 581 OFFCURVE",
"444 650 OFFCURVE",
"307 650 CURVE SMOOTH",
"71 650 LINE",
"71 0 LINE"
);
},
{
closed = 1;
nodes = (
"192 540 LINE",
"297 540 LINE SMOOTH",
"368 540 OFFCURVE",
"397 515 OFFCURVE",
"397 455 CURVE SMOOTH",
"397 395 OFFCURVE",
"368 370 OFFCURVE",
"297 370 CURVE SMOOTH",
"192 370 LINE"
);
}
);
width = 580;
},
{
anchors = (
{
name = bottom;
position = "{301, 0}";
},
{
name = top;
position = "{276, 650}";
}
);
background = {
anchors = (
{
name = bottom;
position = "{301, 0}";
},
{
name = top;
position = "{276, 650}";
}
);
paths = (
{
closed = 1;
nodes = (
"318 288 LINE SMOOTH",
"448 288 OFFCURVE",
"514 349 OFFCURVE",
"514 469 CURVE SMOOTH",
"514 589 OFFCURVE",
"448 650 OFFCURVE",
"318 650 CURVE SMOOTH",
"161 650 LINE",
"161 580 LINE",
"309 580 LINE SMOOTH",
"401 580 OFFCURVE",
"438 547 OFFCURVE",
"438 469 CURVE SMOOTH",
"438 391 OFFCURVE",
"401 358 OFFCURVE",
"309 358 CURVE SMOOTH",
"161 358 LINE",
"161 288 LINE"
);
},
{
closed = 1;
nodes = (
"161 0 LINE",
"161 650 LINE",
"87 650 LINE",
"87 0 LINE"
);
},
{
closed = 1;
nodes = (
"533 0 LINE",
"334 334 LINE",
"209 311 LINE",
"250 333 LINE",
"447 0 LINE"
);
}
);
};
backgroundImage = {
crop = "{{0, 0}, {82.38, 144.54}}";
imagePath = "scan-image/scan2017-1-CR.png";
transform = "{7.84314, 0, 0, 7.84314, -25, -292}";
};
layerId = "B9B856C8-1FA2-46F4-A929-F36A99765E59";
paths = (
{
closed = 1;
nodes = (
"161 0 LINE",
"161 288 LINE",
"277 288 LINE",
"447 0 LINE",
"533 0 LINE",
"360 290 LINE",
"462 303 OFFCURVE",
"514 363 OFFCURVE",
"514 469 CURVE SMOOTH",
"514 589 OFFCURVE",
"448 650 OFFCURVE",
"318 650 CURVE SMOOTH",
"87 650 LINE",
"87 0 LINE"
);
},
{
closed = 1;
nodes = (
"161 580 LINE",
"309 580 LINE SMOOTH",
"401 580 OFFCURVE",
"438 547 OFFCURVE",
"438 469 CURVE SMOOTH",
"438 391 OFFCURVE",
"401 358 OFFCURVE",
"309 358 CURVE SMOOTH",
"161 358 LINE"
);
}
);
width = 580;
}
);
unicode = 0052;
},
{
color = 0;
glyphname = S;
layers = (
{
anchors = (
{
name = bottom;
position = "{290, 0}";
},
{
name = top;
position = "{285, 650}";
}
);
background = {
anchors = (
{
name = bottom;
position = "{290, 0}";
},
{
name = top;
position = "{285, 650}";
}
);
paths = (
{
closed = 1;
nodes = (
"439 -12 OFFCURVE",
"528 61 OFFCURVE",
"528 185 CURVE SMOOTH",
"528 285 OFFCURVE",
"478 342 OFFCURVE",
"370 369 CURVE SMOOTH",
"261 396 LINE SMOOTH",
"208 409 OFFCURVE",
"188 430 OFFCURVE",
"188 470 CURVE SMOOTH",
"188 523 OFFCURVE",
"226 550 OFFCURVE",
"300 550 CURVE SMOOTH",
"364 550 OFFCURVE",
"418 530 OFFCURVE",
"463 490 CURVE",
"442 479 LINE",
"522 618 LINE",
"524 587 LINE",
"460 637 OFFCURVE",
"386 662 OFFCURVE",
"300 662 CURVE SMOOTH",
"153 662 OFFCURVE",
"67 589 OFFCURVE",
"67 465 CURVE SMOOTH",
"67 365 OFFCURVE",
"117 308 OFFCURVE",
"225 281 CURVE SMOOTH",
"334 254 LINE SMOOTH",
"387 241 OFFCURVE",
"407 221 OFFCURVE",
"407 180 CURVE SMOOTH",
"407 127 OFFCURVE",
"366 100 OFFCURVE",
"284 100 CURVE SMOOTH",
"211 100 OFFCURVE",
"154 122 OFFCURVE",
"100 172 CURVE",
"121 189 LINE",
"31 44 LINE",
"39 75 LINE",
"108 15 OFFCURVE",
"185 -12 OFFCURVE",
"281 -12 CURVE SMOOTH"
);
}
);
};
layerId = "27302DAC-E04E-41A7-B2D2-BD8305143A0A";
paths = (
{
closed = 1;
nodes = (
"437 -12 OFFCURVE",
"526 64 OFFCURVE",
"526 190 CURVE SMOOTH",
"526 292 OFFCURVE",
"476 347 OFFCURVE",
"368 374 CURVE SMOOTH",
"263 400 LINE SMOOTH",
"210 413 OFFCURVE",
"190 433 OFFCURVE",
"190 471 CURVE SMOOTH",
"190 522 OFFCURVE",
"227 550 OFFCURVE",
"301 550 CURVE SMOOTH",
"360 550 OFFCURVE",
"412 533 OFFCURVE",
"455 498 CURVE",
"512 597 LINE",
"451 640 OFFCURVE",
"381 662 OFFCURVE",
"301 662 CURVE SMOOTH",
"154 662 OFFCURVE",
"69 587 OFFCURVE",
"69 465 CURVE SMOOTH",
"69 367 OFFCURVE",
"119 312 OFFCURVE",
"227 285 CURVE SMOOTH",
"332 259 LINE SMOOTH",
"385 246 OFFCURVE",
"405 227 OFFCURVE",
"405 184 CURVE SMOOTH",
"405 129 OFFCURVE",
"364 100 OFFCURVE",
"287 100 CURVE SMOOTH",
"217 100 OFFCURVE",
"157 120 OFFCURVE",
"105 166 CURVE",
"44 69 LINE",
"111 13 OFFCURVE",
"191 -12 OFFCURVE",
"284 -12 CURVE SMOOTH"
);
}
);
width = 580;
},
{
anchors = (
{
name = bottom;
position = "{289, 0}";
},
{
name = top;
position = "{285, 650}";
}
);
background = {
anchors = (
{
name = bottom;
position = "{289, 0}";
},
{
name = top;
position = "{285, 650}";
}
);
paths = (
{
closed = 1;
nodes = (
"432 -12 OFFCURVE",
"515 60 OFFCURVE",
"515 183 CURVE SMOOTH",
"515 277 OFFCURVE",
"466 327 OFFCURVE",
"364 353 CURVE SMOOTH",
"249 382 LINE SMOOTH",
"181 399 OFFCURVE",
"152 427 OFFCURVE",
"152 481 CURVE SMOOTH",
"152 551 OFFCURVE",
"204 591 OFFCURVE",
"293 591 CURVE SMOOTH",
"367 591 OFFCURVE",
"432 564 OFFCURVE",
"485 509 CURVE",
"434 497 LINE",
"531 648 LINE",
"525 569 LINE",
"461 631 OFFCURVE",
"385 662 OFFCURVE",
"295 662 CURVE SMOOTH",
"160 662 OFFCURVE",
"77 593 OFFCURVE",
"77 478 CURVE SMOOTH",
"77 388 OFFCURVE",
"126 337 OFFCURVE",
"228 311 CURVE SMOOTH",
"343 282 LINE SMOOTH",
"411 265 OFFCURVE",
"440 237 OFFCURVE",
"440 180 CURVE SMOOTH",
"440 101 OFFCURVE",
"387 59 OFFCURVE",
"288 59 CURVE SMOOTH",
"206 59 OFFCURVE",
"138 88 OFFCURVE",
"85 148 CURVE",
"125 166 LINE",
"16 10 LINE",
"49 83 LINE",
"110 19 OFFCURVE",
"189 -12 OFFCURVE",
"286 -12 CURVE SMOOTH"
);
}
);
};
layerId = "B9B856C8-1FA2-46F4-A929-F36A99765E59";
paths = (
{
closed = 1;
nodes = (
"427 -12 OFFCURVE",
"510 61 OFFCURVE",
"510 185 CURVE SMOOTH",
"510 283 OFFCURVE",
"461 336 OFFCURVE",
"359 359 CURVE SMOOTH",
"254 383 LINE SMOOTH",
"186 399 OFFCURVE",
"157 427 OFFCURVE",
"157 482 CURVE SMOOTH",
"157 551 OFFCURVE",
"209 591 OFFCURVE",
"298 591 CURVE SMOOTH",
"360 591 OFFCURVE",
"415 572 OFFCURVE",
"463 534 CURVE",
"501 594 LINE",
"444 639 OFFCURVE",
"377 662 OFFCURVE",
"300 662 CURVE SMOOTH",
"165 662 OFFCURVE",
"82 593 OFFCURVE",
"82 479 CURVE SMOOTH",
"82 388 OFFCURVE",
"131 335 OFFCURVE",
"233 312 CURVE SMOOTH",
"338 288 LINE SMOOTH",
"406 272 OFFCURVE",
"435 243 OFFCURVE",
"435 182 CURVE SMOOTH",
"435 102 OFFCURVE",
"382 59 OFFCURVE",
"283 59 CURVE SMOOTH",
"209 59 OFFCURVE",
"146 83 OFFCURVE",
"96 131 CURVE",
"55 72 LINE",
"114 16 OFFCURVE",
"190 -12 OFFCURVE",
"281 -12 CURVE SMOOTH"
);
}
);
width = 580;
}
);
unicode = 0053;
},
{
color = 0;
glyphname = Germandbls;
layers = (
{
anchors = (
{
name = bottom;
position = "{289, 0}";
},
{
name = top;
position = "{289, 650}";
}
);
background = {
anchors = (
{
name = bottom;
position = "{289, 0}";
},
{
name = top;
position = "{289, 650}";
}
);
paths = (
{
closed = 1;
nodes = (
"195 38 LINE",
"243 4 OFFCURVE",
"299 -12 OFFCURVE",
"360 -12 CURVE SMOOTH",
"482 -12 OFFCURVE",
"548 51 OFFCURVE",
"548 158 CURVE SMOOTH",
"548 246 OFFCURVE",
"504 277 OFFCURVE",
"447 314 CURVE SMOOTH",
"415 335 OFFCURVE",
"391 351 OFFCURVE",
"391 391 CURVE SMOOTH",
"391 437 OFFCURVE",
"422 469 OFFCURVE",
"484 488 CURVE",
"519 582 LINE",
"453 635 OFFCURVE",
"378 662 OFFCURVE",
"293 662 CURVE SMOOTH",
"144 662 OFFCURVE",
"57 581 OFFCURVE",
"57 444 CURVE SMOOTH",
"57 0 LINE",
"177 0 LINE",
"177 421 LINE SMOOTH",
"177 513 OFFCURVE",
"211 550 OFFCURVE",
"294 550 CURVE SMOOTH",
"356 550 OFFCURVE",
"409 529 OFFCURVE",
"458 485 CURVE",
"433 549 LINE",
"328 530 OFFCURVE",
"269 469 OFFCURVE",
"269 373 CURVE SMOOTH",
"269 287 OFFCURVE",
"316 256 OFFCURVE",
"370 221 CURVE SMOOTH",
"412 194 OFFCURVE",
"426 182 OFFCURVE",
"426 154 CURVE SMOOTH",
"426 120 OFFCURVE",
"404 100 OFFCURVE",
"354 100 CURVE SMOOTH",
"317 100 OFFCURVE",
"281 111 OFFCURVE",
"249 134 CURVE",
"272 163 LINE",
"200 -41 LINE"
);
},
{
closed = 1;
nodes = (
"377 533 LINE",
"381 533 LINE",
"381 536 LINE",
"377 536 LINE"
);
}
);
};
layerId = "27302DAC-E04E-41A7-B2D2-BD8305143A0A";
paths = (
{
closed = 1;
nodes = (
"482 -12 OFFCURVE",
"548 51 OFFCURVE",
"548 158 CURVE SMOOTH",
"548 246 OFFCURVE",
"504 277 OFFCURVE",
"447 314 CURVE SMOOTH",
"415 335 OFFCURVE",
"391 351 OFFCURVE",
"391 391 CURVE SMOOTH",
"391 437 OFFCURVE",
"422 469 OFFCURVE",
"484 488 CURVE",
"519 582 LINE",
"453 635 OFFCURVE",
"378 662 OFFCURVE",
"293 662 CURVE SMOOTH",
"144 662 OFFCURVE",
"57 581 OFFCURVE",
"57 444 CURVE SMOOTH",
"57 0 LINE",
"177 0 LINE",
"177 421 LINE SMOOTH",
"177 513 OFFCURVE",
"211 550 OFFCURVE",
"294 550 CURVE SMOOTH",
"324 550 OFFCURVE",
"351 545 OFFCURVE",
"377 535 CURVE",
"377 533 LINE",
"307 505 OFFCURVE",
"269 450 OFFCURVE",
"269 373 CURVE SMOOTH",
"269 287 OFFCURVE",
"316 256 OFFCURVE",
"370 221 CURVE SMOOTH",
"412 194 OFFCURVE",
"426 182 OFFCURVE",
"426 154 CURVE SMOOTH",
"426 120 OFFCURVE",
"404 100 OFFCURVE",
"354 100 CURVE SMOOTH",
"321 100 OFFCURVE",
"289 109 OFFCURVE",
"259 127 CURVE",
"222 21 LINE",
"264 -1 OFFCURVE",
"310 -12 OFFCURVE",
"360 -12 CURVE SMOOTH"
);
}
);
width = 580;
},
{
anchors = (
{
name = bottom;
position = "{290, 0}";
},
{
name = top;
position = "{290, 650}";
}
);
background = {
anchors = (
{
name = bottom;
position = "{290, 0}";
},
{
name = top;
position = "{290, 650}";
}
);
paths = (
{
closed = 1;
nodes = (
"198 34 LINE",
"245 3 OFFCURVE",
"302 -12 OFFCURVE",
"361 -12 CURVE SMOOTH",
"477 -12 OFFCURVE",
"537 45 OFFCURVE",
"537 146 CURVE SMOOTH",
"537 227 OFFCURVE",
"499 256 OFFCURVE",
"439 297 CURVE SMOOTH",
"393 328 OFFCURVE",
"369 345 OFFCURVE",
"369 399 CURVE SMOOTH",
"369 461 OFFCURVE",
"402 500 OFFCURVE",
"473 519 CURVE",
"494 588 LINE",
"431 638 OFFCURVE",
"365 662 OFFCURVE",
"288 662 CURVE SMOOTH",
"148 662 OFFCURVE",
"66 584 OFFCURVE",
"66 451 CURVE SMOOTH",
"66 0 LINE",
"140 0 LINE",
"140 431 LINE SMOOTH",
"140 541 OFFCURVE",
"185 591 OFFCURVE",
"286 591 CURVE SMOOTH",
"350 591 OFFCURVE",
"406 571 OFFCURVE",
"457 529 CURVE",
"449 571 LINE",
"352 550 OFFCURVE",
"293 487 OFFCURVE",
"293 391 CURVE SMOOTH",
"293 304 OFFCURVE",
"341 270 OFFCURVE",
"391 236 CURVE SMOOTH",
"436 206 OFFCURVE",
"461 189 OFFCURVE",
"461 145 CURVE SMOOTH",
"461 91 OFFCURVE",
"423 59 OFFCURVE",
"355 59 CURVE SMOOTH",
"310 59 OFFCURVE",
"266 73 OFFCURVE",
"228 101 CURVE",
"268 143 LINE",
"207 -16 LINE"
);
},
{
closed = 1;
nodes = (
"409 558 LINE",
"414 558 LINE",
"414 562 LINE",
"409 562 LINE"
);
}
);
};
layerId = "B9B856C8-1FA2-46F4-A929-F36A99765E59";
paths = (
{
closed = 1;
nodes = (
"477 -12 OFFCURVE",
"537 45 OFFCURVE",
"537 146 CURVE SMOOTH",
"537 227 OFFCURVE",
"499 256 OFFCURVE",
"439 297 CURVE SMOOTH",
"393 328 OFFCURVE",
"369 345 OFFCURVE",
"369 399 CURVE SMOOTH",
"369 461 OFFCURVE",
"402 500 OFFCURVE",
"473 519 CURVE",
"494 588 LINE",
"431 638 OFFCURVE",
"365 662 OFFCURVE",
"288 662 CURVE SMOOTH",
"148 662 OFFCURVE",
"66 584 OFFCURVE",
"66 451 CURVE SMOOTH",
"66 0 LINE",
"140 0 LINE",
"140 431 LINE SMOOTH",
"140 541 OFFCURVE",
"185 591 OFFCURVE",
"286 591 CURVE SMOOTH",
"331 591 OFFCURVE",
"371 581 OFFCURVE",
"409 561 CURVE",
"409 559 LINE",
"336 531 OFFCURVE",
"293 473 OFFCURVE",
"293 391 CURVE SMOOTH",
"293 304 OFFCURVE",
"341 270 OFFCURVE",
"391 236 CURVE SMOOTH",
"436 206 OFFCURVE",
"461 189 OFFCURVE",
"461 145 CURVE SMOOTH",
"461 91 OFFCURVE",
"423 59 OFFCURVE",
"355 59 CURVE SMOOTH",
"317 59 OFFCURVE",
"280 69 OFFCURVE",
"247 88 CURVE",
"221 20 LINE",
"263 -1 OFFCURVE",
"311 -12 OFFCURVE",
"361 -12 CURVE SMOOTH"
);
}
);
width = 580;
}
);
unicode = 1E9E;
},
{
color = 0;
glyphname = T;
layers = (
{
anchors = (
{
name = bottom;
position = "{290, 0}";
},
{
name = center;
position = "{290, 323}";
},
{
name = top;
position = "{290, 650}";
}
);
background = {
anchors = (
{
name = bottom;
position = "{290, 0}";
},
{
name = center;
position = "{290, 323}";
},
{
name = top;
position = "{290, 650}";
}
);
paths = (
{
closed = 1;
nodes = (
"350 0 LINE",
"350 650 LINE",
"230 650 LINE",
"230 0 LINE"
);
},
{
closed = 1;
nodes = (
"230 539 LINE",
"230 650 LINE",
"30 650 LINE",
"30 539 LINE"
);
},
{
closed = 1;
nodes = (
"550 539 LINE",
"550 650 LINE",
"350 650 LINE",
"350 539 LINE"
);
}
);
};
layerId = "27302DAC-E04E-41A7-B2D2-BD8305143A0A";
paths = (
{
closed = 1;
nodes = (
"350 0 LINE",
"350 539 LINE",
"550 539 LINE",
"550 650 LINE",
"30 650 LINE",
"30 539 LINE",
"230 539 LINE",
"230 0 LINE"
);
}
);
width = 580;
},
{
anchors = (
{
name = bottom;
position = "{290, 0}";
},
{
name = center;
position = "{290, 327}";
},
{
name = top;
position = "{290, 650}";
}
);
background = {
anchors = (
{
name = bottom;
position = "{290, 0}";
},
{
name = center;
position = "{290, 327}";
},
{
name = top;
position = "{290, 650}";
}
);
paths = (
{
closed = 1;
nodes = (
"327 0 LINE",
"327 650 LINE",
"253 650 LINE",
"253 0 LINE"
);
},
{
closed = 1;
nodes = (
"253 580 LINE",
"253 650 LINE",
"37 650 LINE",
"37 580 LINE"
);
},
{
closed = 1;
nodes = (
"543 580 LINE",
"543 650 LINE",
"327 650 LINE",
"327 580 LINE"
);
}
);
};
layerId = "B9B856C8-1FA2-46F4-A929-F36A99765E59";
paths = (
{
closed = 1;
nodes = (
"327 0 LINE",
"327 580 LINE",
"543 580 LINE",
"543 650 LINE",
"37 650 LINE",
"37 580 LINE",
"253 580 LINE",
"253 0 LINE"
);
}
);
width = 580;
}
);
unicode = 0054;
},
{
color = 0;
glyphname = U;
layers = (
{
anchors = (
{
name = bottom;
position = "{290, 0}";
},
{
name = ogonek;
position = "{412, 0}";
},
{
name = top;
position = "{290, 650}";
},
{
name = topright;
position = "{570, 650}";
}
);
background = {
anchors = (
{
name = bottom;
position = "{290, 0}";
},
{
name = ogonek;
position = "{412, 0}";
},
{
name = top;
position = "{290, 650}";
},
{
name = topright;
position = "{570, 650}";
}
);
paths = (
{
closed = 1;
nodes = (
"437 -12 OFFCURVE",
"516 65 OFFCURVE",
"516 209 CURVE SMOOTH",
"516 650 LINE",
"398 650 LINE",
"398 217 LINE SMOOTH",
"398 139 OFFCURVE",
"363 100 OFFCURVE",
"291 100 CURVE SMOOTH",
"219 100 OFFCURVE",
"184 139 OFFCURVE",
"184 217 CURVE SMOOTH",
"184 650 LINE",
"64 650 LINE",
"64 209 LINE SMOOTH",
"64 65 OFFCURVE",
"143 -12 OFFCURVE",
"290 -12 CURVE SMOOTH"
);
}
);
};
layerId = "27302DAC-E04E-41A7-B2D2-BD8305143A0A";
paths = (
{
closed = 1;
nodes = (
"437 -12 OFFCURVE",
"516 65 OFFCURVE",
"516 209 CURVE SMOOTH",
"516 650 LINE",
"398 650 LINE",
"398 217 LINE SMOOTH",
"398 139 OFFCURVE",
"363 100 OFFCURVE",
"291 100 CURVE SMOOTH",
"219 100 OFFCURVE",
"184 139 OFFCURVE",
"184 217 CURVE SMOOTH",
"184 650 LINE",
"64 650 LINE",
"64 209 LINE SMOOTH",
"64 65 OFFCURVE",
"143 -12 OFFCURVE",
"290 -12 CURVE SMOOTH"
);
}
);
width = 580;
},
{
anchors = (
{
name = bottom;
position = "{290, 0}";
},
{
name = ogonek;
position = "{407, 0}";
},
{
name = top;
position = "{290, 650}";
},
{
name = topright;
position = "{570, 650}";
}
);
background = {
anchors = (
{
name = bottom;
position = "{290, 0}";
},
{
name = ogonek;
position = "{407, 0}";
},
{
name = top;
position = "{290, 650}";
},
{
name = topright;
position = "{570, 650}";
}
);
paths = (
{
closed = 1;
nodes = (
"428 -12 OFFCURVE",
"505 65 OFFCURVE",
"505 201 CURVE SMOOTH",
"505 650 LINE",
"433 650 LINE",
"433 211 LINE SMOOTH",
"433 111 OFFCURVE",
"385 59 OFFCURVE",
"291 59 CURVE SMOOTH",
"197 59 OFFCURVE",
"149 111 OFFCURVE",
"149 211 CURVE SMOOTH",
"149 650 LINE",
"75 650 LINE",
"75 201 LINE SMOOTH",
"75 65 OFFCURVE",
"152 -12 OFFCURVE",
"290 -12 CURVE SMOOTH"
);
}
);
};
layerId = "B9B856C8-1FA2-46F4-A929-F36A99765E59";
paths = (
{
closed = 1;
nodes = (
"428 -12 OFFCURVE",
"505 65 OFFCURVE",
"505 201 CURVE SMOOTH",
"505 650 LINE",
"433 650 LINE",
"433 211 LINE SMOOTH",
"433 111 OFFCURVE",
"385 59 OFFCURVE",
"291 59 CURVE SMOOTH",
"197 59 OFFCURVE",
"149 111 OFFCURVE",
"149 211 CURVE SMOOTH",
"149 650 LINE",
"75 650 LINE",
"75 201 LINE SMOOTH",
"75 65 OFFCURVE",
"152 -12 OFFCURVE",
"290 -12 CURVE SMOOTH"
);
}
);
width = 580;
}
);
unicode = 0055;
},
{
color = 0;
glyphname = V;
layers = (
{
anchors = (
{
name = bottom;
position = "{290, 0}";
},
{
name = top;
position = "{290, 650}";
}
);
background = {
anchors = (
{
name = bottom;
position = "{290, 0}";
},
{
name = top;
position = "{290, 650}";
}
);
paths = (
{
closed = 1;
nodes = (
"300 0 LINE",
"348 108 LINE",
"348 0 LINE",
"149 650 LINE",
"23 650 LINE",
"228 0 LINE"
);
},
{
closed = 1;
nodes = (
"238 108 LINE",
"286 0 LINE",
"352 0 LINE",
"557 650 LINE",
"437 650 LINE",
"238 0 LINE"
);
}
);
};
layerId = "27302DAC-E04E-41A7-B2D2-BD8305143A0A";
paths = (
{
closed = 1;
nodes = (
"352 0 LINE",
"557 650 LINE",
"437 650 LINE",
"293 179 LINE",
"149 650 LINE",
"23 650 LINE",
"228 0 LINE"
);
}
);
width = 580;
},
{
anchors = (
{
name = bottom;
position = "{290, 0}";
},
{
name = top;
position = "{290, 650}";
}
);
background = {
anchors = (
{
name = bottom;
position = "{290, 0}";
},
{
name = top;
position = "{290, 650}";
}
);
paths = (
{
closed = 1;
nodes = (
"303 0 LINE",
"321 82 LINE",
"321 0 LINE",
"117 650 LINE",
"39 650 LINE",
"246 0 LINE"
);
},
{
closed = 1;
nodes = (
"263 82 LINE",
"281 0 LINE",
"334 0 LINE",
"541 650 LINE",
"467 650 LINE",
"263 0 LINE"
);
}
);
};
layerId = "B9B856C8-1FA2-46F4-A929-F36A99765E59";
paths = (
{
closed = 1;
nodes = (
"334 0 LINE",
"541 650 LINE",
"467 650 LINE",
"292 91 LINE",
"117 650 LINE",
"39 650 LINE",
"246 0 LINE"
);
}
);
width = 580;
}
);
unicode = 0056;
},
{
color = 0;
glyphname = W;
layers = (
{
anchors = (
{
name = bottom;
position = "{290, 0}";
},
{
name = top;
position = "{290, 650}";
}
);
background = {
anchors = (
{
name = bottom;
position = "{290, 0}";
},
{
name = top;
position = "{290, 650}";
}
);
paths = (
{
closed = 1;
nodes = (
"209 0 LINE",
"112 650 LINE",
"1 650 LINE",
"102 0 LINE"
);
},
{
closed = 1;
nodes = (
"214 0 LINE",
"331 575 LINE",
"246 575 LINE",
"131 0 LINE"
);
},
{
closed = 1;
nodes = (
"455 0 LINE",
"340 575 LINE",
"253 575 LINE",
"370 0 LINE"
);
},
{
closed = 1;
nodes = (
"478 0 LINE",
"579 650 LINE",
"474 650 LINE",
"377 0 LINE"
);
}
);
};
layerId = "27302DAC-E04E-41A7-B2D2-BD8305143A0A";
paths = (
{
closed = 1;
nodes = (
"214 0 LINE",
"292 383 LINE",
"370 0 LINE",
"478 0 LINE",
"579 650 LINE",
"474 650 LINE",
"410 220 LINE",
"339 575 LINE",
"247 575 LINE",
"176 220 LINE",
"112 650 LINE",
"1 650 LINE",
"102 0 LINE"
);
}
);
width = 580;
},
{
anchors = (
{
name = bottom;
position = "{290, 0}";
},
{
name = top;
position = "{290, 650}";
}
);
background = {
anchors = (
{
name = bottom;
position = "{290, 0}";
},
{
name = top;
position = "{290, 650}";
}
);
paths = (
{
closed = 1;
nodes = (
"182 0 LINE",
"82 650 LINE",
"9 650 LINE",
"112 0 LINE"
);
},
{
closed = 1;
nodes = (
"201 0 LINE",
"313 581 LINE",
"253 581 LINE",
"141 0 LINE"
);
},
{
closed = 1;
nodes = (
"443 0 LINE",
"331 581 LINE",
"269 581 LINE",
"381 0 LINE"
);
},
{
closed = 1;
nodes = (
"468 0 LINE",
"571 650 LINE",
"502 650 LINE",
"402 0 LINE"
);
}
);
};
layerId = "B9B856C8-1FA2-46F4-A929-F36A99765E59";
paths = (
{
closed = 1;
nodes = (
"200 0 LINE",
"291 469 LINE",
"382 0 LINE",
"468 0 LINE",
"571 650 LINE",
"502 650 LINE",
"420 118 LINE",
"330 581 LINE",
"254 581 LINE",
"164 118 LINE",
"82 650 LINE",
"9 650 LINE",
"112 0 LINE"
);
}
);
width = 580;
}
);
unicode = 0057;
},
{
color = 0;
glyphname = X;
layers = (
{
anchors = (
{
name = bottom;
position = "{290, 0}";
},
{
name = top;
position = "{290, 650}";
}
);
background = {
anchors = (
{
name = bottom;
position = "{290, 0}";
},
{
name = top;
position = "{290, 650}";
}
);
paths = (
{
closed = 1;
nodes = (
"552 0 LINE",
"343 353 LINE",
"176 650 LINE",
"33 650 LINE",
"242 297 LINE",
"409 0 LINE"
);
},
{
closed = 1;
nodes = (
"160 0 LINE",
"364 358 LINE",
"331 279 LINE",
"238 358 LINE",
"28 0 LINE"
);
},
{
closed = 1;
nodes = (
"244 371 LINE",
"337 292 LINE",
"547 650 LINE",
"415 650 LINE",
"211 292 LINE"
);
}
);
};
layerId = "27302DAC-E04E-41A7-B2D2-BD8305143A0A";
paths = (
{
closed = 1;
nodes = (
"160 0 LINE",
"285 220 LINE",
"409 0 LINE",
"552 0 LINE",
"358 328 LINE",
"547 650 LINE",
"415 650 LINE",
"295 439 LINE",
"176 650 LINE",
"33 650 LINE",
"222 331 LINE",
"28 0 LINE"
);
}
);
width = 580;
},
{
anchors = (
{
name = bottom;
position = "{290, 0}";
},
{
name = top;
position = "{290, 650}";
}
);
background = {
anchors = (
{
name = bottom;
position = "{290, 0}";
},
{
name = top;
position = "{290, 650}";
}
);
paths = (
{
closed = 1;
nodes = (
"527 0 LINE",
"324 342 LINE",
"145 650 LINE",
"58 650 LINE",
"262 308 LINE",
"440 0 LINE"
);
},
{
closed = 1;
nodes = (
"134 0 LINE",
"333 348 LINE",
"311 262 LINE",
"257 348 LINE",
"53 0 LINE"
);
},
{
closed = 1;
nodes = (
"264 388 LINE",
"318 302 LINE",
"522 650 LINE",
"441 650 LINE",
"242 302 LINE"
);
}
);
};
layerId = "B9B856C8-1FA2-46F4-A929-F36A99765E59";
paths = (
{
closed = 1;
nodes = (
"134 0 LINE",
"286 266 LINE",
"440 0 LINE",
"527 0 LINE",
"333 327 LINE",
"522 650 LINE",
"441 650 LINE",
"294 393 LINE",
"145 650 LINE",
"58 650 LINE",
"248 332 LINE",
"53 0 LINE"
);
}
);
width = 580;
}
);
unicode = 0058;
},
{
color = 0;
glyphname = Y;
layers = (
{
anchors = (
{
name = bottom;
position = "{290, 0}";
},
{
name = top;
position = "{290, 650}";
},
{
name = topleft;
position = "{10, 650}";
}
);
background = {
anchors = (
{
name = bottom;
position = "{290, 0}";
},
{
name = top;
position = "{290, 650}";
},
{
name = topleft;
position = "{10, 650}";
}
);
paths = (
{
closed = 1;
nodes = (
"350 0 LINE",
"350 337 LINE",
"230 337 LINE",
"230 0 LINE"
);
},
{
closed = 1;
nodes = (
"322 348 LINE",
"153 650 LINE",
"10 650 LINE",
"240 262 LINE"
);
},
{
closed = 1;
nodes = (
"570 650 LINE",
"438 650 LINE",
"267 348 LINE",
"340 262 LINE"
);
}
);
};
layerId = "27302DAC-E04E-41A7-B2D2-BD8305143A0A";
paths = (
{
closed = 1;
nodes = (
"350 0 LINE",
"350 279 LINE",
"570 650 LINE",
"438 650 LINE",
"295 397 LINE",
"153 650 LINE",
"10 650 LINE",
"230 279 LINE",
"230 0 LINE"
);
}
);
width = 580;
},
{
anchors = (
{
name = bottom;
position = "{290, 0}";
},
{
name = top;
position = "{290, 650}";
},
{
name = topleft;
position = "{10, 650}";
}
);
background = {
anchors = (
{
name = bottom;
position = "{290, 0}";
},
{
name = top;
position = "{290, 650}";
},
{
name = topleft;
position = "{10, 650}";
}
);
paths = (
{
closed = 1;
nodes = (
"327 0 LINE",
"327 338 LINE",
"253 338 LINE",
"253 0 LINE"
);
},
{
closed = 1;
nodes = (
"302 336 LINE",
"121 650 LINE",
"34 650 LINE",
"259 270 LINE"
);
},
{
closed = 1;
nodes = (
"546 650 LINE",
"465 650 LINE",
"282 336 LINE",
"321 270 LINE"
);
}
);
};
layerId = "B9B856C8-1FA2-46F4-A929-F36A99765E59";
paths = (
{
closed = 1;
nodes = (
"327 0 LINE",
"327 280 LINE",
"546 650 LINE",
"465 650 LINE",
"292 353 LINE",
"121 650 LINE",
"34 650 LINE",
"253 280 LINE",
"253 0 LINE"
);
}
);
width = 580;
}
);
unicode = 0059;
},
{
color = 0;
glyphname = Z;
layers = (
{
anchors = (
{
name = bottom;
position = "{290, 0}";
},
{
name = top;
position = "{296, 650}";
}
);
background = {
anchors = (
{
name = bottom;
position = "{290, 0}";
},
{
name = top;
position = "{296, 650}";
}
);
paths = (
{
closed = 1;
nodes = (
"200 79 LINE",
"517 571 LINE",
"377 571 LINE",
"60 79 LINE"
);
},
{
closed = 1;
nodes = (
"517 0 LINE",
"517 110 LINE",
"130 110 LINE",
"60 79 LINE",
"60 0 LINE"
);
},
{
closed = 1;
nodes = (
"448 540 LINE",
"517 571 LINE",
"517 650 LINE",
"75 650 LINE",
"75 540 LINE"
);
}
);
};
layerId = "27302DAC-E04E-41A7-B2D2-BD8305143A0A";
paths = (
{
closed = 1;
nodes = (
"517 0 LINE",
"517 110 LINE",
"220 110 LINE",
"517 571 LINE",
"517 650 LINE",
"75 650 LINE",
"75 540 LINE",
"357 540 LINE",
"60 79 LINE",
"60 0 LINE"
);
}
);
width = 580;
},
{
anchors = (
{
name = bottom;
position = "{290, 0}";
},
{
name = top;
position = "{297, 650}";
}
);
background = {
anchors = (
{
name = bottom;
position = "{290, 0}";
},
{
name = top;
position = "{297, 650}";
}
);
paths = (
{
closed = 1;
nodes = (
"160 58 LINE",
"506 592 LINE",
"419 592 LINE",
"72 58 LINE"
);
},
{
closed = 1;
nodes = (
"506 0 LINE",
"506 70 LINE",
"120 70 LINE",
"72 58 LINE",
"72 0 LINE"
);
},
{
closed = 1;
nodes = (
"460 580 LINE",
"506 592 LINE",
"506 650 LINE",
"88 650 LINE",
"88 580 LINE"
);
}
);
};
layerId = "B9B856C8-1FA2-46F4-A929-F36A99765E59";
paths = (
{
closed = 1;
nodes = (
"506 0 LINE",
"506 70 LINE",
"168 70 LINE",
"506 592 LINE",
"506 650 LINE",
"88 650 LINE",
"88 580 LINE",
"411 580 LINE",
"72 58 LINE",
"72 0 LINE"
);
}
);
width = 580;
}
);
unicode = 005A;
},
{
color = 0;
glyphname = a;
layers = (
{
anchors = (
{
name = bottom;
position = "{290, 0}";
},
{
name = ogonek;
position = "{503, 0}";
},
{
name = top;
position = "{287, 476}";
}
);
background = {
anchors = (
{
name = bottom;
position = "{290, 0}";
},
{
name = ogonek;
position = "{503, 0}";
},
{
name = top;
position = "{287, 476}";
}
);
paths = (
{
closed = 1;
nodes = (
"503 0 LINE",
"503 302 LINE SMOOTH",
"503 430 OFFCURVE",
"438 488 OFFCURVE",
"294 488 CURVE SMOOTH",
"204 488 OFFCURVE",
"122 466 OFFCURVE",
"56 424 CURVE",
"76 456 LINE",
"127 317 LINE",
"109 339 LINE",
"161 371 OFFCURVE",
"221 388 OFFCURVE",
"281 388 CURVE SMOOTH",
"356 388 OFFCURVE",
"385 362 OFFCURVE",
"385 295 CURVE SMOOTH",
"385 104 LINE",
"390 104 LINE",
"416 0 LINE"
);
},
{
closed = 1;
nodes = (
"320 -12 OFFCURVE",
"385 16 OFFCURVE",
"453 81 CURVE",
"414 137 LINE",
"369 103 OFFCURVE",
"321 88 OFFCURVE",
"264 88 CURVE SMOOTH",
"202 88 OFFCURVE",
"175 107 OFFCURVE",
"175 146 CURVE SMOOTH",
"175 181 OFFCURVE",
"196 197 OFFCURVE",
"247 197 CURVE SMOOTH",
"443 197 LINE",
"443 286 LINE",
"236 286 LINE SMOOTH",
"118 286 OFFCURVE",
"55 235 OFFCURVE",
"55 142 CURVE SMOOTH",
"55 45 OFFCURVE",
"123 -12 OFFCURVE",
"239 -12 CURVE SMOOTH"
);
}
);
};
backgroundImage = {
crop = "{{0, 0}, {82.38, 144.54}}";
imagePath = "scan-image/scan2017-1-a.png";
transform = "{11.32201, 0, 0, 14.11484, -11, -1005}";
};
layerId = "27302DAC-E04E-41A7-B2D2-BD8305143A0A";
paths = (
{
closed = 1;
nodes = (
"301 -12 OFFCURVE",
"354 4 OFFCURVE",
"406 41 CURVE",
"416 0 LINE",
"503 0 LINE",
"503 302 LINE SMOOTH",
"503 430 OFFCURVE",
"438 488 OFFCURVE",
"294 488 CURVE SMOOTH",
"216 488 OFFCURVE",
"143 471 OFFCURVE",
"82 439 CURVE",
"117 344 LINE",
"167 373 OFFCURVE",
"224 388 OFFCURVE",
"281 388 CURVE SMOOTH",
"356 388 OFFCURVE",
"385 362 OFFCURVE",
"385 295 CURVE SMOOTH",
"385 286 LINE",
"236 286 LINE SMOOTH",
"118 286 OFFCURVE",
"55 235 OFFCURVE",
"55 142 CURVE SMOOTH",
"55 45 OFFCURVE",
"123 -12 OFFCURVE",
"239 -12 CURVE SMOOTH"
);
},
{
closed = 1;
nodes = (
"202 88 OFFCURVE",
"175 107 OFFCURVE",
"175 146 CURVE SMOOTH",
"175 181 OFFCURVE",
"196 197 OFFCURVE",
"247 197 CURVE SMOOTH",
"385 197 LINE",
"385 118 LINE",
"348 97 OFFCURVE",
"309 88 OFFCURVE",
"264 88 CURVE SMOOTH"
);
}
);
width = 580;
},
{
anchors = (
{
name = bottom;
position = "{289, 0}";
},
{
name = ogonek;
position = "{494, 0}";
},
{
name = top;
position = "{286, 470}";
}
);
background = {
anchors = (
{
name = bottom;
position = "{289, 0}";
},
{
name = ogonek;
position = "{494, 0}";
},
{
name = top;
position = "{286, 470}";
}
);
paths = (
{
closed = 1;
nodes = (
"494 0 LINE",
"494 305 LINE SMOOTH",
"494 427 OFFCURVE",
"432 482 OFFCURVE",
"291 482 CURVE SMOOTH",
"199 482 OFFCURVE",
"119 458 OFFCURVE",
"50 408 CURVE",
"77 482 LINE",
"136 327 LINE",
"81 350 LINE",
"139 392 OFFCURVE",
"210 414 OFFCURVE",
"288 414 CURVE SMOOTH",
"385 414 OFFCURVE",
"422 380 OFFCURVE",
"422 294 CURVE SMOOTH",
"422 94 LINE",
"424 94 LINE",
"440 0 LINE"
);
},
{
closed = 1;
nodes = (
"331 -12 OFFCURVE",
"403 18 OFFCURVE",
"469 83 CURVE",
"441 125 LINE",
"389 79 OFFCURVE",
"327 56 OFFCURVE",
"256 56 CURVE SMOOTH",
"179 56 OFFCURVE",
"140 84 OFFCURVE",
"140 137 CURVE SMOOTH",
"140 185 OFFCURVE",
"172 210 OFFCURVE",
"240 210 CURVE SMOOTH",
"456 210 LINE",
"456 274 LINE",
"242 274 LINE SMOOTH",
"125 274 OFFCURVE",
"66 226 OFFCURVE",
"66 137 CURVE SMOOTH",
"66 43 OFFCURVE",
"131 -12 OFFCURVE",
"246 -12 CURVE SMOOTH"
);
}
);
};
backgroundImage = {
crop = "{{0, 0}, {82.38, 144.54}}";
imagePath = "scan-image/scan2017-1-a.png";
transform = "{12.56743, 0, 0, 15.66747, -47, -1092}";
};
layerId = "B9B856C8-1FA2-46F4-A929-F36A99765E59";
paths = (
{
closed = 1;
nodes = (
"315 -12 OFFCURVE",
"376 8 OFFCURVE",
"431 50 CURVE",
"440 0 LINE",
"494 0 LINE",
"494 305 LINE SMOOTH",
"494 427 OFFCURVE",
"432 482 OFFCURVE",
"291 482 CURVE SMOOTH",
"218 482 OFFCURVE",
"153 467 OFFCURVE",
"95 436 CURVE",
"118 373 LINE",
"168 400 OFFCURVE",
"226 414 OFFCURVE",
"288 414 CURVE SMOOTH",
"385 414 OFFCURVE",
"422 380 OFFCURVE",
"422 294 CURVE SMOOTH",
"422 274 LINE",
"242 274 LINE SMOOTH",
"125 274 OFFCURVE",
"66 226 OFFCURVE",
"66 137 CURVE SMOOTH",
"66 43 OFFCURVE",
"131 -12 OFFCURVE",
"246 -12 CURVE SMOOTH"
);
},
{
closed = 1;
nodes = (
"179 56 OFFCURVE",
"140 84 OFFCURVE",
"140 137 CURVE SMOOTH",
"140 185 OFFCURVE",
"172 210 OFFCURVE",
"240 210 CURVE SMOOTH",
"422 210 LINE",
"422 110 LINE",
"374 74 OFFCURVE",
"319 56 OFFCURVE",
"256 56 CURVE SMOOTH"
);
}
);
width = 580;
}
);
unicode = 0061;
},
{
color = 0;
glyphname = ae;
layers = (
{
anchors = (
{
name = bottom;
position = "{289, 0}";
},
{
name = top;
position = "{289, 476}";
}
);
background = {
anchors = (
{
name = bottom;
position = "{289, 0}";
},
{
name = top;
position = "{289, 476}";
}
);
paths = (
{
closed = 1;
nodes = (
"486 -12 OFFCURVE",
"538 8 OFFCURVE",
"585 50 CURVE",
"579 17 LINE",
"511 152 LINE",
"541 123 LINE",
"502 92 OFFCURVE",
"466 76 OFFCURVE",
"426 76 CURVE SMOOTH",
"355 76 OFFCURVE",
"330 119 OFFCURVE",
"330 244 CURVE SMOOTH",
"330 354 OFFCURVE",
"349 399 OFFCURVE",
"399 399 CURVE SMOOTH",
"444 399 OFFCURVE",
"465 358 OFFCURVE",
"465 254 CURVE SMOOTH",
"465 203 LINE",
"559 203 LINE",
"562 219 OFFCURVE",
"562 238 OFFCURVE",
"562 253 CURVE SMOOTH",
"562 405 OFFCURVE",
"507 488 OFFCURVE",
"403 488 CURVE SMOOTH",
"300 488 OFFCURVE",
"254 409 OFFCURVE",
"254 238 CURVE",
"225 238 LINE",
"225 72 OFFCURVE",
"292 -12 OFFCURVE",
"425 -12 CURVE SMOOTH"
);
},
{
closed = 1;
nodes = (
"215 -12 OFFCURVE",
"263 18 OFFCURVE",
"303 78 CURVE",
"264 127 LINE",
"235 91 OFFCURVE",
"211 76 OFFCURVE",
"179 76 CURVE SMOOTH",
"137 76 OFFCURVE",
"113 100 OFFCURVE",
"113 137 CURVE SMOOTH",
"113 179 OFFCURVE",
"139 203 OFFCURVE",
"189 203 CURVE SMOOTH",
"274 203 LINE",
"274 282 LINE",
"180 282 LINE SMOOTH",
"70 282 OFFCURVE",
"9 230 OFFCURVE",
"9 136 CURVE SMOOTH",
"9 46 OFFCURVE",
"65 -12 OFFCURVE",
"152 -12 CURVE SMOOTH"
);
},
{
closed = 1;
nodes = (
"301 238 LINE",
"301 301 LINE SMOOTH",
"301 427 OFFCURVE",
"258 488 OFFCURVE",
"159 488 CURVE SMOOTH",
"99 488 OFFCURVE",
"48 468 OFFCURVE",
"0 426 CURVE",
"6 459 LINE",
"74 324 LINE",
"43 354 LINE",
"82 385 OFFCURVE",
"118 399 OFFCURVE",
"152 399 CURVE SMOOTH",
"201 399 OFFCURVE",
"225 369 OFFCURVE",
"225 283 CURVE SMOOTH",
"225 238 LINE"
);
},
{
closed = 1;
nodes = (
"546 203 LINE",
"546 282 LINE",
"293 282 LINE",
"293 203 LINE"
);
},
{
closed = 1;
nodes = (
"284 411 LINE",
"284 416 LINE",
"282 416 LINE",
"282 411 LINE"
);
}
);
};
layerId = "27302DAC-E04E-41A7-B2D2-BD8305143A0A";
paths = (
{
closed = 1;
nodes = (
"203 -12 OFFCURVE",
"244 7 OFFCURVE",
"279 46 CURVE",
"312 8 OFFCURVE",
"361 -12 OFFCURVE",
"425 -12 CURVE SMOOTH",
"479 -12 OFFCURVE",
"526 4 OFFCURVE",
"569 37 CURVE",
"530 115 LINE",
"495 89 OFFCURVE",
"462 76 OFFCURVE",
"426 76 CURVE SMOOTH",
"363 76 OFFCURVE",
"337 109 OFFCURVE",
"331 203 CURVE",
"559 203 LINE",
"562 219 OFFCURVE",
"562 238 OFFCURVE",
"562 253 CURVE SMOOTH",
"562 405 OFFCURVE",
"507 488 OFFCURVE",
"403 488 CURVE SMOOTH",
"347 488 OFFCURVE",
"308 465 OFFCURVE",
"284 416 CURVE",
"282 416 LINE",
"261 464 OFFCURVE",
"221 488 OFFCURVE",
"159 488 CURVE SMOOTH",
"106 488 OFFCURVE",
"59 472 OFFCURVE",
"16 439 CURVE",
"55 363 LINE",
"89 388 OFFCURVE",
"121 399 OFFCURVE",
"152 399 CURVE SMOOTH",
"201 399 OFFCURVE",
"225 369 OFFCURVE",
"225 283 CURVE SMOOTH",
"225 282 LINE",
"180 282 LINE SMOOTH",
"70 282 OFFCURVE",
"9 230 OFFCURVE",
"9 136 CURVE SMOOTH",
"9 46 OFFCURVE",
"65 -12 OFFCURVE",
"152 -12 CURVE SMOOTH"
);
},
{
closed = 1;
nodes = (
"137 76 OFFCURVE",
"113 100 OFFCURVE",
"113 137 CURVE SMOOTH",
"113 179 OFFCURVE",
"139 203 OFFCURVE",
"189 203 CURVE SMOOTH",
"226 203 LINE",
"228 166 OFFCURVE",
"235 133 OFFCURVE",
"245 106 CURVE",
"224 85 OFFCURVE",
"204 76 OFFCURVE",
"179 76 CURVE SMOOTH"
);
},
{
closed = 1;
nodes = (
"335 364 OFFCURVE",
"355 399 OFFCURVE",
"399 399 CURVE SMOOTH",
"440 399 OFFCURVE",
"461 365 OFFCURVE",
"464 282 CURVE",
"331 282 LINE"
);
}
);
width = 580;
},
{
anchors = (
{
name = bottom;
position = "{290, 0}";
},
{
name = top;
position = "{290, 470}";
}
);
background = {
anchors = (
{
name = bottom;
position = "{290, 0}";
},
{
name = top;
position = "{290, 470}";
}
);
paths = (
{
closed = 1;
nodes = (
"498 -12 OFFCURVE",
"549 13 OFFCURVE",
"589 51 CURVE",
"582 -9 LINE",
"512 132 LINE",
"561 110 LINE",
"523 75 OFFCURVE",
"481 54 OFFCURVE",
"430 54 CURVE SMOOTH",
"347 54 OFFCURVE",
"313 109 OFFCURVE",
"313 235 CURVE SMOOTH",
"313 355 OFFCURVE",
"343 416 OFFCURVE",
"404 416 CURVE SMOOTH",
"462 416 OFFCURVE",
"493 362 OFFCURVE",
"493 252 CURVE SMOOTH",
"493 211 LINE",
"560 211 LINE",
"562 232 OFFCURVE",
"562 236 OFFCURVE",
"562 251 CURVE SMOOTH",
"562 400 OFFCURVE",
"508 482 OFFCURVE",
"409 482 CURVE SMOOTH",
"304 482 OFFCURVE",
"259 402 OFFCURVE",
"259 235 CURVE",
"243 235 LINE",
"243 71 OFFCURVE",
"305 -12 OFFCURVE",
"428 -12 CURVE SMOOTH"
);
},
{
closed = 1;
nodes = (
"218 -12 OFFCURVE",
"266 17 OFFCURVE",
"306 76 CURVE",
"275 117 LINE",
"239 71 OFFCURVE",
"210 54 OFFCURVE",
"168 54 CURVE SMOOTH",
"115 54 OFFCURVE",
"85 82 OFFCURVE",
"85 131 CURVE SMOOTH",
"85 183 OFFCURVE",
"118 211 OFFCURVE",
"182 211 CURVE SMOOTH",
"275 211 LINE",
"275 273 LINE",
"184 273 LINE SMOOTH",
"74 273 OFFCURVE",
"14 224 OFFCURVE",
"14 132 CURVE SMOOTH",
"14 44 OFFCURVE",
"69 -12 OFFCURVE",
"156 -12 CURVE SMOOTH"
);
},
{
closed = 1;
nodes = (
"297 235 LINE",
"297 306 LINE SMOOTH",
"297 425 OFFCURVE",
"255 482 OFFCURVE",
"157 482 CURVE SMOOTH",
"86 482 OFFCURVE",
"35 457 OFFCURVE",
"-5 419 CURVE",
"2 479 LINE",
"73 338 LINE",
"24 360 LINE",
"61 395 OFFCURVE",
"105 416 OFFCURVE",
"150 416 CURVE SMOOTH",
"212 416 OFFCURVE",
"243 377 OFFCURVE",
"243 289 CURVE SMOOTH",
"243 235 LINE"
);
},
{
closed = 1;
nodes = (
"555 211 LINE",
"555 273 LINE",
"295 273 LINE",
"295 211 LINE"
);
},
{
closed = 1;
nodes = (
"286 399 LINE",
"286 403 LINE",
"283 403 LINE",
"283 399 LINE"
);
}
);
};
layerId = "B9B856C8-1FA2-46F4-A929-F36A99765E59";
paths = (
{
closed = 1;
nodes = (
"209 -12 OFFCURVE",
"252 9 OFFCURVE",
"288 52 CURVE",
"319 9 OFFCURVE",
"366 -12 OFFCURVE",
"428 -12 CURVE SMOOTH",
"484 -12 OFFCURVE",
"527 4 OFFCURVE",
"563 29 CURVE",
"534 88 LINE",
"503 66 OFFCURVE",
"469 54 OFFCURVE",
"430 54 CURVE SMOOTH",
"352 54 OFFCURVE",
"318 102 OFFCURVE",
"313 211 CURVE",
"560 211 LINE",
"562 232 OFFCURVE",
"562 236 OFFCURVE",
"562 251 CURVE SMOOTH",
"562 400 OFFCURVE",
"508 482 OFFCURVE",
"409 482 CURVE SMOOTH",
"349 482 OFFCURVE",
"309 456 OFFCURVE",
"285 403 CURVE",
"283 403 LINE",
"264 456 OFFCURVE",
"223 482 OFFCURVE",
"157 482 CURVE SMOOTH",
"101 482 OFFCURVE",
"57 466 OFFCURVE",
"21 441 CURVE",
"51 382 LINE",
"81 404 OFFCURVE",
"115 416 OFFCURVE",
"150 416 CURVE SMOOTH",
"212 416 OFFCURVE",
"243 377 OFFCURVE",
"243 289 CURVE SMOOTH",
"243 273 LINE",
"184 273 LINE SMOOTH",
"74 273 OFFCURVE",
"14 224 OFFCURVE",
"14 132 CURVE SMOOTH",
"14 44 OFFCURVE",
"69 -12 OFFCURVE",
"156 -12 CURVE SMOOTH"
);
},
{
closed = 1;
nodes = (
"115 54 OFFCURVE",
"85 82 OFFCURVE",
"85 131 CURVE SMOOTH",
"85 183 OFFCURVE",
"118 211 OFFCURVE",
"182 211 CURVE SMOOTH",
"243 211 LINE",
"245 169 OFFCURVE",
"251 132 OFFCURVE",
"262 102 CURVE",
"232 67 OFFCURVE",
"205 54 OFFCURVE",
"168 54 CURVE SMOOTH"
);
},
{
closed = 1;
nodes = (
"320 368 OFFCURVE",
"350 416 OFFCURVE",
"404 416 CURVE SMOOTH",
"458 416 OFFCURVE",
"489 369 OFFCURVE",
"493 273 CURVE",
"314 273 LINE"
);
}
);
width = 580;
}
);
unicode = 00E6;
},
{
color = 0;
glyphname = b;
layers = (
{
anchors = (
{
name = bottom;
position = "{300, 0}";
},
{
name = center;
position = "{290, 238}";
},
{
name = top;
position = "{300, 476}";
}
);
background = {
anchors = (
{
name = bottom;
position = "{300, 0}";
},
{
name = top;
position = "{300, 476}";
}
);
components = (
{
name = d;
transform = "{-1, 0, 0, 1, 580, 0}";
}
);
};
layerId = "27302DAC-E04E-41A7-B2D2-BD8305143A0A";
paths = (
{
closed = 1;
nodes = (
"449 -12 OFFCURVE",
"529 85 OFFCURVE",
"529 238 CURVE SMOOTH",
"529 391 OFFCURVE",
"449 488 OFFCURVE",
"324 488 CURVE SMOOTH",
"280 488 OFFCURVE",
"237 476 OFFCURVE",
"194 449 CURVE",
"194 710 LINE",
"76 710 LINE",
"76 0 LINE",
"163 0 LINE",
"173 40 LINE",
"223 5 OFFCURVE",
"272 -12 OFFCURVE",
"324 -12 CURVE SMOOTH"
);
},
{
closed = 1;
nodes = (
"261 96 OFFCURVE",
"227 105 OFFCURVE",
"194 123 CURVE",
"194 353 LINE",
"227 371 OFFCURVE",
"261 380 OFFCURVE",
"294 380 CURVE SMOOTH",
"371 380 OFFCURVE",
"410 333 OFFCURVE",
"410 238 CURVE SMOOTH",
"410 143 OFFCURVE",
"371 96 OFFCURVE",
"294 96 CURVE SMOOTH"
);
}
);
width = 580;
},
{
anchors = (
{
name = bottom;
position = "{300, 0}";
},
{
name = center;
position = "{290, 235}";
},
{
name = top;
position = "{300, 470}";
}
);
background = {
anchors = (
{
name = bottom;
position = "{300, 0}";
},
{
name = top;
position = "{300, 470}";
}
);
components = (
{
name = d;
transform = "{-1, 0, 0, 1, 580, 0}";
}
);
};
layerId = "B9B856C8-1FA2-46F4-A929-F36A99765E59";
paths = (
{
closed = 1;
nodes = (
"442 -12 OFFCURVE",
"522 84 OFFCURVE",
"522 235 CURVE SMOOTH",
"522 386 OFFCURVE",
"442 482 OFFCURVE",
"316 482 CURVE SMOOTH",
"260 482 OFFCURVE",
"204 463 OFFCURVE",
"153 427 CURVE",
"153 710 LINE",
"81 710 LINE",
"81 0 LINE",
"135 0 LINE",
"143 50 LINE",
"197 9 OFFCURVE",
"256 -12 OFFCURVE",
"316 -12 CURVE SMOOTH"
);
},
{
closed = 1;
nodes = (
"254 56 OFFCURVE",
"197 76 OFFCURVE",
"153 109 CURVE",
"153 361 LINE",
"197 394 OFFCURVE",
"254 414 OFFCURVE",
"304 414 CURVE SMOOTH",
"394 414 OFFCURVE",
"448 346 OFFCURVE",
"448 235 CURVE SMOOTH",
"448 124 OFFCURVE",
"394 56 OFFCURVE",
"304 56 CURVE SMOOTH"
);
}
);
width = 580;
}
);
unicode = 0062;
},
{
color = 0;
glyphname = c;
layers = (
{
anchors = (
{
name = bottom;
position = "{310, 0}";
},
{
name = top;
position = "{300, 476}";
}
);
background = {
anchors = (
{
name = bottom;
position = "{310, 0}";
},
{
name = top;
position = "{300, 476}";
}
);
paths = (
{
closed = 1;
nodes = (
"405 -12 OFFCURVE",
"469 10 OFFCURVE",
"529 58 CURVE",
"524 29 LINE",
"468 147 LINE",
"486 150 LINE",
"422 110 OFFCURVE",
"383 96 OFFCURVE",
"333 96 CURVE SMOOTH",
"242 96 OFFCURVE",
"194 145 OFFCURVE",
"194 238 CURVE SMOOTH",
"194 331 OFFCURVE",
"242 380 OFFCURVE",
"333 380 CURVE SMOOTH",
"383 380 OFFCURVE",
"422 366 OFFCURVE",
"486 326 CURVE",
"451 323 LINE",
"509 461 LINE",
"529 418 LINE",
"469 466 OFFCURVE",
"405 488 OFFCURVE",
"330 488 CURVE SMOOTH",
"173 488 OFFCURVE",
"74 392 OFFCURVE",
"74 238 CURVE SMOOTH",
"74 84 OFFCURVE",
"173 -12 OFFCURVE",
"330 -12 CURVE SMOOTH"
);
}
);
};
backgroundImage = {
crop = "{{0, 0}, {82.38, 144.54}}";
imagePath = "scan-image/scan2017-1-c.png";
transform = "{10.87366, 0, 0, 13.55588, 29, -964}";
};
layerId = "27302DAC-E04E-41A7-B2D2-BD8305143A0A";
paths = (
{
closed = 1;
nodes = (
"399 -12 OFFCURVE",
"459 7 OFFCURVE",
"515 47 CURVE",
"471 141 LINE",
"416 108 OFFCURVE",
"379 96 OFFCURVE",
"333 96 CURVE SMOOTH",
"242 96 OFFCURVE",
"194 145 OFFCURVE",
"194 238 CURVE SMOOTH",
"194 331 OFFCURVE",
"242 380 OFFCURVE",
"333 380 CURVE SMOOTH",
"376 380 OFFCURVE",
"410 370 OFFCURVE",
"459 342 CURVE",
"500 439 LINE",
"448 472 OFFCURVE",
"393 488 OFFCURVE",
"330 488 CURVE SMOOTH",
"173 488 OFFCURVE",
"74 392 OFFCURVE",
"74 238 CURVE SMOOTH",
"74 84 OFFCURVE",
"173 -12 OFFCURVE",
"330 -12 CURVE SMOOTH"
);
}
);
width = 580;
},
{
anchors = (
{
name = bottom;
position = "{312, 0}";
},
{
name = top;
position = "{302, 470}";
}
);
background = {
anchors = (
{
name = bottom;
position = "{312, 0}";
},
{
name = top;
position = "{302, 470}";
}
);
paths = (
{
closed = 1;
nodes = (
"399 -12 OFFCURVE",
"461 8 OFFCURVE",
"520 50 CURVE",
"539 2 LINE",
"465 142 LINE",
"491 109 LINE",
"438 73 OFFCURVE",
"386 56 OFFCURVE",
"328 56 CURVE SMOOTH",
"216 56 OFFCURVE",
"152 120 OFFCURVE",
"152 235 CURVE SMOOTH",
"152 350 OFFCURVE",
"216 414 OFFCURVE",
"328 414 CURVE SMOOTH",
"386 414 OFFCURVE",
"438 397 OFFCURVE",
"491 361 CURVE",
"454 333 LINE",
"521 478 LINE",
"520 420 LINE",
"461 462 OFFCURVE",
"399 482 OFFCURVE",
"328 482 CURVE SMOOTH",
"173 482 OFFCURVE",
"78 388 OFFCURVE",
"78 235 CURVE SMOOTH",
"78 82 OFFCURVE",
"173 -12 OFFCURVE",
"328 -12 CURVE SMOOTH"
);
}
);
};
backgroundImage = {
crop = "{{0, 0}, {82.38, 144.54}}";
imagePath = "scan-image/scan2017-1-c.png";
transform = "{12.06976, 0, 0, 15.04703, -4, -1047}";
};
layerId = "B9B856C8-1FA2-46F4-A929-F36A99765E59";
paths = (
{
closed = 1;
nodes = (
"397 -12 OFFCURVE",
"458 7 OFFCURVE",
"515 47 CURVE",
"485 105 LINE",
"434 72 OFFCURVE",
"384 56 OFFCURVE",
"328 56 CURVE SMOOTH",
"216 56 OFFCURVE",
"152 120 OFFCURVE",
"152 235 CURVE SMOOTH",
"152 350 OFFCURVE",
"216 414 OFFCURVE",
"328 414 CURVE SMOOTH",
"379 414 OFFCURVE",
"426 401 OFFCURVE",
"472 373 CURVE",
"500 433 LINE",
"447 466 OFFCURVE",
"391 482 OFFCURVE",
"328 482 CURVE SMOOTH",
"173 482 OFFCURVE",
"78 388 OFFCURVE",
"78 235 CURVE SMOOTH",
"78 82 OFFCURVE",
"173 -12 OFFCURVE",
"328 -12 CURVE SMOOTH"
);
}
);
width = 580;
}
);
unicode = 0063;
},
{
color = 0;
glyphname = d;
layers = (
{
anchors = (
{
name = bottom;
position = "{290, 0}";
},
{
name = center;
position = "{290, 238}";
},
{
name = top;
position = "{290, 476}";
},
{
name = topright;
position = "{594, 710}";
}
);
background = {
anchors = (
{
name = bottom;
position = "{290, 0}";
},
{
name = center;
position = "{290, 238}";
},
{
name = top;
position = "{290, 476}";
},
{
name = topright;
position = "{594, 710}";
}
);
paths = (
{
closed = 1;
nodes = (
"324 -12 OFFCURVE",
"388 17 OFFCURVE",
"454 80 CURVE",
"414 141 LINE",
"373 111 OFFCURVE",
"329 96 OFFCURVE",
"286 96 CURVE SMOOTH",
"209 96 OFFCURVE",
"170 143 OFFCURVE",
"170 238 CURVE SMOOTH",
"170 333 OFFCURVE",
"209 380 OFFCURVE",
"286 380 CURVE SMOOTH",
"329 380 OFFCURVE",
"373 365 OFFCURVE",
"414 335 CURVE",
"454 396 LINE",
"388 459 OFFCURVE",
"324 488 OFFCURVE",
"256 488 CURVE SMOOTH",
"131 488 OFFCURVE",
"51 391 OFFCURVE",
"51 238 CURVE SMOOTH",
"51 85 OFFCURVE",
"131 -12 OFFCURVE",
"256 -12 CURVE SMOOTH"
);
},
{
closed = 1;
nodes = (
"504 0 LINE",
"504 710 LINE",
"386 710 LINE",
"386 123 LINE",
"417 0 LINE"
);
}
);
};
backgroundImage = {
crop = "{{0, 0}, {82.38, 144.54}}";
imagePath = "scan-image/scan2017-1-d.png";
transform = "{11.32201, 0, 0, 14.11484, 28, -1001}";
};
layerId = "27302DAC-E04E-41A7-B2D2-BD8305143A0A";
paths = (
{
closed = 1;
nodes = (
"308 -12 OFFCURVE",
"357 5 OFFCURVE",
"407 40 CURVE",
"417 0 LINE",
"504 0 LINE",
"504 710 LINE",
"386 710 LINE",
"386 449 LINE",
"343 476 OFFCURVE",
"300 488 OFFCURVE",
"256 488 CURVE SMOOTH",
"131 488 OFFCURVE",
"51 391 OFFCURVE",
"51 238 CURVE SMOOTH",
"51 85 OFFCURVE",
"131 -12 OFFCURVE",
"256 -12 CURVE SMOOTH"
);
},
{
closed = 1;
nodes = (
"209 96 OFFCURVE",
"170 143 OFFCURVE",
"170 238 CURVE SMOOTH",
"170 333 OFFCURVE",
"209 380 OFFCURVE",
"286 380 CURVE SMOOTH",
"319 380 OFFCURVE",
"353 371 OFFCURVE",
"386 353 CURVE",
"386 123 LINE",
"353 105 OFFCURVE",
"319 96 OFFCURVE",
"286 96 CURVE SMOOTH"
);
}
);
width = 580;
},
{
anchors = (
{
name = bottom;
position = "{290, 0}";
},
{
name = center;
position = "{290, 235}";
},
{
name = top;
position = "{290, 470}";
},
{
name = topright;
position = "{590, 710}";
}
);
background = {
anchors = (
{
name = bottom;
position = "{290, 0}";
},
{
name = center;
position = "{290, 235}";
},
{
name = top;
position = "{290, 470}";
},
{
name = topright;
position = "{590, 710}";
}
);
paths = (
{
closed = 1;
nodes = (
"338 -12 OFFCURVE",
"412 21 OFFCURVE",
"474 83 CURVE",
"446 125 LINE",
"400 83 OFFCURVE",
"333 56 OFFCURVE",
"276 56 CURVE SMOOTH",
"186 56 OFFCURVE",
"132 124 OFFCURVE",
"132 235 CURVE SMOOTH",
"132 346 OFFCURVE",
"186 414 OFFCURVE",
"276 414 CURVE SMOOTH",
"333 414 OFFCURVE",
"400 387 OFFCURVE",
"446 345 CURVE",
"474 387 LINE",
"412 449 OFFCURVE",
"338 482 OFFCURVE",
"264 482 CURVE SMOOTH",
"138 482 OFFCURVE",
"58 386 OFFCURVE",
"58 235 CURVE SMOOTH",
"58 84 OFFCURVE",
"138 -12 OFFCURVE",
"264 -12 CURVE SMOOTH"
);
},
{
closed = 1;
nodes = (
"499 0 LINE",
"499 710 LINE",
"427 710 LINE",
"427 109 LINE",
"445 0 LINE"
);
}
);
};
backgroundImage = {
crop = "{{0, 0}, {82.38, 144.54}}";
imagePath = "scan-image/scan2017-1-d.png";
transform = "{12.56743, 0, 0, 15.66747, 0, -1100}";
};
layerId = "B9B856C8-1FA2-46F4-A929-F36A99765E59";
paths = (
{
closed = 1;
nodes = (
"324 -12 OFFCURVE",
"383 9 OFFCURVE",
"437 50 CURVE",
"445 0 LINE",
"499 0 LINE",
"499 710 LINE",
"427 710 LINE",
"427 427 LINE",
"376 463 OFFCURVE",
"320 482 OFFCURVE",
"264 482 CURVE SMOOTH",
"138 482 OFFCURVE",
"58 386 OFFCURVE",
"58 235 CURVE SMOOTH",
"58 84 OFFCURVE",
"138 -12 OFFCURVE",
"264 -12 CURVE SMOOTH"
);
},
{
closed = 1;
nodes = (
"186 56 OFFCURVE",
"132 124 OFFCURVE",
"132 235 CURVE SMOOTH",
"132 346 OFFCURVE",
"186 414 OFFCURVE",
"276 414 CURVE SMOOTH",
"326 414 OFFCURVE",
"383 394 OFFCURVE",
"427 361 CURVE",
"427 109 LINE",
"383 76 OFFCURVE",
"326 56 OFFCURVE",
"276 56 CURVE SMOOTH"
);
}
);
width = 580;
}
);
unicode = 0064;
},
{
color = 0;
glyphname = eth;
layers = (
{
background = {
paths = (
{
closed = 1;
nodes = (
"430 -12 OFFCURVE",
"531 92 OFFCURVE",
"531 272 CURVE SMOOTH",
"531 509 OFFCURVE",
"377 684 OFFCURVE",
"140 722 CURVE",
"113 626 LINE",
"287 600 OFFCURVE",
"411 476 OFFCURVE",
"411 272 CURVE SMOOTH",
"411 156 OFFCURVE",
"370 96 OFFCURVE",
"283 96 CURVE SMOOTH",
"208 96 OFFCURVE",
"163 141 OFFCURVE",
"163 216 CURVE SMOOTH",
"163 291 OFFCURVE",
"210 336 OFFCURVE",
"288 336 CURVE SMOOTH",
"343 336 OFFCURVE",
"384 314 OFFCURVE",
"420 267 CURVE",
"457 301 LINE",
"407 392 OFFCURVE",
"347 432 OFFCURVE",
"261 432 CURVE SMOOTH",
"132 432 OFFCURVE",
"43 348 OFFCURVE",
"43 214 CURVE SMOOTH",
"43 80 OFFCURVE",
"137 -12 OFFCURVE",
"279 -12 CURVE SMOOTH"
);
},
{
closed = 1;
nodes = (
"383 553 LINE",
"363 604 LINE",
"116 514 LINE",
"143 446 LINE"
);
},
{
closed = 1;
nodes = (
"398 380 LINE",
"398 383 LINE",
"395 383 LINE",
"395 380 LINE"
);
},
{
closed = 1;
nodes = (
"507 593 LINE",
"480 662 LINE",
"363 604 LINE",
"383 553 LINE"
);
}
);
};
layerId = "27302DAC-E04E-41A7-B2D2-BD8305143A0A";
paths = (
{
closed = 1;
nodes = (
"430 -12 OFFCURVE",
"531 92 OFFCURVE",
"531 272 CURVE SMOOTH",
"531 388 OFFCURVE",
"494 490 OFFCURVE",
"428 567 CURVE",
"507 593 LINE",
"480 662 LINE",
"382 614 LINE",
"318 669 OFFCURVE",
"236 707 OFFCURVE",
"140 722 CURVE",
"113 626 LINE",
"170 617 OFFCURVE",
"223 598 OFFCURVE",
"266 569 CURVE",
"116 514 LINE",
"143 446 LINE",
"319 525 LINE",
"355 487 OFFCURVE",
"382 439 OFFCURVE",
"397 383 CURVE",
"395 383 LINE",
"358 417 OFFCURVE",
"314 432 OFFCURVE",
"261 432 CURVE SMOOTH",
"132 432 OFFCURVE",
"43 348 OFFCURVE",
"43 214 CURVE SMOOTH",
"43 80 OFFCURVE",
"137 -12 OFFCURVE",
"279 -12 CURVE SMOOTH"
);
},
{
closed = 1;
nodes = (
"208 96 OFFCURVE",
"163 141 OFFCURVE",
"163 216 CURVE SMOOTH",
"163 291 OFFCURVE",
"210 336 OFFCURVE",
"288 336 CURVE SMOOTH",
"338 336 OFFCURVE",
"377 317 OFFCURVE",
"411 278 CURVE",
"411 272 LINE SMOOTH",
"411 156 OFFCURVE",
"370 96 OFFCURVE",
"283 96 CURVE SMOOTH"
);
}
);
width = 580;
},
{
background = {
paths = (
{
closed = 1;
nodes = (
"430 -12 OFFCURVE",
"525 88 OFFCURVE",
"525 266 CURVE SMOOTH",
"525 503 OFFCURVE",
"361 676 OFFCURVE",
"143 722 CURVE",
"125 657 LINE",
"320 617 OFFCURVE",
"451 477 OFFCURVE",
"451 265 CURVE SMOOTH",
"451 124 OFFCURVE",
"391 56 OFFCURVE",
"284 56 CURVE SMOOTH",
"183 56 OFFCURVE",
"123 116 OFFCURVE",
"123 213 CURVE SMOOTH",
"123 308 OFFCURVE",
"183 366 OFFCURVE",
"290 366 CURVE SMOOTH",
"362 366 OFFCURVE",
"408 340 OFFCURVE",
"452 273 CURVE",
"482 307 LINE",
"435 393 OFFCURVE",
"369 433 OFFCURVE",
"278 433 CURVE SMOOTH",
"143 433 OFFCURVE",
"49 345 OFFCURVE",
"49 212 CURVE SMOOTH",
"49 79 OFFCURVE",
"140 -12 OFFCURVE",
"282 -12 CURVE SMOOTH"
);
},
{
closed = 1;
nodes = (
"368 556 LINE",
"350 605 LINE",
"123 521 LINE",
"145 463 LINE"
);
},
{
closed = 1;
nodes = (
"441 366 LINE",
"441 368 LINE",
"437 368 LINE",
"437 366 LINE"
);
},
{
closed = 1;
nodes = (
"496 602 LINE",
"474 660 LINE",
"350 605 LINE",
"368 556 LINE"
);
}
);
};
hints = (
{
horizontal = 1;
origin = "{0, 31}";
target = "{1, 12}";
},
{
horizontal = 1;
origin = "{1, 5}";
target = "{0, 25}";
},
{
origin = "{0, 28}";
target = "{1, 2}";
},
{
origin = "{1, 9}";
target = "{0, 2}";
},
{
horizontal = 1;
origin = "{0, 12}";
target = "{0, 11}";
}
);
layerId = "B9B856C8-1FA2-46F4-A929-F36A99765E59";
paths = (
{
closed = 1;
nodes = (
"430 -12 OFFCURVE",
"525 88 OFFCURVE",
"525 266 CURVE SMOOTH",
"525 387 OFFCURVE",
"482 492 OFFCURVE",
"411 571 CURVE",
"496 602 LINE",
"474 660 LINE",
"368 613 LINE",
"306 666 OFFCURVE",
"229 704 OFFCURVE",
"143 722 CURVE",
"125 657 LINE",
"190 644 OFFCURVE",
"248 619 OFFCURVE",
"296 585 CURVE",
"123 521 LINE",
"145 463 LINE",
"343 545 LINE",
"390 498 OFFCURVE",
"423 439 OFFCURVE",
"440 368 CURVE",
"438 368 LINE",
"397 412 OFFCURVE",
"344 433 OFFCURVE",
"278 433 CURVE SMOOTH",
"143 433 OFFCURVE",
"49 345 OFFCURVE",
"49 212 CURVE SMOOTH",
"49 79 OFFCURVE",
"140 -12 OFFCURVE",
"282 -12 CURVE SMOOTH"
);
},
{
closed = 1;
nodes = (
"183 56 OFFCURVE",
"123 116 OFFCURVE",
"123 213 CURVE SMOOTH",
"123 308 OFFCURVE",
"183 366 OFFCURVE",
"290 366 CURVE SMOOTH",
"361 366 OFFCURVE",
"407 340 OFFCURVE",
"451 275 CURVE",
"451 265 LINE SMOOTH",
"451 124 OFFCURVE",
"391 56 OFFCURVE",
"284 56 CURVE SMOOTH"
);
}
);
width = 580;
}
);
unicode = 00F0;
},
{
color = 0;
glyphname = dcroat;
layers = (
{
anchors = (
{
name = bottom;
position = "{290, 0}";
},
{
name = center;
position = "{290, 235}";
},
{
name = top;
position = "{290, 470}";
},
{
name = topright;
position = "{590, 710}";
}
);
background = {
anchors = (
{
name = bottom;
position = "{290, 0}";
},
{
name = center;
position = "{290, 235}";
},
{
name = top;
position = "{290, 470}";
},
{
name = topright;
position = "{590, 710}";
}
);
paths = (
{
closed = 1;
nodes = (
"590 540 LINE",
"590 602 LINE",
"262 602 LINE",
"262 540 LINE"
);
},
{
closed = 1;
nodes = (
"338 -12 OFFCURVE",
"412 21 OFFCURVE",
"474 83 CURVE",
"446 125 LINE",
"400 83 OFFCURVE",
"333 56 OFFCURVE",
"276 56 CURVE SMOOTH",
"186 56 OFFCURVE",
"132 124 OFFCURVE",
"132 215 CURVE SMOOTH",
"132 306 OFFCURVE",
"186 374 OFFCURVE",
"276 374 CURVE SMOOTH",
"333 374 OFFCURVE",
"400 347 OFFCURVE",
"446 305 CURVE",
"474 347 LINE",
"412 409 OFFCURVE",
"338 442 OFFCURVE",
"264 442 CURVE SMOOTH",
"138 442 OFFCURVE",
"58 346 OFFCURVE",
"58 215 CURVE SMOOTH",
"58 84 OFFCURVE",
"138 -12 OFFCURVE",
"264 -12 CURVE SMOOTH"
);
},
{
closed = 1;
nodes = (
"499 0 LINE",
"499 710 LINE",
"427 710 LINE",
"427 109 LINE",
"445 0 LINE"
);
}
);
};
hints = (
{
horizontal = 1;
origin = "{0, 24}";
target = "{1, 12}";
},
{
horizontal = 1;
origin = "{1, 5}";
target = "{0, 18}";
},
{
horizontal = 1;
origin = "{0, 3}";
target = up;
type = BottomGhost;
},
{
horizontal = 1;
origin = "{0, 13}";
target = "{0, 12}";
},
{
origin = "{0, 21}";
target = "{1, 2}";
},
{
origin = "{1, 9}";
target = "{0, 4}";
},
{
horizontal = 1;
origin = "{0, 10}";
target = down;
type = TopGhost;
}
);
layerId = "B9B856C8-1FA2-46F4-A929-F36A99765E59";
paths = (
{
closed = 1;
nodes = (
"324 -12 OFFCURVE",
"383 9 OFFCURVE",
"437 50 CURVE",
"445 0 LINE",
"499 0 LINE",
"499 540 LINE",
"590 540 LINE",
"590 602 LINE",
"499 602 LINE",
"499 710 LINE",
"427 710 LINE",
"427 602 LINE",
"262 602 LINE",
"262 540 LINE",
"427 540 LINE",
"427 387 LINE",
"376 423 OFFCURVE",
"320 442 OFFCURVE",
"264 442 CURVE SMOOTH",
"138 442 OFFCURVE",
"58 346 OFFCURVE",
"58 215 CURVE SMOOTH",
"58 84 OFFCURVE",
"138 -12 OFFCURVE",
"264 -12 CURVE SMOOTH"
);
},
{
closed = 1;
nodes = (
"186 56 OFFCURVE",
"132 124 OFFCURVE",
"132 215 CURVE SMOOTH",
"132 306 OFFCURVE",
"186 374 OFFCURVE",
"276 374 CURVE SMOOTH",
"326 374 OFFCURVE",
"383 354 OFFCURVE",
"427 321 CURVE",
"427 109 LINE",
"383 76 OFFCURVE",
"326 56 OFFCURVE",
"276 56 CURVE SMOOTH"
);
}
);
width = 580;
},
{
anchors = (
{
name = bottom;
position = "{290, 0}";
},
{
name = center;
position = "{290, 238}";
},
{
name = top;
position = "{290, 476}";
},
{
name = topright;
position = "{594, 710}";
}
);
background = {
anchors = (
{
name = bottom;
position = "{290, 0}";
},
{
name = center;
position = "{290, 238}";
},
{
name = top;
position = "{290, 476}";
},
{
name = topright;
position = "{594, 710}";
}
);
paths = (
{
closed = 1;
nodes = (
"590 531 LINE",
"590 617 LINE",
"239 617 LINE",
"239 531 LINE"
);
},
{
closed = 1;
nodes = (
"324 -12 OFFCURVE",
"388 17 OFFCURVE",
"454 80 CURVE",
"414 141 LINE",
"373 111 OFFCURVE",
"329 96 OFFCURVE",
"286 96 CURVE SMOOTH",
"209 96 OFFCURVE",
"170 143 OFFCURVE",
"170 218 CURVE SMOOTH",
"170 293 OFFCURVE",
"209 340 OFFCURVE",
"286 340 CURVE SMOOTH",
"329 340 OFFCURVE",
"373 325 OFFCURVE",
"414 295 CURVE",
"454 356 LINE",
"388 419 OFFCURVE",
"324 448 OFFCURVE",
"256 448 CURVE SMOOTH",
"131 448 OFFCURVE",
"51 351 OFFCURVE",
"51 218 CURVE SMOOTH",
"51 85 OFFCURVE",
"131 -12 OFFCURVE",
"256 -12 CURVE SMOOTH"
);
},
{
closed = 1;
nodes = (
"504 0 LINE",
"504 710 LINE",
"386 710 LINE",
"386 123 LINE",
"417 0 LINE"
);
}
);
};
layerId = "27302DAC-E04E-41A7-B2D2-BD8305143A0A";
paths = (
{
closed = 1;
nodes = (
"308 -12 OFFCURVE",
"357 5 OFFCURVE",
"407 41 CURVE",
"417 0 LINE",
"504 0 LINE",
"504 531 LINE",
"590 531 LINE",
"590 617 LINE",
"504 617 LINE",
"504 710 LINE",
"386 710 LINE",
"386 617 LINE",
"239 617 LINE",
"239 531 LINE",
"386 531 LINE",
"386 409 LINE",
"343 436 OFFCURVE",
"300 448 OFFCURVE",
"256 448 CURVE SMOOTH",
"131 448 OFFCURVE",
"51 351 OFFCURVE",
"51 218 CURVE SMOOTH",
"51 85 OFFCURVE",
"131 -12 OFFCURVE",
"256 -12 CURVE SMOOTH"
);
},
{
closed = 1;
nodes = (
"209 96 OFFCURVE",
"170 143 OFFCURVE",
"170 218 CURVE SMOOTH",
"170 293 OFFCURVE",
"209 340 OFFCURVE",
"286 340 CURVE SMOOTH",
"319 340 OFFCURVE",
"353 331 OFFCURVE",
"386 313 CURVE",
"386 123 LINE",
"353 105 OFFCURVE",
"319 96 OFFCURVE",
"286 96 CURVE SMOOTH"
);
}
);
width = 580;
}
);
unicode = 0111;
},
{
color = 0;
glyphname = e;
layers = (
{
anchors = (
{
name = bottom;
position = "{290, 0}";
},
{
name = ogonek;
position = "{490, 0}";
},
{
name = top;
position = "{296, 476}";
}
);
background = {
anchors = (
{
name = bottom;
position = "{290, 0}";
},
{
name = ogonek;
position = "{490, 0}";
},
{
name = top;
position = "{296, 476}";
}
);
paths = (
{
closed = 1;
nodes = (
"395 -12 OFFCURVE",
"456 9 OFFCURVE",
"523 57 CURVE",
"518 29 LINE",
"459 147 LINE",
"480 144 LINE",
"423 105 OFFCURVE",
"375 88 OFFCURVE",
"318 88 CURVE SMOOTH",
"220 88 OFFCURVE",
"168 137 OFFCURVE",
"168 238 CURVE SMOOTH",
"168 335 OFFCURVE",
"214 388 OFFCURVE",
"295 388 CURVE SMOOTH",
"373 388 OFFCURVE",
"417 339 OFFCURVE",
"417 248 CURVE SMOOTH",
"417 197 LINE",
"525 197 LINE",
"529 217 OFFCURVE",
"530 234 OFFCURVE",
"530 252 CURVE SMOOTH",
"530 394 OFFCURVE",
"438 488 OFFCURVE",
"296 488 CURVE SMOOTH",
"150 488 OFFCURVE",
"51 388 OFFCURVE",
"51 238 CURVE SMOOTH",
"51 83 OFFCURVE",
"152 -12 OFFCURVE",
"317 -12 CURVE SMOOTH"
);
},
{
closed = 1;
nodes = (
"480 197 LINE",
"480 286 LINE",
"136 286 LINE",
"136 197 LINE"
);
}
);
};
backgroundImage = {
crop = "{{0, 0}, {82.38, 144.54}}";
imagePath = "scan-image/scan2017-1-e.png";
transform = "{11.32201, 0, 0, 14.11484, -6, -1015}";
};
layerId = "27302DAC-E04E-41A7-B2D2-BD8305143A0A";
paths = (
{
closed = 1;
nodes = (
"389 -12 OFFCURVE",
"447 6 OFFCURVE",
"509 47 CURVE",
"465 134 LINE",
"415 102 OFFCURVE",
"370 88 OFFCURVE",
"318 88 CURVE SMOOTH",
"234 88 OFFCURVE",
"184 124 OFFCURVE",
"171 197 CURVE",
"525 197 LINE",
"529 217 OFFCURVE",
"530 234 OFFCURVE",
"530 252 CURVE SMOOTH",
"530 394 OFFCURVE",
"438 488 OFFCURVE",
"296 488 CURVE SMOOTH",
"150 488 OFFCURVE",
"51 388 OFFCURVE",
"51 238 CURVE SMOOTH",
"51 83 OFFCURVE",
"152 -12 OFFCURVE",
"317 -12 CURVE SMOOTH"
);
},
{
closed = 1;
nodes = (
"186 352 OFFCURVE",
"229 388 OFFCURVE",
"295 388 CURVE SMOOTH",
"361 388 OFFCURVE",
"403 353 OFFCURVE",
"414 286 CURVE",
"172 286 LINE"
);
}
);
width = 580;
},
{
anchors = (
{
name = bottom;
position = "{290, 0}";
},
{
name = ogonek;
position = "{490, 0}";
},
{
name = top;
position = "{297, 470}";
}
);
background = {
anchors = (
{
name = bottom;
position = "{290, 0}";
},
{
name = ogonek;
position = "{490, 0}";
},
{
name = top;
position = "{297, 470}";
}
);
paths = (
{
closed = 1;
nodes = (
"392 -12 OFFCURVE",
"455 8 OFFCURVE",
"519 53 CURVE",
"531 5 LINE",
"459 142 LINE",
"485 110 LINE",
"430 72 OFFCURVE",
"379 56 OFFCURVE",
"319 56 CURVE SMOOTH",
"198 56 OFFCURVE",
"131 120 OFFCURVE",
"131 235 CURVE SMOOTH",
"131 346 OFFCURVE",
"194 414 OFFCURVE",
"296 414 CURVE SMOOTH",
"395 414 OFFCURVE",
"453 351 OFFCURVE",
"453 245 CURVE SMOOTH",
"453 210 LINE",
"522 210 LINE",
"524 224 OFFCURVE",
"524 238 OFFCURVE",
"524 251 CURVE SMOOTH",
"524 392 OFFCURVE",
"437 482 OFFCURVE",
"297 482 CURVE SMOOTH",
"152 482 OFFCURVE",
"57 386 OFFCURVE",
"57 235 CURVE SMOOTH",
"57 82 OFFCURVE",
"156 -12 OFFCURVE",
"317 -12 CURVE SMOOTH"
);
},
{
closed = 1;
nodes = (
"497 210 LINE",
"497 274 LINE",
"121 274 LINE",
"121 210 LINE"
);
}
);
};
backgroundImage = {
crop = "{{0, 0}, {82.38, 144.54}}";
imagePath = "scan-image/scan2017-1-e.png";
transform = "{12.56743, 0, 0, 15.66747, -40, -1103}";
};
hints = (
{
origin = "{0, 19}";
target = "{0, 9}";
},
{
origin = "{1, 5}";
target = "{0, 13}";
},
{
horizontal = 1;
origin = "{0, 16}";
target = "{1, 2}";
},
{
horizontal = 1;
origin = "{0, 22}";
target = "{0, 6}";
}
);
layerId = "B9B856C8-1FA2-46F4-A929-F36A99765E59";
paths = (
{
closed = 1;
nodes = (
"388 -12 OFFCURVE",
"449 6 OFFCURVE",
"509 46 CURVE",
"478 105 LINE",
"426 71 OFFCURVE",
"377 56 OFFCURVE",
"319 56 CURVE SMOOTH",
"207 56 OFFCURVE",
"141 111 OFFCURVE",
"132 210 CURVE",
"522 210 LINE",
"524 224 OFFCURVE",
"524 238 OFFCURVE",
"524 251 CURVE SMOOTH",
"524 392 OFFCURVE",
"437 482 OFFCURVE",
"297 482 CURVE SMOOTH",
"152 482 OFFCURVE",
"57 386 OFFCURVE",
"57 235 CURVE SMOOTH",
"57 82 OFFCURVE",
"156 -12 OFFCURVE",
"317 -12 CURVE SMOOTH"
);
},
{
closed = 1;
nodes = (
"147 362 OFFCURVE",
"207 414 OFFCURVE",
"296 414 CURVE SMOOTH",
"386 414 OFFCURVE",
"442 362 OFFCURVE",
"451 274 CURVE",
"134 274 LINE"
);
}
);
width = 580;
}
);
unicode = 0065;
},
{
color = 0;
glyphname = f;
layers = (
{
anchors = (
{
name = bottom;
position = "{290, 0}";
},
{
name = top;
position = "{290, 476}";
}
);
background = {
anchors = (
{
name = bottom;
position = "{290, 0}";
},
{
name = top;
position = "{290, 476}";
}
);
paths = (
{
closed = 1;
nodes = (
"329 0 LINE",
"329 521 LINE SMOOTH",
"329 585 OFFCURVE",
"359 614 OFFCURVE",
"426 614 CURVE SMOOTH",
"473 614 OFFCURVE",
"513 600 OFFCURVE",
"557 569 CURVE",
"527 552 LINE",
"568 691 LINE",
"613 650 LINE",
"555 698 OFFCURVE",
"486 722 OFFCURVE",
"408 722 CURVE SMOOTH",
"280 722 OFFCURVE",
"211 658 OFFCURVE",
"211 539 CURVE SMOOTH",
"211 0 LINE"
);
},
{
closed = 1;
nodes = (
"211 370 LINE",
"211 476 LINE",
"72 476 LINE",
"72 370 LINE"
);
},
{
closed = 1;
nodes = (
"509 370 LINE",
"509 476 LINE",
"329 476 LINE",
"329 370 LINE"
);
}
);
};
backgroundImage = {
crop = "{{0, 0}, {82.38, 144.54}}";
imagePath = "scan-image/scan2017-1-f.png";
transform = "{11.32201, 0, 0, 14.11484, 7, -998}";
};
layerId = "27302DAC-E04E-41A7-B2D2-BD8305143A0A";
paths = (
{
closed = 1;
nodes = (
"329 0 LINE",
"329 370 LINE",
"509 370 LINE",
"509 476 LINE",
"329 476 LINE",
"329 521 LINE SMOOTH",
"329 585 OFFCURVE",
"359 614 OFFCURVE",
"426 614 CURVE SMOOTH",
"465 614 OFFCURVE",
"500 604 OFFCURVE",
"536 583 CURVE",
"566 683 LINE",
"518 709 OFFCURVE",
"466 722 OFFCURVE",
"408 722 CURVE SMOOTH",
"280 722 OFFCURVE",
"211 658 OFFCURVE",
"211 539 CURVE SMOOTH",
"211 476 LINE",
"72 476 LINE",
"72 370 LINE",
"211 370 LINE",
"211 0 LINE"
);
}
);
width = 580;
},
{
anchors = (
{
name = bottom;
position = "{290, 0}";
},
{
name = top;
position = "{290, 470}";
}
);
background = {
anchors = (
{
name = bottom;
position = "{290, 0}";
},
{
name = top;
position = "{290, 470}";
}
);
paths = (
{
closed = 1;
nodes = (
"304 0 LINE",
"304 534 LINE SMOOTH",
"304 614 OFFCURVE",
"343 654 OFFCURVE",
"422 654 CURVE SMOOTH",
"484 654 OFFCURVE",
"548 629 OFFCURVE",
"597 585 CURVE",
"518 567 LINE",
"565 722 LINE",
"624 644 LINE",
"562 697 OFFCURVE",
"494 722 OFFCURVE",
"416 722 CURVE SMOOTH",
"295 722 OFFCURVE",
"232 662 OFFCURVE",
"232 545 CURVE SMOOTH",
"232 0 LINE"
);
},
{
closed = 1;
nodes = (
"232 404 LINE",
"232 470 LINE",
"77 470 LINE",
"77 404 LINE"
);
},
{
closed = 1;
nodes = (
"504 404 LINE",
"504 470 LINE",
"304 470 LINE",
"304 404 LINE"
);
}
);
};
backgroundImage = {
crop = "{{0, 0}, {82.38, 144.54}}";
imagePath = "scan-image/scan2017-1-f.png";
transform = "{12.56743, 0, 0, 15.66747, -23, -1098}";
};
layerId = "B9B856C8-1FA2-46F4-A929-F36A99765E59";
paths = (
{
closed = 1;
nodes = (
"304 0 LINE",
"304 404 LINE",
"504 404 LINE",
"504 470 LINE",
"304 470 LINE",
"304 534 LINE SMOOTH",
"304 614 OFFCURVE",
"343 654 OFFCURVE",
"422 654 CURVE SMOOTH",
"461 654 OFFCURVE",
"500 644 OFFCURVE",
"536 626 CURVE",
"555 690 LINE",
"512 712 OFFCURVE",
"466 722 OFFCURVE",
"416 722 CURVE SMOOTH",
"295 722 OFFCURVE",
"232 662 OFFCURVE",
"232 545 CURVE SMOOTH",
"232 470 LINE",
"77 470 LINE",
"77 404 LINE",
"232 404 LINE",
"232 0 LINE"
);
}
);
width = 580;
}
);
unicode = 0066;
},
{
color = 0;
glyphname = g;
layers = (
{
anchors = (
{
name = bottom;
position = "{291, 0}";
},
{
name = top;
position = "{279, 476}";
}
);
background = {
anchors = (
{
name = bottom;
position = "{291, 0}";
},
{
name = top;
position = "{279, 476}";
}
);
paths = (
{
closed = 1;
nodes = (
"324 -2 OFFCURVE",
"388 27 OFFCURVE",
"454 90 CURVE",
"414 151 LINE",
"373 121 OFFCURVE",
"329 106 OFFCURVE",
"286 106 CURVE SMOOTH",
"209 106 OFFCURVE",
"170 155 OFFCURVE",
"170 243 CURVE SMOOTH",
"170 331 OFFCURVE",
"209 380 OFFCURVE",
"286 380 CURVE SMOOTH",
"329 380 OFFCURVE",
"373 365 OFFCURVE",
"414 335 CURVE",
"454 396 LINE",
"388 459 OFFCURVE",
"324 488 OFFCURVE",
"256 488 CURVE SMOOTH",
"131 488 OFFCURVE",
"51 389 OFFCURVE",
"51 243 CURVE SMOOTH",
"51 97 OFFCURVE",
"131 -2 OFFCURVE",
"256 -2 CURVE SMOOTH"
);
},
{
closed = 1;
nodes = (
"422 -222 OFFCURVE",
"504 -151 OFFCURVE",
"504 -19 CURVE SMOOTH",
"504 48 LINE",
"386 48 LINE",
"386 -11 LINE SMOOTH",
"386 -81 OFFCURVE",
"348 -114 OFFCURVE",
"264 -114 CURVE SMOOTH",
"204 -114 OFFCURVE",
"144 -97 OFFCURVE",
"95 -62 CURVE",
"118 -50 LINE",
"63 -190 LINE",
"46 -154 LINE",
"118 -201 OFFCURVE",
"190 -222 OFFCURVE",
"272 -222 CURVE SMOOTH"
);
},
{
closed = 1;
nodes = (
"504 48 LINE",
"504 476 LINE",
"417 476 LINE",
"386 353 LINE",
"386 48 LINE"
);
}
);
};
backgroundImage = {
crop = "{{0, 0}, {82.38, 144.54}}";
imagePath = "scan-image/scan2017-1-g.png";
transform = "{11.32201, 0, 0, 14.11484, -14, -1013}";
};
layerId = "27302DAC-E04E-41A7-B2D2-BD8305143A0A";
paths = (
{
closed = 1;
nodes = (
"422 -222 OFFCURVE",
"504 -151 OFFCURVE",
"504 -19 CURVE SMOOTH",
"504 476 LINE",
"417 476 LINE",
"407 436 LINE",
"357 471 OFFCURVE",
"308 488 OFFCURVE",
"256 488 CURVE SMOOTH",
"131 488 OFFCURVE",
"51 389 OFFCURVE",
"51 243 CURVE SMOOTH",
"51 97 OFFCURVE",
"131 -2 OFFCURVE",
"256 -2 CURVE SMOOTH",
"300 -2 OFFCURVE",
"343 10 OFFCURVE",
"386 37 CURVE",
"386 -11 LINE SMOOTH",
"386 -81 OFFCURVE",
"348 -114 OFFCURVE",
"264 -114 CURVE SMOOTH",
"210 -114 OFFCURVE",
"156 -100 OFFCURVE",
"109 -72 CURVE",
"71 -169 LINE",
"135 -206 OFFCURVE",
"200 -222 OFFCURVE",
"272 -222 CURVE SMOOTH"
);
},
{
closed = 1;
nodes = (
"209 106 OFFCURVE",
"170 155 OFFCURVE",
"170 243 CURVE SMOOTH",
"170 331 OFFCURVE",
"209 380 OFFCURVE",
"286 380 CURVE SMOOTH",
"319 380 OFFCURVE",
"353 371 OFFCURVE",
"386 353 CURVE",
"386 133 LINE",
"353 115 OFFCURVE",
"319 106 OFFCURVE",
"286 106 CURVE SMOOTH"
);
}
);
width = 580;
},
{
anchors = (
{
name = bottom;
position = "{290, 0}";
},
{
name = top;
position = "{278, 470}";
}
);
background = {
anchors = (
{
name = bottom;
position = "{290, 0}";
},
{
name = top;
position = "{278, 470}";
}
);
paths = (
{
closed = 1;
nodes = (
"338 -2 OFFCURVE",
"412 31 OFFCURVE",
"474 93 CURVE",
"446 135 LINE",
"400 93 OFFCURVE",
"333 66 OFFCURVE",
"276 66 CURVE SMOOTH",
"186 66 OFFCURVE",
"132 136 OFFCURVE",
"132 240 CURVE SMOOTH",
"132 344 OFFCURVE",
"186 414 OFFCURVE",
"276 414 CURVE SMOOTH",
"333 414 OFFCURVE",
"400 387 OFFCURVE",
"446 345 CURVE",
"474 387 LINE",
"412 449 OFFCURVE",
"338 482 OFFCURVE",
"264 482 CURVE SMOOTH",
"138 482 OFFCURVE",
"58 384 OFFCURVE",
"58 240 CURVE SMOOTH",
"58 96 OFFCURVE",
"138 -2 OFFCURVE",
"264 -2 CURVE SMOOTH"
);
},
{
closed = 1;
nodes = (
"424 -222 OFFCURVE",
"499 -148 OFFCURVE",
"499 -23 CURVE SMOOTH",
"499 39 LINE",
"427 39 LINE",
"427 -14 LINE SMOOTH",
"427 -108 OFFCURVE",
"377 -154 OFFCURVE",
"273 -154 CURVE SMOOTH",
"200 -154 OFFCURVE",
"133 -132 OFFCURVE",
"76 -91 CURVE",
"129 -67 LINE",
"68 -220 LINE",
"40 -147 LINE",
"107 -198 OFFCURVE",
"190 -222 OFFCURVE",
"275 -222 CURVE SMOOTH"
);
},
{
closed = 1;
nodes = (
"499 39 LINE",
"499 470 LINE",
"445 470 LINE",
"427 361 LINE",
"427 39 LINE"
);
}
);
};
backgroundImage = {
crop = "{{0, 0}, {82.38, 144.54}}";
imagePath = "scan-image/scan2017-1-g.png";
transform = "{12.56743, 0, 0, 15.66747, -47, -1090}";
};
layerId = "B9B856C8-1FA2-46F4-A929-F36A99765E59";
paths = (
{
closed = 1;
nodes = (
"424 -222 OFFCURVE",
"499 -148 OFFCURVE",
"499 -23 CURVE SMOOTH",
"499 470 LINE",
"445 470 LINE",
"437 420 LINE",
"383 461 OFFCURVE",
"324 482 OFFCURVE",
"264 482 CURVE SMOOTH",
"138 482 OFFCURVE",
"58 384 OFFCURVE",
"58 240 CURVE SMOOTH",
"58 96 OFFCURVE",
"138 -2 OFFCURVE",
"264 -2 CURVE SMOOTH",
"320 -2 OFFCURVE",
"376 17 OFFCURVE",
"427 53 CURVE",
"427 -14 LINE SMOOTH",
"427 -108 OFFCURVE",
"377 -154 OFFCURVE",
"273 -154 CURVE SMOOTH",
"214 -154 OFFCURVE",
"160 -140 OFFCURVE",
"111 -113 CURVE",
"85 -176 LINE",
"143 -207 OFFCURVE",
"208 -222 OFFCURVE",
"275 -222 CURVE SMOOTH"
);
},
{
closed = 1;
nodes = (
"186 66 OFFCURVE",
"132 136 OFFCURVE",
"132 240 CURVE SMOOTH",
"132 344 OFFCURVE",
"186 414 OFFCURVE",
"276 414 CURVE SMOOTH",
"326 414 OFFCURVE",
"383 394 OFFCURVE",
"427 361 CURVE",
"427 119 LINE",
"383 86 OFFCURVE",
"326 66 OFFCURVE",
"276 66 CURVE SMOOTH"
);
}
);
width = 580;
}
);
unicode = 0067;
},
{
color = 0;
glyphname = h;
layers = (
{
anchors = (
{
name = bottom;
position = "{289, 0}";
},
{
name = bottomleft;
position = "{10, 0}";
},
{
name = center;
position = "{139, 594}";
},
{
name = ogonek;
position = "{81, 476}";
},
{
name = top;
position = "{139, 680}";
}
);
background = {
anchors = (
{
name = bottom;
position = "{289, 0}";
},
{
name = center;
position = "{139, 594}";
},
{
name = top;
position = "{139, 680}";
}
);
components = (
{
name = u;
transform = "{-1, 0, 0, -1, 580, 476}";
}
);
paths = (
{
closed = 1;
nodes = (
"199 0 LINE",
"199 710 LINE",
"81 710 LINE",
"81 0 LINE"
);
}
);
};
layerId = "27302DAC-E04E-41A7-B2D2-BD8305143A0A";
paths = (
{
closed = 1;
nodes = (
"199 0 LINE",
"199 353 LINE",
"233 371 OFFCURVE",
"265 380 OFFCURVE",
"302 380 CURVE SMOOTH",
"366 380 OFFCURVE",
"389 355 OFFCURVE",
"389 287 CURVE SMOOTH",
"389 0 LINE",
"507 0 LINE",
"507 305 LINE SMOOTH",
"507 422 OFFCURVE",
"445 488 OFFCURVE",
"333 488 CURVE SMOOTH",
"285 488 OFFCURVE",
"242 476 OFFCURVE",
"199 449 CURVE",
"199 710 LINE",
"81 710 LINE",
"81 0 LINE"
);
}
);
width = 580;
},
{
anchors = (
{
name = bottom;
position = "{290, 0}";
},
{
name = bottomleft;
position = "{10, 0}";
},
{
name = center;
position = "{125, 591}";
},
{
name = ogonek;
position = "{89, 470}";
},
{
name = top;
position = "{125, 680}";
}
);
background = {
anchors = (
{
name = bottom;
position = "{290, 0}";
},
{
name = center;
position = "{125, 591}";
},
{
name = top;
position = "{125, 680}";
}
);
components = (
{
name = u;
transform = "{-1, 0, 0, -1, 580, 470}";
}
);
paths = (
{
closed = 1;
nodes = (
"161 0 LINE",
"161 710 LINE",
"89 710 LINE",
"89 0 LINE"
);
}
);
};
layerId = "B9B856C8-1FA2-46F4-A929-F36A99765E59";
paths = (
{
closed = 1;
nodes = (
"161 0 LINE",
"161 361 LINE",
"207 395 OFFCURVE",
"263 414 OFFCURVE",
"317 414 CURVE SMOOTH",
"392 414 OFFCURVE",
"425 378 OFFCURVE",
"425 294 CURVE SMOOTH",
"425 0 LINE",
"497 0 LINE",
"497 305 LINE SMOOTH",
"497 423 OFFCURVE",
"439 482 OFFCURVE",
"329 482 CURVE SMOOTH",
"268 482 OFFCURVE",
"212 464 OFFCURVE",
"161 427 CURVE",
"161 710 LINE",
"89 710 LINE",
"89 0 LINE"
);
}
);
width = 580;
}
);
unicode = 0068;
},
{
color = 0;
glyphname = hbar;
layers = (
{
anchors = (
{
name = _center;
position = "{125, 583}";
},
{
name = bottom;
position = "{290, 0}";
},
{
name = bottomleft;
position = "{10, 0}";
},
{
name = top;
position = "{125, 670}";
}
);
background = {
anchors = (
{
name = _center;
position = "{125, 583}";
},
{
name = bottom;
position = "{290, 0}";
},
{
name = bottomleft;
position = "{10, 0}";
},
{
name = top;
position = "{125, 670}";
}
);
paths = (
{
closed = 1;
nodes = (
"497 0 LINE",
"497 265 LINE SMOOTH",
"497 383 OFFCURVE",
"439 442 OFFCURVE",
"329 442 CURVE SMOOTH",
"248 442 OFFCURVE",
"177 410 OFFCURVE",
"114 347 CURVE",
"142 305 LINE",
"191 349 OFFCURVE",
"255 374 OFFCURVE",
"317 374 CURVE SMOOTH",
"392 374 OFFCURVE",
"425 338 OFFCURVE",
"425 254 CURVE SMOOTH",
"425 0 LINE"
);
},
{
closed = 1;
nodes = (
"161 0 LINE",
"161 710 LINE",
"89 710 LINE",
"89 0 LINE"
);
},
{
closed = 1;
nodes = (
"318 540 LINE",
"318 602 LINE",
"-10 602 LINE",
"-10 540 LINE"
);
}
);
};
hints = (
{
horizontal = 1;
origin = "{0, 27}";
target = up;
type = BottomGhost;
},
{
horizontal = 1;
origin = "{0, 4}";
target = "{0, 13}";
},
{
horizontal = 1;
origin = "{0, 25}";
target = "{0, 24}";
},
{
origin = "{0, 27}";
target = "{0, 0}";
},
{
origin = "{0, 8}";
target = "{0, 9}";
},
{
horizontal = 1;
origin = "{0, 22}";
target = down;
type = TopGhost;
}
);
layerId = "B9B856C8-1FA2-46F4-A929-F36A99765E59";
paths = (
{
closed = 1;
nodes = (
"161 0 LINE",
"161 321 LINE",
"207 355 OFFCURVE",
"263 374 OFFCURVE",
"317 374 CURVE SMOOTH",
"392 374 OFFCURVE",
"425 338 OFFCURVE",
"425 254 CURVE SMOOTH",
"425 0 LINE",
"497 0 LINE",
"497 265 LINE SMOOTH",
"497 383 OFFCURVE",
"439 442 OFFCURVE",
"329 442 CURVE SMOOTH",
"268 442 OFFCURVE",
"212 424 OFFCURVE",
"161 387 CURVE",
"161 540 LINE",
"318 540 LINE",
"318 602 LINE",
"161 602 LINE",
"161 710 LINE",
"89 710 LINE",
"89 602 LINE",
"-10 602 LINE",
"-10 540 LINE",
"89 540 LINE",
"89 0 LINE"
);
}
);
width = 580;
},
{
anchors = (
{
name = _center;
position = "{140, 587}";
},
{
name = bottom;
position = "{289, 0}";
},
{
name = bottomleft;
position = "{10, 0}";
},
{
name = top;
position = "{139, 690}";
}
);
background = {
anchors = (
{
name = _center;
position = "{140, 587}";
},
{
name = bottom;
position = "{289, 0}";
},
{
name = bottomleft;
position = "{10, 0}";
},
{
name = top;
position = "{139, 690}";
}
);
paths = (
{
closed = 1;
nodes = (
"507 0 LINE",
"507 265 LINE SMOOTH",
"507 382 OFFCURVE",
"445 448 OFFCURVE",
"333 448 CURVE SMOOTH",
"260 448 OFFCURVE",
"199 420 OFFCURVE",
"131 356 CURVE",
"171 295 LINE",
"215 326 OFFCURVE",
"255 340 OFFCURVE",
"302 340 CURVE SMOOTH",
"366 340 OFFCURVE",
"389 315 OFFCURVE",
"389 247 CURVE SMOOTH",
"389 0 LINE"
);
},
{
closed = 1;
nodes = (
"199 0 LINE",
"199 710 LINE",
"81 710 LINE",
"81 0 LINE"
);
},
{
closed = 1;
nodes = (
"341 531 LINE",
"341 617 LINE",
"-10 617 LINE",
"-10 531 LINE"
);
}
);
};
layerId = "27302DAC-E04E-41A7-B2D2-BD8305143A0A";
paths = (
{
closed = 1;
nodes = (
"199 0 LINE",
"199 313 LINE",
"233 331 OFFCURVE",
"265 340 OFFCURVE",
"302 340 CURVE SMOOTH",
"366 340 OFFCURVE",
"389 315 OFFCURVE",
"389 247 CURVE SMOOTH",
"389 0 LINE",
"507 0 LINE",
"507 265 LINE SMOOTH",
"507 382 OFFCURVE",
"445 448 OFFCURVE",
"333 448 CURVE SMOOTH",
"285 448 OFFCURVE",
"242 436 OFFCURVE",
"199 409 CURVE",
"199 531 LINE",
"341 531 LINE",
"341 617 LINE",
"199 617 LINE",
"199 710 LINE",
"81 710 LINE",
"81 617 LINE",
"-10 617 LINE",
"-10 531 LINE",
"81 531 LINE",
"81 0 LINE"
);
}
);
width = 580;
}
);
unicode = 0127;
},
{
color = 0;
glyphname = idotless;
layers = (
{
anchors = (
{
name = bottom;
position = "{290, 0}";
},
{
name = ogonek;
position = "{410, 0}";
},
{
name = top;
position = "{280, 476}";
}
);
background = {
anchors = (
{
name = bottom;
position = "{290, 0}";
},
{
name = ogonek;
position = "{410, 0}";
},
{
name = top;
position = "{280, 476}";
}
);
paths = (
{
closed = 1;
nodes = (
"349 0 LINE",
"349 476 LINE",
"231 476 LINE",
"231 0 LINE"
);
},
{
closed = 1;
nodes = (
"533 0 LINE",
"533 106 LINE",
"349 106 LINE",
"349 0 LINE"
);
},
{
closed = 1;
nodes = (
"231 370 LINE",
"231 476 LINE",
"47 476 LINE",
"47 370 LINE"
);
}
);
};
layerId = "27302DAC-E04E-41A7-B2D2-BD8305143A0A";
paths = (
{
closed = 1;
nodes = (
"533 0 LINE",
"533 106 LINE",
"349 106 LINE",
"349 476 LINE",
"47 476 LINE",
"47 370 LINE",
"231 370 LINE",
"231 0 LINE"
);
}
);
width = 580;
},
{
anchors = (
{
name = bottom;
position = "{290, 0}";
},
{
name = ogonek;
position = "{397, 0}";
},
{
name = top;
position = "{280, 470}";
}
);
background = {
anchors = (
{
name = bottom;
position = "{290, 0}";
},
{
name = ogonek;
position = "{397, 0}";
},
{
name = top;
position = "{280, 470}";
}
);
paths = (
{
closed = 1;
nodes = (
"326 0 LINE",
"326 470 LINE",
"254 470 LINE",
"254 0 LINE"
);
},
{
closed = 1;
nodes = (
"526 0 LINE",
"526 66 LINE",
"326 66 LINE",
"326 0 LINE"
);
},
{
closed = 1;
nodes = (
"254 404 LINE",
"254 470 LINE",
"54 470 LINE",
"54 404 LINE"
);
}
);
};
layerId = "B9B856C8-1FA2-46F4-A929-F36A99765E59";
paths = (
{
closed = 1;
nodes = (
"526 0 LINE",
"526 66 LINE",
"326 66 LINE",
"326 470 LINE",
"54 470 LINE",
"54 404 LINE",
"254 404 LINE",
"254 0 LINE"
);
}
);
width = 580;
}
);
unicode = 0131;
},
{
color = 0;
glyphname = jdotless;
layers = (
{
anchors = (
{
name = bottom;
position = "{292, 0}";
},
{
name = top;
position = "{353, 476}";
}
);
background = {
anchors = (
{
name = bottom;
position = "{292, 0}";
},
{
name = top;
position = "{353, 476}";
}
);
paths = (
{
closed = 1;
nodes = (
"12 -150 LINE",
"70 -198 OFFCURVE",
"143 -222 OFFCURVE",
"223 -222 CURVE SMOOTH",
"349 -222 OFFCURVE",
"422 -154 OFFCURVE",
"422 -37 CURVE SMOOTH",
"422 476 LINE",
"304 476 LINE",
"304 -19 LINE SMOOTH",
"304 -81 OFFCURVE",
"270 -114 OFFCURVE",
"205 -114 CURVE SMOOTH",
"156 -114 OFFCURVE",
"112 -98 OFFCURVE",
"68 -67 CURVE",
"86 -49 LINE",
"17 -225 LINE"
);
},
{
closed = 1;
nodes = (
"304 370 LINE",
"304 476 LINE",
"120 476 LINE",
"120 370 LINE"
);
}
);
};
layerId = "27302DAC-E04E-41A7-B2D2-BD8305143A0A";
paths = (
{
closed = 1;
nodes = (
"349 -222 OFFCURVE",
"422 -154 OFFCURVE",
"422 -37 CURVE SMOOTH",
"422 476 LINE",
"120 476 LINE",
"120 370 LINE",
"304 370 LINE",
"304 -19 LINE SMOOTH",
"304 -81 OFFCURVE",
"270 -114 OFFCURVE",
"205 -114 CURVE SMOOTH",
"159 -114 OFFCURVE",
"118 -100 OFFCURVE",
"77 -73 CURVE",
"39 -170 LINE",
"92 -205 OFFCURVE",
"155 -222 OFFCURVE",
"223 -222 CURVE SMOOTH"
);
}
);
width = 580;
},
{
anchors = (
{
name = bottom;
position = "{289, 0}";
},
{
name = top;
position = "{359, 470}";
}
);
background = {
anchors = (
{
name = bottom;
position = "{289, 0}";
},
{
name = top;
position = "{359, 470}";
}
);
paths = (
{
closed = 1;
nodes = (
"9 -149 LINE",
"71 -198 OFFCURVE",
"139 -222 OFFCURVE",
"219 -222 CURVE SMOOTH",
"338 -222 OFFCURVE",
"405 -158 OFFCURVE",
"405 -43 CURVE SMOOTH",
"405 470 LINE",
"333 470 LINE",
"333 -32 LINE SMOOTH",
"333 -110 OFFCURVE",
"290 -154 OFFCURVE",
"213 -154 CURVE SMOOTH",
"149 -154 OFFCURVE",
"85 -129 OFFCURVE",
"36 -85 CURVE",
"93 -66 LINE",
"31 -222 LINE"
);
},
{
closed = 1;
nodes = (
"333 404 LINE",
"333 470 LINE",
"134 470 LINE",
"134 404 LINE"
);
}
);
};
layerId = "B9B856C8-1FA2-46F4-A929-F36A99765E59";
paths = (
{
closed = 1;
nodes = (
"338 -222 OFFCURVE",
"405 -158 OFFCURVE",
"405 -43 CURVE SMOOTH",
"405 470 LINE",
"134 470 LINE",
"134 404 LINE",
"333 404 LINE",
"333 -32 LINE SMOOTH",
"333 -110 OFFCURVE",
"290 -154 OFFCURVE",
"213 -154 CURVE SMOOTH",
"165 -154 OFFCURVE",
"116 -140 OFFCURVE",
"74 -114 CURVE",
"49 -177 LINE",
"100 -207 OFFCURVE",
"156 -222 OFFCURVE",
"219 -222 CURVE SMOOTH"
);
}
);
width = 580;
}
);
unicode = 0237;
},
{
color = 0;
glyphname = k;
layers = (
{
anchors = (
{
name = bottom;
position = "{305, 0}";
},
{
name = top;
position = "{295, 476}";
}
);
background = {
anchors = (
{
name = bottom;
position = "{305, 0}";
},
{
name = top;
position = "{295, 476}";
}
);
paths = (
{
closed = 1;
nodes = (
"47 268 LINE",
"182 120 LINE",
"552 476 LINE",
"400 476 LINE",
"47 120 LINE"
);
},
{
closed = 1;
nodes = (
"199 0 LINE",
"199 710 LINE",
"81 710 LINE",
"81 0 LINE"
);
},
{
closed = 1;
nodes = (
"557 0 LINE",
"325 324 LINE",
"181 252 LINE",
"181 324 LINE",
"412 0 LINE"
);
}
);
};
backgroundImage = {
crop = "{{0, 0}, {82.38, 144.54}}";
imagePath = "scan-image/scan2017-1-k.png";
transform = "{11.32201, 0, 0, 14.11484, -47, -996}";
};
layerId = "27302DAC-E04E-41A7-B2D2-BD8305143A0A";
paths = (
{
closed = 1;
nodes = (
"199 0 LINE",
"199 136 LINE",
"268 203 LINE",
"412 0 LINE",
"557 0 LINE",
"353 285 LINE",
"552 476 LINE",
"400 476 LINE",
"199 274 LINE",
"199 710 LINE",
"81 710 LINE",
"81 0 LINE"
);
}
);
width = 580;
},
{
anchors = (
{
name = bottom;
position = "{308, 0}";
},
{
name = top;
position = "{298, 470}";
}
);
background = {
anchors = (
{
name = bottom;
position = "{308, 0}";
},
{
name = top;
position = "{298, 470}";
}
);
paths = (
{
closed = 1;
nodes = (
"68 221 LINE",
"163 140 LINE",
"535 470 LINE",
"437 470 LINE",
"68 140 LINE"
);
},
{
closed = 1;
nodes = (
"169 0 LINE",
"169 710 LINE",
"97 710 LINE",
"97 0 LINE"
);
},
{
closed = 1;
nodes = (
"540 0 LINE",
"312 310 LINE",
"223 228 LINE",
"223 309 LINE",
"450 0 LINE"
);
}
);
};
backgroundImage = {
crop = "{{0, 0}, {82.38, 144.54}}";
imagePath = "scan-image/scan2017-1-k.png";
transform = "{12.56743, 0, 0, 15.66747, -70, -1096}";
};
layerId = "B9B856C8-1FA2-46F4-A929-F36A99765E59";
paths = (
{
closed = 1;
nodes = (
"169 0 LINE",
"169 145 LINE",
"274 239 LINE",
"450 0 LINE",
"540 0 LINE",
"329 287 LINE",
"535 470 LINE",
"437 470 LINE",
"169 230 LINE",
"169 710 LINE",
"97 710 LINE",
"97 0 LINE"
);
}
);
width = 580;
}
);
unicode = 006B;
},
{
color = 0;
glyphname = kgreenlandic;
layers = (
{
anchors = (
{
name = bottom;
position = "{298, 0}";
},
{
name = top;
position = "{298, 470}";
}
);
background = {
anchors = (
{
name = bottom;
position = "{298, 0}";
},
{
name = top;
position = "{298, 470}";
}
);
paths = (
{
closed = 1;
nodes = (
"68 221 LINE",
"163 140 LINE",
"535 470 LINE",
"437 470 LINE",
"68 140 LINE"
);
},
{
closed = 1;
nodes = (
"169 0 LINE",
"169 470 LINE",
"97 470 LINE",
"97 0 LINE"
);
},
{
closed = 1;
nodes = (
"540 0 LINE",
"312 310 LINE",
"223 228 LINE",
"223 309 LINE",
"450 0 LINE"
);
}
);
};
layerId = "B9B856C8-1FA2-46F4-A929-F36A99765E59";
paths = (
{
closed = 1;
nodes = (
"169 0 LINE",
"169 145 LINE",
"274 239 LINE",
"450 0 LINE",
"540 0 LINE",
"329 287 LINE",
"535 470 LINE",
"437 470 LINE",
"169 230 LINE",
"169 470 LINE",
"97 470 LINE",
"97 0 LINE"
);
}
);
width = 580;
},
{
anchors = (
{
name = bottom;
position = "{294, 0}";
},
{
name = top;
position = "{294, 476}";
}
);
background = {
anchors = (
{
name = bottom;
position = "{294, 0}";
},
{
name = top;
position = "{294, 476}";
}
);
paths = (
{
closed = 1;
nodes = (
"47 268 LINE",
"182 120 LINE",
"552 476 LINE",
"400 476 LINE",
"47 120 LINE"
);
},
{
closed = 1;
nodes = (
"199 0 LINE",
"199 476 LINE",
"81 476 LINE",
"81 0 LINE"
);
},
{
closed = 1;
nodes = (
"557 0 LINE",
"325 324 LINE",
"181 252 LINE",
"181 324 LINE",
"412 0 LINE"
);
}
);
};
layerId = "27302DAC-E04E-41A7-B2D2-BD8305143A0A";
paths = (
{
closed = 1;
nodes = (
"199 0 LINE",
"199 136 LINE",
"268 203 LINE",
"412 0 LINE",
"557 0 LINE",
"353 285 LINE",
"552 476 LINE",
"400 476 LINE",
"199 274 LINE",
"199 476 LINE",
"81 476 LINE",
"81 0 LINE"
);
}
);
width = 580;
}
);
unicode = 0138;
},
{
color = 0;
glyphname = l;
layers = (
{
anchors = (
{
name = bottom;
position = "{300, 0}";
},
{
name = center;
position = "{266, 355}";
},
{
name = top;
position = "{266, 680}";
},
{
name = topright;
position = "{445, 710}";
}
);
background = {
anchors = (
{
name = bottom;
position = "{300, 0}";
},
{
name = center;
position = "{266, 355}";
},
{
name = top;
position = "{266, 680}";
},
{
name = topright;
position = "{445, 710}";
}
);
paths = (
{
closed = 1;
nodes = (
"472 -12 OFFCURVE",
"541 12 OFFCURVE",
"599 60 CURVE",
"559 19 LINE",
"518 158 LINE",
"543 141 LINE",
"499 110 OFFCURVE",
"459 96 OFFCURVE",
"412 96 CURVE SMOOTH",
"348 96 OFFCURVE",
"325 121 OFFCURVE",
"325 189 CURVE SMOOTH",
"325 710 LINE",
"207 710 LINE",
"207 171 LINE SMOOTH",
"207 50 OFFCURVE",
"270 -12 OFFCURVE",
"391 -12 CURVE SMOOTH"
);
},
{
closed = 1;
nodes = (
"207 603 LINE",
"207 710 LINE",
"23 710 LINE",
"23 603 LINE"
);
}
);
};
backgroundImage = {
crop = "{{0, 0}, {82.38, 144.54}}";
imagePath = "scan-image/scan2017-1-l.png";
transform = "{11.32201, 0, 0, 14.11484, -11, -1002}";
};
layerId = "27302DAC-E04E-41A7-B2D2-BD8305143A0A";
paths = (
{
closed = 1;
nodes = (
"453 -12 OFFCURVE",
"508 2 OFFCURVE",
"556 30 CURVE",
"526 130 LINE",
"489 107 OFFCURVE",
"453 96 OFFCURVE",
"412 96 CURVE SMOOTH",
"348 96 OFFCURVE",
"325 121 OFFCURVE",
"325 189 CURVE SMOOTH",
"325 710 LINE",
"23 710 LINE",
"23 603 LINE",
"207 603 LINE",
"207 171 LINE SMOOTH",
"207 50 OFFCURVE",
"270 -12 OFFCURVE",
"391 -12 CURVE SMOOTH"
);
}
);
width = 580;
},
{
anchors = (
{
name = bottom;
position = "{300, 0}";
},
{
name = center;
position = "{267, 355}";
},
{
name = top;
position = "{267, 680}";
},
{
name = topright;
position = "{413, 710}";
}
);
background = {
anchors = (
{
name = bottom;
position = "{300, 0}";
},
{
name = center;
position = "{267, 355}";
},
{
name = top;
position = "{267, 680}";
},
{
name = topright;
position = "{413, 710}";
}
);
paths = (
{
closed = 1;
nodes = (
"483 -12 OFFCURVE",
"551 13 OFFCURVE",
"613 66 CURVE",
"559 -12 LINE",
"512 143 LINE",
"586 125 LINE",
"537 81 OFFCURVE",
"473 56 OFFCURVE",
"411 56 CURVE SMOOTH",
"336 56 OFFCURVE",
"303 92 OFFCURVE",
"303 176 CURVE SMOOTH",
"303 710 LINE",
"231 710 LINE",
"231 165 LINE SMOOTH",
"231 45 OFFCURVE",
"288 -12 OFFCURVE",
"406 -12 CURVE SMOOTH"
);
},
{
closed = 1;
nodes = (
"231 644 LINE",
"231 710 LINE",
"31 710 LINE",
"31 644 LINE"
);
}
);
};
backgroundImage = {
crop = "{{0, 0}, {82.38, 144.54}}";
imagePath = "scan-image/scan2017-1-l.png";
transform = "{12.56743, 0, 0, 15.66747, -43, -1102}";
};
layerId = "B9B856C8-1FA2-46F4-A929-F36A99765E59";
paths = (
{
closed = 1;
nodes = (
"457 -12 OFFCURVE",
"505 -1 OFFCURVE",
"549 22 CURVE",
"529 86 LINE",
"492 66 OFFCURVE",
"451 56 OFFCURVE",
"411 56 CURVE SMOOTH",
"336 56 OFFCURVE",
"303 92 OFFCURVE",
"303 176 CURVE SMOOTH",
"303 710 LINE",
"31 710 LINE",
"31 644 LINE",
"231 644 LINE",
"231 165 LINE SMOOTH",
"231 45 OFFCURVE",
"288 -12 OFFCURVE",
"406 -12 CURVE SMOOTH"
);
}
);
width = 580;
}
);
unicode = 006C;
},
{
color = 1;
glyphname = lslash;
layers = (
{
anchors = (
{
name = _center;
position = "{277, 355}";
}
);
background = {
anchors = (
{
name = _center;
position = "{277, 355}";
}
);
components = (
{
name = l;
}
);
paths = (
{
closed = 1;
nodes = (
"496 472 LINE",
"456 531 LINE",
"42 240 LINE",
"82 181 LINE"
);
}
);
};
components = (
{
name = l;
}
);
layerId = "B9B856C8-1FA2-46F4-A929-F36A99765E59";
paths = (
{
closed = 1;
nodes = (
"496 472 LINE",
"456 531 LINE",
"42 240 LINE",
"82 181 LINE"
);
}
);
width = 580;
},
{
anchors = (
{
name = _center;
position = "{276, 355}";
}
);
background = {
anchors = (
{
name = _center;
position = "{276, 355}";
}
);
components = (
{
name = l;
}
);
paths = (
{
closed = 1;
nodes = (
"506 459 LINE",
"449 543 LINE",
"27 251 LINE",
"84 167 LINE"
);
}
);
};
components = (
{
name = l;
}
);
layerId = "27302DAC-E04E-41A7-B2D2-BD8305143A0A";
paths = (
{
closed = 1;
nodes = (
"506 459 LINE",
"449 543 LINE",
"27 251 LINE",
"84 167 LINE"
);
}
);
width = 580;
}
);
unicode = 0142;
},
{
color = 0;
glyphname = m;
layers = (
{
anchors = (
{
name = bottom;
position = "{290, 0}";
},
{
name = top;
position = "{290, 476}";
}
);
background = {
anchors = (
{
name = bottom;
position = "{290, 0}";
},
{
name = top;
position = "{290, 476}";
}
);
paths = (
{
closed = 1;
nodes = (
"540 0 LINE",
"540 367 LINE SMOOTH",
"540 442 OFFCURVE",
"498 488 OFFCURVE",
"430 488 CURVE SMOOTH",
"376 488 OFFCURVE",
"329 459 OFFCURVE",
"284 398 CURVE",
"324 349 LINE",
"347 376 OFFCURVE",
"371 389 OFFCURVE",
"399 389 CURVE SMOOTH",
"426 389 OFFCURVE",
"438 378 OFFCURVE",
"438 353 CURVE SMOOTH",
"438 0 LINE"
);
},
{
closed = 1;
nodes = (
"146 0 LINE",
"146 368 LINE",
"141 368 LINE",
"114 476 LINE",
"44 476 LINE",
"44 0 LINE"
);
},
{
closed = 1;
nodes = (
"343 0 LINE",
"343 367 LINE SMOOTH",
"343 442 OFFCURVE",
"301 488 OFFCURVE",
"233 488 CURVE SMOOTH",
"179 488 OFFCURVE",
"132 459 OFFCURVE",
"87 398 CURVE",
"127 349 LINE",
"150 376 OFFCURVE",
"174 389 OFFCURVE",
"202 389 CURVE SMOOTH",
"229 389 OFFCURVE",
"241 378 OFFCURVE",
"241 353 CURVE SMOOTH",
"241 0 LINE"
);
}
);
};
layerId = "27302DAC-E04E-41A7-B2D2-BD8305143A0A";
paths = (
{
closed = 1;
nodes = (
"146 0 LINE",
"146 368 LINE",
"163 382 OFFCURVE",
"181 389 OFFCURVE",
"202 389 CURVE SMOOTH",
"229 389 OFFCURVE",
"241 378 OFFCURVE",
"241 353 CURVE SMOOTH",
"241 0 LINE",
"343 0 LINE",
"343 367 LINE",
"360 382 OFFCURVE",
"378 389 OFFCURVE",
"399 389 CURVE SMOOTH",
"426 389 OFFCURVE",
"438 378 OFFCURVE",
"438 353 CURVE SMOOTH",
"438 0 LINE",
"540 0 LINE",
"540 367 LINE SMOOTH",
"540 442 OFFCURVE",
"498 488 OFFCURVE",
"430 488 CURVE SMOOTH",
"391 488 OFFCURVE",
"357 473 OFFCURVE",
"324 440 CURVE",
"305 471 OFFCURVE",
"274 488 OFFCURVE",
"233 488 CURVE SMOOTH",
"193 488 OFFCURVE",
"157 472 OFFCURVE",
"123 440 CURVE",
"114 476 LINE",
"44 476 LINE",
"44 0 LINE"
);
}
);
width = 580;
},
{
anchors = (
{
name = bottom;
position = "{290, 0}";
},
{
name = top;
position = "{290, 470}";
}
);
background = {
anchors = (
{
name = bottom;
position = "{290, 0}";
},
{
name = top;
position = "{290, 470}";
}
);
paths = (
{
closed = 1;
nodes = (
"529 0 LINE",
"529 371 LINE SMOOTH",
"529 440 OFFCURVE",
"490 482 OFFCURVE",
"427 482 CURVE SMOOTH",
"373 482 OFFCURVE",
"322 451 OFFCURVE",
"281 393 CURVE",
"311 363 LINE",
"339 399 OFFCURVE",
"374 418 OFFCURVE",
"410 418 CURVE SMOOTH",
"444 418 OFFCURVE",
"460 400 OFFCURVE",
"460 363 CURVE SMOOTH",
"460 0 LINE"
);
},
{
closed = 1;
nodes = (
"123 0 LINE",
"123 385 LINE",
"118 385 LINE",
"103 470 LINE",
"54 470 LINE",
"54 0 LINE"
);
},
{
closed = 1;
nodes = (
"326 0 LINE",
"326 371 LINE SMOOTH",
"326 440 OFFCURVE",
"287 482 OFFCURVE",
"224 482 CURVE SMOOTH",
"170 482 OFFCURVE",
"119 451 OFFCURVE",
"78 393 CURVE",
"108 363 LINE",
"136 399 OFFCURVE",
"171 418 OFFCURVE",
"207 418 CURVE SMOOTH",
"241 418 OFFCURVE",
"257 400 OFFCURVE",
"257 363 CURVE SMOOTH",
"257 0 LINE"
);
}
);
};
layerId = "B9B856C8-1FA2-46F4-A929-F36A99765E59";
paths = (
{
closed = 1;
nodes = (
"123 0 LINE",
"123 380 LINE",
"148 405 OFFCURVE",
"177 418 OFFCURVE",
"207 418 CURVE SMOOTH",
"241 418 OFFCURVE",
"257 400 OFFCURVE",
"257 363 CURVE SMOOTH",
"257 0 LINE",
"326 0 LINE",
"326 380 LINE",
"351 405 OFFCURVE",
"380 418 OFFCURVE",
"410 418 CURVE SMOOTH",
"444 418 OFFCURVE",
"460 400 OFFCURVE",
"460 363 CURVE SMOOTH",
"460 0 LINE",
"529 0 LINE",
"529 371 LINE SMOOTH",
"529 440 OFFCURVE",
"490 482 OFFCURVE",
"427 482 CURVE SMOOTH",
"386 482 OFFCURVE",
"347 464 OFFCURVE",
"313 431 CURVE",
"297 464 OFFCURVE",
"266 482 OFFCURVE",
"224 482 CURVE SMOOTH",
"183 482 OFFCURVE",
"144 464 OFFCURVE",
"110 431 CURVE",
"103 470 LINE",
"54 470 LINE",
"54 0 LINE"
);
}
);
width = 580;
}
);
unicode = 006D;
},
{
color = 0;
glyphname = n;
layers = (
{
anchors = (
{
name = bottom;
position = "{300, 0}";
},
{
name = bottomleft;
position = "{10, 0}";
},
{
name = ogonek;
position = "{81, 476}";
},
{
name = top;
position = "{300, 476}";
},
{
name = topleft;
position = "{70, 476}";
}
);
background = {
anchors = (
{
name = bottom;
position = "{300, 0}";
},
{
name = top;
position = "{300, 476}";
},
{
name = topleft;
position = "{70, 476}";
}
);
components = (
{
name = u;
transform = "{-1, 0, 0, -1, 580, 476}";
}
);
};
backgroundImage = {
crop = "{{0, 0}, {82.38, 144.54}}";
imagePath = "scan-image/scan2017-1-n.png";
transform = "{12.56743, 0, 0, -15.66747, -45.549, 1609.63}";
};
layerId = "27302DAC-E04E-41A7-B2D2-BD8305143A0A";
paths = (
{
closed = 1;
nodes = (
"199 0 LINE",
"199 353 LINE",
"233 371 OFFCURVE",
"265 380 OFFCURVE",
"302 380 CURVE SMOOTH",
"366 380 OFFCURVE",
"389 355 OFFCURVE",
"389 287 CURVE SMOOTH",
"389 0 LINE",
"507 0 LINE",
"507 305 LINE SMOOTH",
"507 422 OFFCURVE",
"445 488 OFFCURVE",
"333 488 CURVE SMOOTH",
"277 488 OFFCURVE",
"228 472 OFFCURVE",
"178 435 CURVE",
"168 476 LINE",
"81 476 LINE",
"81 0 LINE"
);
}
);
width = 580;
},
{
anchors = (
{
name = bottom;
position = "{300, 0}";
},
{
name = bottomleft;
position = "{10, 0}";
},
{
name = ogonek;
position = "{89, 470}";
},
{
name = top;
position = "{300, 470}";
},
{
name = topleft;
position = "{55, 470}";
}
);
background = {
anchors = (
{
name = bottom;
position = "{300, 0}";
},
{
name = top;
position = "{300, 470}";
},
{
name = topleft;
position = "{55, 470}";
}
);
components = (
{
name = u;
transform = "{-1, 0, 0, -1, 580, 470}";
}
);
};
backgroundImage = {
crop = "{{0, 0}, {82.38, 144.54}}";
imagePath = "scan-image/scan2017-1-n.png";
transform = "{12.56743, 0, 0, -15.66747, -45.549, 1658.63}";
};
layerId = "B9B856C8-1FA2-46F4-A929-F36A99765E59";
paths = (
{
closed = 1;
nodes = (
"161 0 LINE",
"161 361 LINE",
"207 395 OFFCURVE",
"263 414 OFFCURVE",
"317 414 CURVE SMOOTH",
"392 414 OFFCURVE",
"425 378 OFFCURVE",
"425 294 CURVE SMOOTH",
"425 0 LINE",
"497 0 LINE",
"497 305 LINE SMOOTH",
"497 423 OFFCURVE",
"439 482 OFFCURVE",
"329 482 CURVE SMOOTH",
"264 482 OFFCURVE",
"205 461 OFFCURVE",
"151 420 CURVE",
"143 470 LINE",
"89 470 LINE",
"89 0 LINE"
);
}
);
width = 580;
}
);
unicode = 006E;
},
{
color = 0;
glyphname = eng;
layers = (
{
anchors = (
{
name = bottom;
position = "{300, 0}";
},
{
name = bottomleft;
position = "{10, 0}";
},
{
name = top;
position = "{300, 470}";
},
{
name = topleft;
position = "{55, 470}";
}
);
background = {
components = (
{
name = n;
}
);
paths = (
{
closed = 1;
nodes = (
"208 -173 LINE",
"248 -206 OFFCURVE",
"288 -222 OFFCURVE",
"339 -222 CURVE SMOOTH",
"442 -222 OFFCURVE",
"497 -159 OFFCURVE",
"497 -39 CURVE SMOOTH",
"497 69 LINE",
"425 69 LINE",
"425 -24 LINE SMOOTH",
"425 -117 OFFCURVE",
"400 -153 OFFCURVE",
"338 -153 CURVE SMOOTH",
"297 -153 OFFCURVE",
"265 -138 OFFCURVE",
"233 -107 CURVE",
"290 -71 LINE",
"223 -246 LINE"
);
}
);
};
layerId = "B9B856C8-1FA2-46F4-A929-F36A99765E59";
paths = (
{
closed = 1;
nodes = (
"442 -222 OFFCURVE",
"497 -159 OFFCURVE",
"497 -39 CURVE SMOOTH",
"497 305 LINE SMOOTH",
"497 423 OFFCURVE",
"439 482 OFFCURVE",
"329 482 CURVE SMOOTH",
"264 482 OFFCURVE",
"205 461 OFFCURVE",
"151 420 CURVE",
"143 470 LINE",
"89 470 LINE",
"89 0 LINE",
"161 0 LINE",
"161 361 LINE",
"207 395 OFFCURVE",
"263 414 OFFCURVE",
"317 414 CURVE SMOOTH",
"392 414 OFFCURVE",
"425 378 OFFCURVE",
"425 294 CURVE SMOOTH",
"425 -24 LINE SMOOTH",
"425 -117 OFFCURVE",
"400 -153 OFFCURVE",
"338 -153 CURVE SMOOTH",
"311 -153 OFFCURVE",
"288 -147 OFFCURVE",
"266 -133 CURVE",
"242 -197 LINE",
"271 -214 OFFCURVE",
"302 -222 OFFCURVE",
"339 -222 CURVE SMOOTH"
);
}
);
width = 580;
},
{
anchors = (
{
name = bottom;
position = "{300, 0}";
},
{
name = bottomleft;
position = "{10, 0}";
},
{
name = top;
position = "{300, 476}";
},
{
name = topleft;
position = "{70, 476}";
}
);
background = {
components = (
{
name = n;
}
);
paths = (
{
closed = 1;
nodes = (
"180 -173 LINE",
"222 -206 OFFCURVE",
"265 -222 OFFCURVE",
"319 -222 CURVE SMOOTH",
"440 -222 OFFCURVE",
"507 -147 OFFCURVE",
"507 -13 CURVE SMOOTH",
"507 151 LINE",
"389 151 LINE",
"389 -9 LINE SMOOTH",
"389 -81 OFFCURVE",
"366 -114 OFFCURVE",
"310 -114 CURVE SMOOTH",
"279 -114 OFFCURVE",
"251 -102 OFFCURVE",
"224 -80 CURVE",
"273 -40 LINE",
"206 -225 LINE"
);
}
);
};
layerId = "27302DAC-E04E-41A7-B2D2-BD8305143A0A";
paths = (
{
closed = 1;
nodes = (
"440 -222 OFFCURVE",
"507 -147 OFFCURVE",
"507 -13 CURVE SMOOTH",
"507 305 LINE SMOOTH",
"507 422 OFFCURVE",
"445 488 OFFCURVE",
"333 488 CURVE SMOOTH",
"277 488 OFFCURVE",
"228 472 OFFCURVE",
"178 435 CURVE",
"168 476 LINE",
"81 476 LINE",
"81 0 LINE",
"199 0 LINE",
"199 353 LINE",
"233 371 OFFCURVE",
"265 380 OFFCURVE",
"302 380 CURVE SMOOTH",
"366 380 OFFCURVE",
"389 355 OFFCURVE",
"389 287 CURVE SMOOTH",
"389 -9 LINE SMOOTH",
"389 -81 OFFCURVE",
"366 -114 OFFCURVE",
"310 -114 CURVE SMOOTH",
"289 -114 OFFCURVE",
"270 -109 OFFCURVE",
"252 -99 CURVE",
"216 -197 LINE",
"247 -214 OFFCURVE",
"280 -222 OFFCURVE",
"319 -222 CURVE SMOOTH"
);
}
);
width = 580;
}
);
unicode = 014B;
},
{
color = 0;
glyphname = o;
layers = (
{
anchors = (
{
name = bottom;
position = "{290, 0}";
},
{
name = center;
position = "{290, 238}";
},
{
name = top;
position = "{290, 476}";
},
{
name = topright;
position = "{570, 476}";
}
);
background = {
anchors = (
{
name = bottom;
position = "{290, 0}";
},
{
name = center;
position = "{290, 238}";
},
{
name = ogonek;
position = "{530, 10}";
},
{
name = top;
position = "{290, 476}";
},
{
name = topright;
position = "{570, 476}";
}
);
paths = (
{
closed = 1;
nodes = (
"434 -12 OFFCURVE",
"534 89 OFFCURVE",
"534 238 CURVE SMOOTH",
"534 387 OFFCURVE",
"434 488 OFFCURVE",
"290 488 CURVE SMOOTH",
"146 488 OFFCURVE",
"46 387 OFFCURVE",
"46 238 CURVE SMOOTH",
"46 89 OFFCURVE",
"146 -12 OFFCURVE",
"290 -12 CURVE SMOOTH"
);
},
{
closed = 1;
nodes = (
"213 96 OFFCURVE",
"166 149 OFFCURVE",
"166 238 CURVE SMOOTH",
"166 327 OFFCURVE",
"213 380 OFFCURVE",
"290 380 CURVE SMOOTH",
"367 380 OFFCURVE",
"414 327 OFFCURVE",
"414 238 CURVE SMOOTH",
"414 149 OFFCURVE",
"367 96 OFFCURVE",
"290 96 CURVE SMOOTH"
);
}
);
};
backgroundImage = {
crop = "{{0, 0}, {82.38, 144.54}}";
imagePath = "scan-image/scan2017-1-o.png";
transform = "{11.32201, 0, 0, 14.11484, -3, -1008}";
};
layerId = "27302DAC-E04E-41A7-B2D2-BD8305143A0A";
paths = (
{
closed = 1;
nodes = (
"434 -12 OFFCURVE",
"534 89 OFFCURVE",
"534 238 CURVE SMOOTH",
"534 387 OFFCURVE",
"434 488 OFFCURVE",
"290 488 CURVE SMOOTH",
"146 488 OFFCURVE",
"46 387 OFFCURVE",
"46 238 CURVE SMOOTH",
"46 89 OFFCURVE",
"146 -12 OFFCURVE",
"290 -12 CURVE SMOOTH"
);
},
{
closed = 1;
nodes = (
"213 96 OFFCURVE",
"166 149 OFFCURVE",
"166 238 CURVE SMOOTH",
"166 327 OFFCURVE",
"213 380 OFFCURVE",
"290 380 CURVE SMOOTH",
"367 380 OFFCURVE",
"414 327 OFFCURVE",
"414 238 CURVE SMOOTH",
"414 149 OFFCURVE",
"367 96 OFFCURVE",
"290 96 CURVE SMOOTH"
);
}
);
width = 580;
},
{
anchors = (
{
name = bottom;
position = "{290, 0}";
},
{
name = center;
position = "{290, 235}";
},
{
name = top;
position = "{290, 470}";
},
{
name = topright;
position = "{570, 470}";
}
);
background = {
anchors = (
{
name = bottom;
position = "{290, 0}";
},
{
name = center;
position = "{290, 235}";
},
{
name = ogonek;
position = "{530, 10}";
},
{
name = top;
position = "{290, 470}";
},
{
name = topright;
position = "{570, 470}";
}
);
paths = (
{
closed = 1;
nodes = (
"433 -12 OFFCURVE",
"528 87 OFFCURVE",
"528 235 CURVE SMOOTH",
"528 383 OFFCURVE",
"433 482 OFFCURVE",
"290 482 CURVE SMOOTH",
"147 482 OFFCURVE",
"52 383 OFFCURVE",
"52 235 CURVE SMOOTH",
"52 87 OFFCURVE",
"147 -12 OFFCURVE",
"290 -12 CURVE SMOOTH"
);
},
{
closed = 1;
nodes = (
"188 56 OFFCURVE",
"126 124 OFFCURVE",
"126 235 CURVE SMOOTH",
"126 346 OFFCURVE",
"188 414 OFFCURVE",
"290 414 CURVE SMOOTH",
"392 414 OFFCURVE",
"454 346 OFFCURVE",
"454 235 CURVE SMOOTH",
"454 124 OFFCURVE",
"392 56 OFFCURVE",
"290 56 CURVE SMOOTH"
);
}
);
};
backgroundImage = {
crop = "{{0, 0}, {82.38, 144.54}}";
imagePath = "scan-image/scan2017-1-o.png";
transform = "{12.56743, 0, 0, 15.66747, -35, -1096}";
};
layerId = "B9B856C8-1FA2-46F4-A929-F36A99765E59";
paths = (
{
closed = 1;
nodes = (
"433 -12 OFFCURVE",
"528 87 OFFCURVE",
"528 235 CURVE SMOOTH",
"528 383 OFFCURVE",
"433 482 OFFCURVE",
"290 482 CURVE SMOOTH",
"147 482 OFFCURVE",
"52 383 OFFCURVE",
"52 235 CURVE SMOOTH",
"52 87 OFFCURVE",
"147 -12 OFFCURVE",
"290 -12 CURVE SMOOTH"
);
},
{
closed = 1;
nodes = (
"188 56 OFFCURVE",
"126 124 OFFCURVE",
"126 235 CURVE SMOOTH",
"126 346 OFFCURVE",
"188 414 OFFCURVE",
"290 414 CURVE SMOOTH",
"392 414 OFFCURVE",
"454 346 OFFCURVE",
"454 235 CURVE SMOOTH",
"454 124 OFFCURVE",
"392 56 OFFCURVE",
"290 56 CURVE SMOOTH"
);
}
);
width = 580;
}
);
unicode = 006F;
},
{
color = 1;
glyphname = oslash;
layers = (
{
anchors = (
{
name = bottom;
position = "{290, 0}";
},
{
name = center;
position = "{290, 235}";
},
{
name = top;
position = "{290, 470}";
},
{
name = topright;
position = "{570, 470}";
}
);
background = {
anchors = (
{
name = bottom;
position = "{290, 0}";
},
{
name = center;
position = "{290, 235}";
},
{
name = ogonek;
position = "{530, 10}";
},
{
name = top;
position = "{290, 470}";
},
{
name = topright;
position = "{570, 470}";
}
);
components = (
{
name = slashshortcomb;
}
);
paths = (
{
closed = 1;
nodes = (
"433 -12 OFFCURVE",
"528 87 OFFCURVE",
"528 235 CURVE SMOOTH",
"528 383 OFFCURVE",
"433 482 OFFCURVE",
"290 482 CURVE SMOOTH",
"147 482 OFFCURVE",
"52 383 OFFCURVE",
"52 235 CURVE SMOOTH",
"52 87 OFFCURVE",
"147 -12 OFFCURVE",
"290 -12 CURVE SMOOTH"
);
},
{
closed = 1;
nodes = (
"188 56 OFFCURVE",
"126 124 OFFCURVE",
"126 235 CURVE SMOOTH",
"126 346 OFFCURVE",
"188 414 OFFCURVE",
"290 414 CURVE SMOOTH",
"392 414 OFFCURVE",
"454 346 OFFCURVE",
"454 235 CURVE SMOOTH",
"454 124 OFFCURVE",
"392 56 OFFCURVE",
"290 56 CURVE SMOOTH"
);
}
);
};
components = (
{
name = slashshortcomb;
}
);
layerId = "B9B856C8-1FA2-46F4-A929-F36A99765E59";
paths = (
{
closed = 1;
nodes = (
"433 -12 OFFCURVE",
"528 87 OFFCURVE",
"528 235 CURVE SMOOTH",
"528 383 OFFCURVE",
"433 482 OFFCURVE",
"290 482 CURVE SMOOTH",
"147 482 OFFCURVE",
"52 383 OFFCURVE",
"52 235 CURVE SMOOTH",
"52 87 OFFCURVE",
"147 -12 OFFCURVE",
"290 -12 CURVE SMOOTH"
);
},
{
closed = 1;
nodes = (
"188 56 OFFCURVE",
"126 124 OFFCURVE",
"126 235 CURVE SMOOTH",
"126 346 OFFCURVE",
"188 414 OFFCURVE",
"290 414 CURVE SMOOTH",
"392 414 OFFCURVE",
"454 346 OFFCURVE",
"454 235 CURVE SMOOTH",
"454 124 OFFCURVE",
"392 56 OFFCURVE",
"290 56 CURVE SMOOTH"
);
}
);
width = 580;
},
{
anchors = (
{
name = bottom;
position = "{290, 0}";
},
{
name = center;
position = "{290, 238}";
},
{
name = top;
position = "{290, 476}";
},
{
name = topright;
position = "{570, 476}";
}
);
background = {
anchors = (
{
name = bottom;
position = "{290, 0}";
},
{
name = center;
position = "{290, 238}";
},
{
name = ogonek;
position = "{530, 10}";
},
{
name = top;
position = "{290, 476}";
},
{
name = topright;
position = "{570, 476}";
}
);
components = (
{
name = slashshortcomb;
}
);
paths = (
{
closed = 1;
nodes = (
"434 -12 OFFCURVE",
"534 89 OFFCURVE",
"534 238 CURVE SMOOTH",
"534 387 OFFCURVE",
"434 488 OFFCURVE",
"290 488 CURVE SMOOTH",
"146 488 OFFCURVE",
"46 387 OFFCURVE",
"46 238 CURVE SMOOTH",
"46 89 OFFCURVE",
"146 -12 OFFCURVE",
"290 -12 CURVE SMOOTH"
);
},
{
closed = 1;
nodes = (
"208 91 OFFCURVE",
"161 144 OFFCURVE",
"161 238 CURVE SMOOTH",
"161 332 OFFCURVE",
"208 385 OFFCURVE",
"290 385 CURVE SMOOTH",
"372 385 OFFCURVE",
"419 332 OFFCURVE",
"419 238 CURVE SMOOTH",
"419 144 OFFCURVE",
"372 91 OFFCURVE",
"290 91 CURVE SMOOTH"
);
}
);
};
components = (
{
name = slashshortcomb;
}
);
layerId = "27302DAC-E04E-41A7-B2D2-BD8305143A0A";
paths = (
{
closed = 1;
nodes = (
"434 -12 OFFCURVE",
"534 89 OFFCURVE",
"534 238 CURVE SMOOTH",
"534 387 OFFCURVE",
"434 488 OFFCURVE",
"290 488 CURVE SMOOTH",
"146 488 OFFCURVE",
"46 387 OFFCURVE",
"46 238 CURVE SMOOTH",
"46 89 OFFCURVE",
"146 -12 OFFCURVE",
"290 -12 CURVE SMOOTH"
);
},
{
closed = 1;
nodes = (
"208 91 OFFCURVE",
"161 144 OFFCURVE",
"161 238 CURVE SMOOTH",
"161 332 OFFCURVE",
"208 385 OFFCURVE",
"290 385 CURVE SMOOTH",
"372 385 OFFCURVE",
"419 332 OFFCURVE",
"419 238 CURVE SMOOTH",
"419 144 OFFCURVE",
"372 91 OFFCURVE",
"290 91 CURVE SMOOTH"
);
}
);
width = 580;
}
);
unicode = 00F8;
},
{
color = 0;
glyphname = oe;
layers = (
{
anchors = (
{
name = bottom;
position = "{291, 0}";
},
{
name = top;
position = "{291, 476}";
}
);
background = {
anchors = (
{
name = bottom;
position = "{291, 0}";
},
{
name = top;
position = "{291, 476}";
}
);
paths = (
{
closed = 1;
nodes = (
"495 -12 OFFCURVE",
"546 9 OFFCURVE",
"594 50 CURVE",
"588 17 LINE",
"521 152 LINE",
"550 124 LINE",
"512 93 OFFCURVE",
"475 76 OFFCURVE",
"435 76 CURVE SMOOTH",
"364 76 OFFCURVE",
"339 119 OFFCURVE",
"339 244 CURVE SMOOTH",
"339 354 OFFCURVE",
"358 399 OFFCURVE",
"408 399 CURVE SMOOTH",
"453 399 OFFCURVE",
"474 359 OFFCURVE",
"474 254 CURVE SMOOTH",
"474 204 LINE",
"568 204 LINE",
"571 219 OFFCURVE",
"571 238 OFFCURVE",
"571 253 CURVE SMOOTH",
"571 405 OFFCURVE",
"517 488 OFFCURVE",
"411 488 CURVE SMOOTH",
"307 488 OFFCURVE",
"257 409 OFFCURVE",
"257 241 CURVE SMOOTH",
"257 67 OFFCURVE",
"311 -12 OFFCURVE",
"434 -12 CURVE SMOOTH"
);
},
{
closed = 1;
nodes = (
"291 64 LINE",
"291 67 LINE",
"288 67 LINE",
"288 64 LINE"
);
},
{
closed = 1;
nodes = (
"270 -12 OFFCURVE",
"316 67 OFFCURVE",
"316 238 CURVE SMOOTH",
"316 409 OFFCURVE",
"270 488 OFFCURVE",
"167 488 CURVE SMOOTH",
"61 488 OFFCURVE",
"10 405 OFFCURVE",
"10 238 CURVE SMOOTH",
"10 71 OFFCURVE",
"61 -12 OFFCURVE",
"167 -12 CURVE SMOOTH"
);
},
{
closed = 1;
nodes = (
"130 76 OFFCURVE",
"115 122 OFFCURVE",
"115 238 CURVE SMOOTH",
"115 357 OFFCURVE",
"130 399 OFFCURVE",
"175 399 CURVE SMOOTH",
"220 399 OFFCURVE",
"235 357 OFFCURVE",
"235 238 CURVE SMOOTH",
"235 122 OFFCURVE",
"220 76 OFFCURVE",
"175 76 CURVE SMOOTH"
);
},
{
closed = 1;
nodes = (
"556 204 LINE",
"556 282 LINE",
"300 282 LINE",
"300 204 LINE"
);
},
{
closed = 1;
nodes = (
"289 413 LINE",
"289 416 LINE",
"286 416 LINE",
"286 413 LINE"
);
}
);
};
layerId = "27302DAC-E04E-41A7-B2D2-BD8305143A0A";
paths = (
{
closed = 1;
nodes = (
"224 -12 OFFCURVE",
"264 13 OFFCURVE",
"288 64 CURVE",
"290 64 LINE",
"319 12 OFFCURVE",
"366 -12 OFFCURVE",
"434 -12 CURVE SMOOTH",
"488 -12 OFFCURVE",
"535 5 OFFCURVE",
"578 37 CURVE",
"539 115 LINE",
"505 90 OFFCURVE",
"471 76 OFFCURVE",
"435 76 CURVE SMOOTH",
"372 76 OFFCURVE",
"345 110 OFFCURVE",
"340 203 CURVE",
"568 203 LINE",
"571 219 OFFCURVE",
"571 238 OFFCURVE",
"571 253 CURVE SMOOTH",
"571 405 OFFCURVE",
"517 488 OFFCURVE",
"411 488 CURVE SMOOTH",
"354 488 OFFCURVE",
"314 465 OFFCURVE",
"288 416 CURVE",
"286 416 LINE",
"262 465 OFFCURVE",
"223 488 OFFCURVE",
"167 488 CURVE SMOOTH",
"61 488 OFFCURVE",
"10 405 OFFCURVE",
"10 238 CURVE SMOOTH",
"10 71 OFFCURVE",
"61 -12 OFFCURVE",
"167 -12 CURVE SMOOTH"
);
},
{
closed = 1;
nodes = (
"130 76 OFFCURVE",
"115 122 OFFCURVE",
"115 238 CURVE SMOOTH",
"115 357 OFFCURVE",
"130 399 OFFCURVE",
"175 399 CURVE SMOOTH",
"220 399 OFFCURVE",
"235 357 OFFCURVE",
"235 238 CURVE SMOOTH",
"235 122 OFFCURVE",
"220 76 OFFCURVE",
"175 76 CURVE SMOOTH"
);
},
{
closed = 1;
nodes = (
"344 364 OFFCURVE",
"364 399 OFFCURVE",
"408 399 CURVE SMOOTH",
"449 399 OFFCURVE",
"470 366 OFFCURVE",
"473 282 CURVE",
"340 282 LINE"
);
}
);
width = 580;
},
{
anchors = (
{
name = bottom;
position = "{290, 0}";
},
{
name = top;
position = "{290, 470}";
}
);
background = {
anchors = (
{
name = bottom;
position = "{290, 0}";
},
{
name = top;
position = "{290, 470}";
}
);
paths = (
{
closed = 1;
nodes = (
"508 -12 OFFCURVE",
"559 13 OFFCURVE",
"599 51 CURVE",
"592 -9 LINE",
"522 132 LINE",
"571 110 LINE",
"533 75 OFFCURVE",
"491 54 OFFCURVE",
"440 54 CURVE SMOOTH",
"357 54 OFFCURVE",
"323 109 OFFCURVE",
"323 236 CURVE SMOOTH",
"323 355 OFFCURVE",
"353 416 OFFCURVE",
"414 416 CURVE SMOOTH",
"472 416 OFFCURVE",
"503 362 OFFCURVE",
"503 252 CURVE SMOOTH",
"503 211 LINE",
"570 211 LINE",
"572 232 OFFCURVE",
"572 236 OFFCURVE",
"572 251 CURVE SMOOTH",
"572 400 OFFCURVE",
"518 482 OFFCURVE",
"413 482 CURVE SMOOTH",
"314 482 OFFCURVE",
"260 402 OFFCURVE",
"260 235 CURVE SMOOTH",
"260 64 OFFCURVE",
"316 -12 OFFCURVE",
"435 -12 CURVE SMOOTH"
);
},
{
closed = 1;
nodes = (
"291 68 LINE",
"291 72 LINE",
"287 72 LINE",
"287 68 LINE"
);
},
{
closed = 1;
nodes = (
"265 -12 OFFCURVE",
"315 67 OFFCURVE",
"315 235 CURVE SMOOTH",
"315 403 OFFCURVE",
"265 482 OFFCURVE",
"167 482 CURVE SMOOTH",
"63 482 OFFCURVE",
"10 399 OFFCURVE",
"10 235 CURVE SMOOTH",
"10 71 OFFCURVE",
"63 -12 OFFCURVE",
"167 -12 CURVE SMOOTH"
);
},
{
closed = 1;
nodes = (
"107 54 OFFCURVE",
"81 108 OFFCURVE",
"81 235 CURVE SMOOTH",
"81 362 OFFCURVE",
"107 416 OFFCURVE",
"167 416 CURVE SMOOTH",
"227 416 OFFCURVE",
"253 362 OFFCURVE",
"253 235 CURVE SMOOTH",
"253 108 OFFCURVE",
"227 54 OFFCURVE",
"167 54 CURVE SMOOTH"
);
},
{
closed = 1;
nodes = (
"565 211 LINE",
"565 273 LINE",
"302 273 LINE",
"302 211 LINE"
);
},
{
closed = 1;
nodes = (
"290 399 LINE",
"290 403 LINE",
"287 403 LINE",
"287 399 LINE"
);
}
);
};
layerId = "B9B856C8-1FA2-46F4-A929-F36A99765E59";
paths = (
{
closed = 1;
nodes = (
"223 -12 OFFCURVE",
"264 14 OFFCURVE",
"288 68 CURVE",
"290 68 LINE",
"318 13 OFFCURVE",
"366 -12 OFFCURVE",
"435 -12 CURVE SMOOTH",
"493 -12 OFFCURVE",
"537 4 OFFCURVE",
"573 29 CURVE",
"544 88 LINE",
"513 66 OFFCURVE",
"479 54 OFFCURVE",
"440 54 CURVE SMOOTH",
"363 54 OFFCURVE",
"328 102 OFFCURVE",
"323 211 CURVE",
"570 211 LINE",
"572 232 OFFCURVE",
"572 236 OFFCURVE",
"572 251 CURVE SMOOTH",
"572 400 OFFCURVE",
"518 482 OFFCURVE",
"413 482 CURVE SMOOTH",
"357 482 OFFCURVE",
"315 456 OFFCURVE",
"289 403 CURVE",
"287 403 LINE",
"263 456 OFFCURVE",
"223 482 OFFCURVE",
"167 482 CURVE SMOOTH",
"63 482 OFFCURVE",
"10 399 OFFCURVE",
"10 235 CURVE SMOOTH",
"10 71 OFFCURVE",
"63 -12 OFFCURVE",
"167 -12 CURVE SMOOTH"
);
},
{
closed = 1;
nodes = (
"107 54 OFFCURVE",
"81 108 OFFCURVE",
"81 235 CURVE SMOOTH",
"81 362 OFFCURVE",
"107 416 OFFCURVE",
"167 416 CURVE SMOOTH",
"227 416 OFFCURVE",
"253 362 OFFCURVE",
"253 235 CURVE SMOOTH",
"253 108 OFFCURVE",
"227 54 OFFCURVE",
"167 54 CURVE SMOOTH"
);
},
{
closed = 1;
nodes = (
"330 368 OFFCURVE",
"360 416 OFFCURVE",
"414 416 CURVE SMOOTH",
"468 416 OFFCURVE",
"499 369 OFFCURVE",
"503 273 CURVE",
"324 273 LINE"
);
}
);
width = 580;
}
);
unicode = 0153;
},
{
color = 0;
glyphname = p;
layers = (
{
anchors = (
{
name = bottom;
position = "{279, 0}";
},
{
name = center;
position = "{290, 238}";
},
{
name = top;
position = "{279, 476}";
}
);
background = {
anchors = (
{
name = bottom;
position = "{279, 0}";
},
{
name = top;
position = "{279, 476}";
}
);
components = (
{
name = d;
transform = "{-1, 0, 0, -1, 580, 476}";
}
);
paths = (
{
closed = 1;
nodes = (
"76 -210 LINE",
"194 -210 LINE",
"194 -234 LINE",
"76 -234 LINE"
);
}
);
};
layerId = "27302DAC-E04E-41A7-B2D2-BD8305143A0A";
paths = (
{
closed = 1;
nodes = (
"194 -210 LINE",
"194 27 LINE",
"237 0 OFFCURVE",
"280 -12 OFFCURVE",
"324 -12 CURVE SMOOTH",
"449 -12 OFFCURVE",
"529 85 OFFCURVE",
"529 238 CURVE SMOOTH",
"529 391 OFFCURVE",
"449 488 OFFCURVE",
"324 488 CURVE SMOOTH",
"272 488 OFFCURVE",
"223 471 OFFCURVE",
"173 436 CURVE",
"163 476 LINE",
"76 476 LINE",
"76 -210 LINE"
);
},
{
closed = 1;
nodes = (
"261 96 OFFCURVE",
"227 105 OFFCURVE",
"194 123 CURVE",
"194 353 LINE",
"227 371 OFFCURVE",
"261 380 OFFCURVE",
"294 380 CURVE SMOOTH",
"371 380 OFFCURVE",
"410 333 OFFCURVE",
"410 238 CURVE SMOOTH",
"410 143 OFFCURVE",
"371 96 OFFCURVE",
"294 96 CURVE SMOOTH"
);
}
);
width = 580;
},
{
anchors = (
{
name = bottom;
position = "{280, 0}";
},
{
name = center;
position = "{290, 235}";
},
{
name = top;
position = "{280, 470}";
}
);
background = {
anchors = (
{
name = bottom;
position = "{280, 0}";
},
{
name = top;
position = "{280, 470}";
}
);
components = (
{
name = d;
transform = "{-1, 0, 0, -1, 580, 470}";
}
);
paths = (
{
closed = 1;
nodes = (
"81 -210 LINE",
"153 -210 LINE",
"153 -240 LINE",
"81 -240 LINE"
);
}
);
};
layerId = "B9B856C8-1FA2-46F4-A929-F36A99765E59";
paths = (
{
closed = 1;
nodes = (
"153 -210 LINE",
"153 43 LINE",
"204 7 OFFCURVE",
"260 -12 OFFCURVE",
"316 -12 CURVE SMOOTH",
"442 -12 OFFCURVE",
"522 84 OFFCURVE",
"522 235 CURVE SMOOTH",
"522 386 OFFCURVE",
"442 482 OFFCURVE",
"316 482 CURVE SMOOTH",
"256 482 OFFCURVE",
"197 461 OFFCURVE",
"143 420 CURVE",
"135 470 LINE",
"81 470 LINE",
"81 -210 LINE"
);
},
{
closed = 1;
nodes = (
"254 56 OFFCURVE",
"197 76 OFFCURVE",
"153 109 CURVE",
"153 361 LINE",
"197 394 OFFCURVE",
"254 414 OFFCURVE",
"304 414 CURVE SMOOTH",
"394 414 OFFCURVE",
"448 346 OFFCURVE",
"448 235 CURVE SMOOTH",
"448 124 OFFCURVE",
"394 56 OFFCURVE",
"304 56 CURVE SMOOTH"
);
}
);
width = 580;
}
);
unicode = 0070;
},
{
color = 0;
glyphname = thorn;
layers = (
{
anchors = (
{
name = bottom;
position = "{290, 0}";
},
{
name = center;
position = "{290, 235}";
},
{
name = top;
position = "{290, 470}";
}
);
background = {
components = (
{
name = d;
transform = "{-1, 0, 0, -1, 580, 470}";
}
);
paths = (
{
closed = 1;
nodes = (
"81 -210 LINE",
"153 -210 LINE",
"153 -240 LINE",
"81 -240 LINE"
);
},
{
closed = 1;
nodes = (
"153 326 LINE",
"153 710 LINE",
"81 710 LINE",
"81 326 LINE"
);
}
);
};
layerId = "B9B856C8-1FA2-46F4-A929-F36A99765E59";
paths = (
{
closed = 1;
nodes = (
"153 -210 LINE",
"153 43 LINE",
"204 7 OFFCURVE",
"260 -12 OFFCURVE",
"316 -12 CURVE SMOOTH",
"442 -12 OFFCURVE",
"522 84 OFFCURVE",
"522 235 CURVE SMOOTH",
"522 386 OFFCURVE",
"442 482 OFFCURVE",
"316 482 CURVE SMOOTH",
"260 482 OFFCURVE",
"204 463 OFFCURVE",
"153 427 CURVE",
"153 710 LINE",
"81 710 LINE",
"81 -210 LINE"
);
},
{
closed = 1;
nodes = (
"254 56 OFFCURVE",
"197 76 OFFCURVE",
"153 109 CURVE",
"153 361 LINE",
"197 394 OFFCURVE",
"254 414 OFFCURVE",
"304 414 CURVE SMOOTH",
"394 414 OFFCURVE",
"448 346 OFFCURVE",
"448 235 CURVE SMOOTH",
"448 124 OFFCURVE",
"394 56 OFFCURVE",
"304 56 CURVE SMOOTH"
);
}
);
width = 580;
},
{
anchors = (
{
name = bottom;
position = "{290, 0}";
},
{
name = center;
position = "{290, 238}";
},
{
name = top;
position = "{290, 476}";
}
);
background = {
components = (
{
name = d;
transform = "{-1, 0, 0, -1, 580, 476}";
}
);
paths = (
{
closed = 1;
nodes = (
"76 -210 LINE",
"194 -210 LINE",
"194 -234 LINE",
"76 -234 LINE"
);
},
{
closed = 1;
nodes = (
"194 326 LINE",
"194 710 LINE",
"76 710 LINE",
"76 326 LINE"
);
}
);
};
layerId = "27302DAC-E04E-41A7-B2D2-BD8305143A0A";
paths = (
{
closed = 1;
nodes = (
"194 -210 LINE",
"194 27 LINE",
"237 0 OFFCURVE",
"280 -12 OFFCURVE",
"324 -12 CURVE SMOOTH",
"449 -12 OFFCURVE",
"529 85 OFFCURVE",
"529 238 CURVE SMOOTH",
"529 391 OFFCURVE",
"449 488 OFFCURVE",
"324 488 CURVE SMOOTH",
"279 488 OFFCURVE",
"237 475 OFFCURVE",
"194 450 CURVE",
"194 710 LINE",
"76 710 LINE",
"76 -210 LINE"
);
},
{
closed = 1;
nodes = (
"261 96 OFFCURVE",
"227 105 OFFCURVE",
"194 123 CURVE",
"194 353 LINE",
"227 371 OFFCURVE",
"261 380 OFFCURVE",
"294 380 CURVE SMOOTH",
"371 380 OFFCURVE",
"410 333 OFFCURVE",
"410 238 CURVE SMOOTH",
"410 143 OFFCURVE",
"371 96 OFFCURVE",
"294 96 CURVE SMOOTH"
);
}
);
width = 580;
}
);
unicode = 00FE;
},
{
color = 0;
glyphname = q;
layers = (
{
anchors = (
{
name = bottom;
position = "{300, 0}";
},
{
name = center;
position = "{290, 238}";
},
{
name = top;
position = "{300, 476}";
}
);
background = {
anchors = (
{
name = bottom;
position = "{300, 0}";
},
{
name = top;
position = "{300, 476}";
}
);
components = (
{
name = d;
transform = "{1, 0, 0, -1, 0, 476}";
}
);
paths = (
{
closed = 1;
nodes = (
"386 -210 LINE",
"504 -210 LINE",
"504 -234 LINE",
"386 -234 LINE"
);
}
);
};
layerId = "27302DAC-E04E-41A7-B2D2-BD8305143A0A";
paths = (
{
closed = 1;
nodes = (
"504 -210 LINE",
"504 476 LINE",
"417 476 LINE",
"407 436 LINE",
"357 471 OFFCURVE",
"308 488 OFFCURVE",
"256 488 CURVE SMOOTH",
"131 488 OFFCURVE",
"51 391 OFFCURVE",
"51 238 CURVE SMOOTH",
"51 85 OFFCURVE",
"131 -12 OFFCURVE",
"256 -12 CURVE SMOOTH",
"300 -12 OFFCURVE",
"343 0 OFFCURVE",
"386 27 CURVE",
"386 -210 LINE"
);
},
{
closed = 1;
nodes = (
"209 96 OFFCURVE",
"170 143 OFFCURVE",
"170 238 CURVE SMOOTH",
"170 333 OFFCURVE",
"209 380 OFFCURVE",
"286 380 CURVE SMOOTH",
"319 380 OFFCURVE",
"353 371 OFFCURVE",
"386 353 CURVE",
"386 123 LINE",
"353 105 OFFCURVE",
"319 96 OFFCURVE",
"286 96 CURVE SMOOTH"
);
}
);
width = 580;
},
{
anchors = (
{
name = bottom;
position = "{300, 0}";
},
{
name = center;
position = "{290, 235}";
},
{
name = top;
position = "{300, 470}";
}
);
background = {
anchors = (
{
name = bottom;
position = "{300, 0}";
},
{
name = top;
position = "{300, 470}";
}
);
components = (
{
name = d;
transform = "{1, 0, 0, -1, 0, 470}";
}
);
paths = (
{
closed = 1;
nodes = (
"427 -210 LINE",
"499 -210 LINE",
"499 -240 LINE",
"427 -240 LINE"
);
}
);
};
layerId = "B9B856C8-1FA2-46F4-A929-F36A99765E59";
paths = (
{
closed = 1;
nodes = (
"499 -210 LINE",
"499 470 LINE",
"445 470 LINE",
"437 420 LINE",
"383 461 OFFCURVE",
"324 482 OFFCURVE",
"264 482 CURVE SMOOTH",
"138 482 OFFCURVE",
"58 386 OFFCURVE",
"58 235 CURVE SMOOTH",
"58 84 OFFCURVE",
"138 -12 OFFCURVE",
"264 -12 CURVE SMOOTH",
"320 -12 OFFCURVE",
"376 7 OFFCURVE",
"427 43 CURVE",
"427 -210 LINE"
);
},
{
closed = 1;
nodes = (
"186 56 OFFCURVE",
"132 124 OFFCURVE",
"132 235 CURVE SMOOTH",
"132 346 OFFCURVE",
"186 414 OFFCURVE",
"276 414 CURVE SMOOTH",
"326 414 OFFCURVE",
"383 394 OFFCURVE",
"427 361 CURVE",
"427 109 LINE",
"383 76 OFFCURVE",
"326 56 OFFCURVE",
"276 56 CURVE SMOOTH"
);
}
);
width = 580;
}
);
unicode = 0071;
},
{
color = 0;
glyphname = r;
layers = (
{
anchors = (
{
name = bottom;
position = "{168, 0}";
},
{
name = top;
position = "{289, 476}";
}
);
background = {
anchors = (
{
name = bottom;
position = "{168, 0}";
},
{
name = top;
position = "{289, 476}";
}
);
paths = (
{
closed = 1;
nodes = (
"264 348 OFFCURVE",
"315 379 OFFCURVE",
"379 379 CURVE SMOOTH",
"416 379 OFFCURVE",
"446 368 OFFCURVE",
"478 343 CURVE",
"462 325 LINE",
"521 462 LINE",
"541 429 LINE",
"498 470 OFFCURVE",
"452 488 OFFCURVE",
"390 488 CURVE SMOOTH",
"287 488 OFFCURVE",
"216 439 OFFCURVE",
"154 323 CURVE",
"214 280 LINE"
);
},
{
closed = 1;
nodes = (
"227 0 LINE",
"227 333 LINE",
"201 476 LINE",
"109 476 LINE",
"109 0 LINE"
);
}
);
};
backgroundImage = {
crop = "{{0, 0}, {82.38, 144.54}}";
imagePath = "scan-image/scan2017-1-r.png";
transform = "{11.32201, 0, 0, 14.11484, -26, -1005}";
};
layerId = "27302DAC-E04E-41A7-B2D2-BD8305143A0A";
paths = (
{
closed = 1;
nodes = (
"227 0 LINE",
"227 297 LINE",
"273 353 OFFCURVE",
"321 379 OFFCURVE",
"379 379 CURVE SMOOTH",
"414 379 OFFCURVE",
"442 369 OFFCURVE",
"472 348 CURVE",
"516 450 LINE",
"480 476 OFFCURVE",
"440 488 OFFCURVE",
"390 488 CURVE SMOOTH",
"318 488 OFFCURVE",
"262 464 OFFCURVE",
"213 410 CURVE",
"201 476 LINE",
"109 476 LINE",
"109 0 LINE"
);
}
);
width = 580;
},
{
anchors = (
{
name = bottom;
position = "{160, 0}";
},
{
name = top;
position = "{292, 470}";
}
);
background = {
anchors = (
{
name = bottom;
position = "{160, 0}";
},
{
name = top;
position = "{292, 470}";
}
);
paths = (
{
closed = 1;
nodes = (
"239 372 OFFCURVE",
"308 413 OFFCURVE",
"387 413 CURVE SMOOTH",
"429 413 OFFCURVE",
"459 402 OFFCURVE",
"493 374 CURVE",
"451 337 LINE",
"510 480 LINE",
"523 431 LINE",
"496 465 OFFCURVE",
"451 482 OFFCURVE",
"393 482 CURVE SMOOTH",
"290 482 OFFCURVE",
"207 429 OFFCURVE",
"147 324 CURVE",
"186 291 LINE"
);
},
{
closed = 1;
nodes = (
"196 0 LINE",
"196 353 LINE",
"182 470 LINE",
"124 470 LINE",
"124 0 LINE"
);
}
);
};
backgroundImage = {
crop = "{{0, 0}, {82.38, 144.54}}";
imagePath = "scan-image/scan2017-1-r.png";
transform = "{12.56743, 0, 0, 15.66747, -55, -1093}";
};
layerId = "B9B856C8-1FA2-46F4-A929-F36A99765E59";
paths = (
{
closed = 1;
nodes = (
"196 0 LINE",
"196 306 LINE",
"248 377 OFFCURVE",
"313 413 OFFCURVE",
"387 413 CURVE SMOOTH",
"420 413 OFFCURVE",
"446 406 OFFCURVE",
"472 389 CURVE",
"499 454 LINE",
"472 473 OFFCURVE",
"436 482 OFFCURVE",
"393 482 CURVE SMOOTH",
"314 482 OFFCURVE",
"246 450 OFFCURVE",
"192 388 CURVE",
"182 470 LINE",
"124 470 LINE",
"124 0 LINE"
);
}
);
width = 580;
}
);
unicode = 0072;
},
{
color = 0;
glyphname = s;
layers = (
{
anchors = (
{
name = bottom;
position = "{290, 0}";
},
{
name = top;
position = "{285, 476}";
}
);
background = {
anchors = (
{
name = bottom;
position = "{290, 0}";
},
{
name = top;
position = "{285, 476}";
}
);
paths = (
{
closed = 1;
nodes = (
"434 -12 OFFCURVE",
"513 43 OFFCURVE",
"513 145 CURVE SMOOTH",
"513 230 OFFCURVE",
"465 276 OFFCURVE",
"364 287 CURVE SMOOTH",
"248 300 LINE SMOOTH",
"210 304 OFFCURVE",
"197 315 OFFCURVE",
"197 340 CURVE SMOOTH",
"197 373 OFFCURVE",
"226 388 OFFCURVE",
"288 388 CURVE SMOOTH",
"356 388 OFFCURVE",
"421 370 OFFCURVE",
"469 339 CURVE",
"446 319 LINE",
"502 458 LINE",
"529 420 LINE",
"460 465 OFFCURVE",
"378 488 OFFCURVE",
"290 488 CURVE SMOOTH",
"153 488 OFFCURVE",
"79 433 OFFCURVE",
"79 332 CURVE SMOOTH",
"79 248 OFFCURVE",
"127 202 OFFCURVE",
"228 191 CURVE SMOOTH",
"344 178 LINE SMOOTH",
"382 174 OFFCURVE",
"395 164 OFFCURVE",
"395 137 CURVE SMOOTH",
"395 105 OFFCURVE",
"360 88 OFFCURVE",
"292 88 CURVE SMOOTH",
"218 88 OFFCURVE",
"149 107 OFFCURVE",
"97 143 CURVE",
"122 178 LINE",
"54 34 LINE",
"33 65 LINE",
"101 14 OFFCURVE",
"188 -12 OFFCURVE",
"289 -12 CURVE SMOOTH"
);
}
);
};
backgroundImage = {
crop = "{{0, 0}, {82.38, 144.54}}";
imagePath = "scan-image/scan2017-1-s.png";
transform = "{-10.88023, 0, 0, -13.56407, 560, 1442}";
};
layerId = "27302DAC-E04E-41A7-B2D2-BD8305143A0A";
paths = (
{
closed = 1;
nodes = (
"431 -12 OFFCURVE",
"510 45 OFFCURVE",
"510 147 CURVE SMOOTH",
"510 232 OFFCURVE",
"462 275 OFFCURVE",
"361 287 CURVE SMOOTH",
"251 300 LINE SMOOTH",
"213 304 OFFCURVE",
"200 315 OFFCURVE",
"200 340 CURVE SMOOTH",
"200 373 OFFCURVE",
"229 388 OFFCURVE",
"291 388 CURVE SMOOTH",
"353 388 OFFCURVE",
"413 373 OFFCURVE",
"460 346 CURVE",
"498 440 LINE",
"436 472 OFFCURVE",
"367 488 OFFCURVE",
"293 488 CURVE SMOOTH",
"156 488 OFFCURVE",
"82 431 OFFCURVE",
"82 330 CURVE SMOOTH",
"82 246 OFFCURVE",
"130 203 OFFCURVE",
"231 191 CURVE SMOOTH",
"341 178 LINE SMOOTH",
"379 174 OFFCURVE",
"392 164 OFFCURVE",
"392 137 CURVE SMOOTH",
"392 105 OFFCURVE",
"357 88 OFFCURVE",
"289 88 CURVE SMOOTH",
"218 88 OFFCURVE",
"152 105 OFFCURVE",
"100 139 CURVE",
"57 47 LINE",
"120 8 OFFCURVE",
"198 -12 OFFCURVE",
"286 -12 CURVE SMOOTH"
);
}
);
width = 580;
},
{
anchors = (
{
name = bottom;
position = "{290, 0}";
},
{
name = top;
position = "{285, 470}";
}
);
background = {
anchors = (
{
name = bottom;
position = "{290, 0}";
},
{
name = top;
position = "{285, 470}";
}
);
paths = (
{
closed = 1;
nodes = (
"428 -12 OFFCURVE",
"503 41 OFFCURVE",
"503 138 CURVE SMOOTH",
"503 215 OFFCURVE",
"461 252 OFFCURVE",
"363 265 CURVE SMOOTH",
"243 281 LINE SMOOTH",
"183 289 OFFCURVE",
"162 305 OFFCURVE",
"162 342 CURVE SMOOTH",
"162 392 OFFCURVE",
"201 414 OFFCURVE",
"283 414 CURVE SMOOTH",
"367 414 OFFCURVE",
"449 386 OFFCURVE",
"507 339 CURVE",
"440 331 LINE",
"503 484 LINE",
"539 400 LINE",
"469 451 OFFCURVE",
"376 482 OFFCURVE",
"285 482 CURVE SMOOTH",
"161 482 OFFCURVE",
"89 430 OFFCURVE",
"89 337 CURVE SMOOTH",
"89 262 OFFCURVE",
"131 225 OFFCURVE",
"229 212 CURVE SMOOTH",
"349 196 LINE SMOOTH",
"409 188 OFFCURVE",
"430 172 OFFCURVE",
"430 133 CURVE SMOOTH",
"430 82 OFFCURVE",
"384 56 OFFCURVE",
"295 56 CURVE SMOOTH",
"205 56 OFFCURVE",
"121 85 OFFCURVE",
"56 139 CURVE",
"126 161 LINE",
"52 4 LINE",
"22 81 LINE",
"98 19 OFFCURVE",
"189 -12 OFFCURVE",
"292 -12 CURVE SMOOTH"
);
}
);
};
backgroundImage = {
crop = "{{0, 0}, {82.38, 144.54}}";
imagePath = "scan-image/scan2017-1-s.png";
transform = "{-12.07706, 0, 0, -15.05612, 585, 1624}";
};
layerId = "B9B856C8-1FA2-46F4-A929-F36A99765E59";
paths = (
{
closed = 1;
nodes = (
"425 -12 OFFCURVE",
"500 42 OFFCURVE",
"500 139 CURVE SMOOTH",
"500 216 OFFCURVE",
"458 251 OFFCURVE",
"360 265 CURVE SMOOTH",
"246 281 LINE SMOOTH",
"186 289 OFFCURVE",
"165 304 OFFCURVE",
"165 341 CURVE SMOOTH",
"165 391 OFFCURVE",
"204 414 OFFCURVE",
"286 414 CURVE SMOOTH",
"348 414 OFFCURVE",
"409 399 OFFCURVE",
"460 372 CURVE",
"486 434 LINE",
"426 465 OFFCURVE",
"356 482 OFFCURVE",
"288 482 CURVE SMOOTH",
"164 482 OFFCURVE",
"92 429 OFFCURVE",
"92 336 CURVE SMOOTH",
"92 261 OFFCURVE",
"134 226 OFFCURVE",
"232 212 CURVE SMOOTH",
"346 196 LINE SMOOTH",
"406 188 OFFCURVE",
"427 173 OFFCURVE",
"427 134 CURVE SMOOTH",
"427 83 OFFCURVE",
"381 56 OFFCURVE",
"292 56 CURVE SMOOTH",
"221 56 OFFCURVE",
"155 74 OFFCURVE",
"98 107 CURVE",
"69 46 LINE",
"134 7 OFFCURVE",
"208 -12 OFFCURVE",
"289 -12 CURVE SMOOTH"
);
}
);
width = 580;
}
);
unicode = 0073;
},
{
color = 0;
glyphname = germandbls;
layers = (
{
anchors = (
{
name = bottom;
position = "{289, 0}";
},
{
name = top;
position = "{289, 476}";
}
);
background = {
anchors = (
{
name = bottom;
position = "{289, 0}";
},
{
name = top;
position = "{289, 476}";
}
);
paths = (
{
closed = 1;
nodes = (
"204 48 LINE",
"246 11 OFFCURVE",
"299 -12 OFFCURVE",
"372 -12 CURVE SMOOTH",
"472 -12 OFFCURVE",
"541 34 OFFCURVE",
"541 144 CURVE SMOOTH",
"541 237 OFFCURVE",
"483 274 OFFCURVE",
"438 300 CURVE SMOOTH",
"409 317 OFFCURVE",
"385 332 OFFCURVE",
"385 364 CURVE SMOOTH",
"385 389 OFFCURVE",
"395 404 OFFCURVE",
"418 435 CURVE SMOOTH",
"448 475 OFFCURVE",
"459 510 OFFCURVE",
"459 548 CURVE SMOOTH",
"459 656 OFFCURVE",
"386 722 OFFCURVE",
"268 722 CURVE SMOOTH",
"146 722 OFFCURVE",
"73 651 OFFCURVE",
"73 529 CURVE SMOOTH",
"73 0 LINE",
"191 0 LINE",
"191 518 LINE SMOOTH",
"191 583 OFFCURVE",
"216 614 OFFCURVE",
"269 614 CURVE SMOOTH",
"315 614 OFFCURVE",
"339 588 OFFCURVE",
"339 545 CURVE SMOOTH",
"339 520 OFFCURVE",
"329 499 OFFCURVE",
"306 468 CURVE SMOOTH",
"276 428 OFFCURVE",
"265 393 OFFCURVE",
"265 350 CURVE SMOOTH",
"265 262 OFFCURVE",
"323 228 OFFCURVE",
"368 202 CURVE SMOOTH",
"397 185 OFFCURVE",
"421 172 OFFCURVE",
"421 143 CURVE SMOOTH",
"421 110 OFFCURVE",
"399 96 OFFCURVE",
"361 96 CURVE SMOOTH",
"328 96 OFFCURVE",
"296 103 OFFCURVE",
"259 128 CURVE",
"285 156 LINE",
"216 -22 LINE"
);
}
);
};
layerId = "27302DAC-E04E-41A7-B2D2-BD8305143A0A";
paths = (
{
closed = 1;
nodes = (
"472 -12 OFFCURVE",
"541 34 OFFCURVE",
"541 144 CURVE SMOOTH",
"541 237 OFFCURVE",
"483 274 OFFCURVE",
"438 300 CURVE SMOOTH",
"409 317 OFFCURVE",
"385 332 OFFCURVE",
"385 364 CURVE SMOOTH",
"385 389 OFFCURVE",
"395 404 OFFCURVE",
"418 435 CURVE SMOOTH",
"448 475 OFFCURVE",
"459 510 OFFCURVE",
"459 548 CURVE SMOOTH",
"459 656 OFFCURVE",
"386 722 OFFCURVE",
"268 722 CURVE SMOOTH",
"146 722 OFFCURVE",
"73 651 OFFCURVE",
"73 529 CURVE SMOOTH",
"73 0 LINE",
"191 0 LINE",
"191 518 LINE SMOOTH",
"191 583 OFFCURVE",
"216 614 OFFCURVE",
"269 614 CURVE SMOOTH",
"315 614 OFFCURVE",
"339 588 OFFCURVE",
"339 545 CURVE SMOOTH",
"339 520 OFFCURVE",
"329 499 OFFCURVE",
"306 468 CURVE SMOOTH",
"276 428 OFFCURVE",
"265 393 OFFCURVE",
"265 350 CURVE SMOOTH",
"265 262 OFFCURVE",
"323 228 OFFCURVE",
"368 202 CURVE SMOOTH",
"397 185 OFFCURVE",
"421 172 OFFCURVE",
"421 143 CURVE SMOOTH",
"421 110 OFFCURVE",
"399 96 OFFCURVE",
"361 96 CURVE SMOOTH",
"332 96 OFFCURVE",
"303 102 OFFCURVE",
"271 120 CURVE",
"234 25 LINE",
"271 2 OFFCURVE",
"316 -12 OFFCURVE",
"372 -12 CURVE SMOOTH"
);
}
);
width = 580;
},
{
anchors = (
{
name = bottom;
position = "{291, 0}";
},
{
name = top;
position = "{291, 470}";
}
);
background = {
anchors = (
{
name = bottom;
position = "{291, 0}";
},
{
name = top;
position = "{291, 470}";
}
);
paths = (
{
closed = 1;
nodes = (
"208 41 LINE",
"252 8 OFFCURVE",
"311 -12 OFFCURVE",
"371 -12 CURVE SMOOTH",
"478 -12 OFFCURVE",
"538 38 OFFCURVE",
"538 132 CURVE SMOOTH",
"538 220 OFFCURVE",
"486 254 OFFCURVE",
"434 283 CURVE SMOOTH",
"397 304 OFFCURVE",
"365 326 OFFCURVE",
"365 363 CURVE SMOOTH",
"365 392 OFFCURVE",
"376 409 OFFCURVE",
"402 449 CURVE SMOOTH",
"432 494 OFFCURVE",
"445 523 OFFCURVE",
"445 564 CURVE SMOOTH",
"445 661 OFFCURVE",
"377 722 OFFCURVE",
"267 722 CURVE SMOOTH",
"149 722 OFFCURVE",
"76 651 OFFCURVE",
"76 534 CURVE SMOOTH",
"76 0 LINE",
"148 0 LINE",
"148 521 LINE SMOOTH",
"148 609 OFFCURVE",
"187 654 OFFCURVE",
"264 654 CURVE SMOOTH",
"331 654 OFFCURVE",
"371 619 OFFCURVE",
"371 567 CURVE SMOOTH",
"371 537 OFFCURVE",
"360 517 OFFCURVE",
"334 477 CURVE SMOOTH",
"305 432 OFFCURVE",
"291 405 OFFCURVE",
"291 358 CURVE SMOOTH",
"291 283 OFFCURVE",
"343 247 OFFCURVE",
"395 218 CURVE SMOOTH",
"432 197 OFFCURVE",
"464 175 OFFCURVE",
"464 130 CURVE SMOOTH",
"464 79 OFFCURVE",
"426 56 OFFCURVE",
"368 56 CURVE SMOOTH",
"323 56 OFFCURVE",
"278 73 OFFCURVE",
"237 102 CURVE",
"279 139 LINE",
"219 -16 LINE"
);
}
);
};
layerId = "B9B856C8-1FA2-46F4-A929-F36A99765E59";
paths = (
{
closed = 1;
nodes = (
"478 -12 OFFCURVE",
"538 38 OFFCURVE",
"538 132 CURVE SMOOTH",
"538 220 OFFCURVE",
"486 254 OFFCURVE",
"434 283 CURVE SMOOTH",
"397 304 OFFCURVE",
"365 326 OFFCURVE",
"365 363 CURVE SMOOTH",
"365 392 OFFCURVE",
"376 409 OFFCURVE",
"402 449 CURVE SMOOTH",
"432 494 OFFCURVE",
"445 523 OFFCURVE",
"445 564 CURVE SMOOTH",
"445 661 OFFCURVE",
"377 722 OFFCURVE",
"267 722 CURVE SMOOTH",
"149 722 OFFCURVE",
"76 651 OFFCURVE",
"76 534 CURVE SMOOTH",
"76 0 LINE",
"148 0 LINE",
"148 521 LINE SMOOTH",
"148 609 OFFCURVE",
"187 654 OFFCURVE",
"264 654 CURVE SMOOTH",
"331 654 OFFCURVE",
"371 619 OFFCURVE",
"371 567 CURVE SMOOTH",
"371 537 OFFCURVE",
"360 517 OFFCURVE",
"334 477 CURVE SMOOTH",
"305 432 OFFCURVE",
"291 405 OFFCURVE",
"291 358 CURVE SMOOTH",
"291 283 OFFCURVE",
"343 247 OFFCURVE",
"395 218 CURVE SMOOTH",
"432 197 OFFCURVE",
"464 175 OFFCURVE",
"464 130 CURVE SMOOTH",
"464 79 OFFCURVE",
"426 56 OFFCURVE",
"368 56 CURVE SMOOTH",
"331 56 OFFCURVE",
"294 68 OFFCURVE",
"259 88 CURVE",
"234 24 LINE",
"274 1 OFFCURVE",
"322 -12 OFFCURVE",
"371 -12 CURVE SMOOTH"
);
}
);
width = 580;
}
);
unicode = 00DF;
},
{
color = 0;
glyphname = t;
layers = (
{
anchors = (
{
name = bottom;
position = "{321, 0}";
},
{
name = center;
position = "{265, 243}";
},
{
name = top;
position = "{291, 476}";
},
{
name = topright;
position = "{424, 730}";
}
);
background = {
anchors = (
{
name = bottom;
position = "{321, 0}";
},
{
name = center;
position = "{265, 243}";
},
{
name = top;
position = "{291, 476}";
},
{
name = topright;
position = "{424, 730}";
}
);
paths = (
{
closed = 1;
nodes = (
"451 -12 OFFCURVE",
"520 12 OFFCURVE",
"578 60 CURVE",
"538 19 LINE",
"497 158 LINE",
"522 141 LINE",
"478 110 OFFCURVE",
"438 96 OFFCURVE",
"391 96 CURVE SMOOTH",
"327 96 OFFCURVE",
"304 121 OFFCURVE",
"304 189 CURVE SMOOTH",
"304 661 LINE",
"186 610 LINE",
"186 171 LINE SMOOTH",
"186 50 OFFCURVE",
"249 -12 OFFCURVE",
"370 -12 CURVE SMOOTH"
);
},
{
closed = 1;
nodes = (
"186 370 LINE",
"186 476 LINE",
"47 476 LINE",
"47 370 LINE"
);
},
{
closed = 1;
nodes = (
"484 370 LINE",
"484 476 LINE",
"304 476 LINE",
"304 370 LINE"
);
}
);
};
backgroundImage = {
crop = "{{0, 0}, {82.38, 144.54}}";
imagePath = "scan-image/scan2017-1-t.png";
transform = "{11.32201, 0, 0, 14.11484, 53, -996}";
};
layerId = "27302DAC-E04E-41A7-B2D2-BD8305143A0A";
paths = (
{
closed = 1;
nodes = (
"432 -12 OFFCURVE",
"487 2 OFFCURVE",
"535 30 CURVE",
"505 130 LINE",
"468 107 OFFCURVE",
"432 96 OFFCURVE",
"391 96 CURVE SMOOTH",
"327 96 OFFCURVE",
"304 121 OFFCURVE",
"304 189 CURVE SMOOTH",
"304 370 LINE",
"484 370 LINE",
"484 476 LINE",
"304 476 LINE",
"304 662 LINE",
"186 611 LINE",
"186 476 LINE",
"47 476 LINE",
"47 370 LINE",
"186 370 LINE",
"186 171 LINE SMOOTH",
"186 50 OFFCURVE",
"249 -12 OFFCURVE",
"370 -12 CURVE SMOOTH"
);
}
);
width = 580;
},
{
anchors = (
{
name = bottom;
position = "{330, 0}";
},
{
name = center;
position = "{263, 245}";
},
{
name = top;
position = "{290, 470}";
},
{
name = topright;
position = "{389, 710}";
}
);
background = {
anchors = (
{
name = bottom;
position = "{330, 0}";
},
{
name = center;
position = "{263, 245}";
},
{
name = top;
position = "{290, 470}";
},
{
name = topright;
position = "{389, 710}";
}
);
paths = (
{
closed = 1;
nodes = (
"459 -12 OFFCURVE",
"527 13 OFFCURVE",
"589 66 CURVE",
"535 -12 LINE",
"488 143 LINE",
"562 125 LINE",
"513 81 OFFCURVE",
"449 56 OFFCURVE",
"387 56 CURVE SMOOTH",
"312 56 OFFCURVE",
"279 92 OFFCURVE",
"279 176 CURVE SMOOTH",
"279 662 LINE",
"207 622 LINE",
"207 165 LINE SMOOTH",
"207 46 OFFCURVE",
"264 -12 OFFCURVE",
"382 -12 CURVE SMOOTH"
);
},
{
closed = 1;
nodes = (
"207 404 LINE",
"207 470 LINE",
"52 470 LINE",
"52 404 LINE"
);
},
{
closed = 1;
nodes = (
"479 404 LINE",
"479 470 LINE",
"279 470 LINE",
"279 404 LINE"
);
}
);
};
backgroundImage = {
crop = "{{0, 0}, {82.38, 144.54}}";
imagePath = "scan-image/scan2017-1-t.png";
transform = "{12.56743, 0, 0, 15.66747, 29, -1092}";
};
layerId = "B9B856C8-1FA2-46F4-A929-F36A99765E59";
paths = (
{
closed = 1;
nodes = (
"433 -12 OFFCURVE",
"481 -1 OFFCURVE",
"525 22 CURVE",
"505 86 LINE",
"468 66 OFFCURVE",
"427 56 OFFCURVE",
"387 56 CURVE SMOOTH",
"312 56 OFFCURVE",
"279 92 OFFCURVE",
"279 176 CURVE SMOOTH",
"279 404 LINE",
"479 404 LINE",
"479 470 LINE",
"279 470 LINE",
"279 662 LINE",
"207 622 LINE",
"207 470 LINE",
"52 470 LINE",
"52 404 LINE",
"207 404 LINE",
"207 165 LINE SMOOTH",
"207 46 OFFCURVE",
"264 -12 OFFCURVE",
"382 -12 CURVE SMOOTH"
);
}
);
width = 580;
}
);
unicode = 0074;
},
{
color = 0;
glyphname = u;
layers = (
{
anchors = (
{
name = bottom;
position = "{290, 0}";
},
{
name = ogonek;
position = "{499, 0}";
},
{
name = top;
position = "{290, 476}";
},
{
name = topright;
position = "{570, 476}";
}
);
background = {
anchors = (
{
name = bottom;
position = "{290, 0}";
},
{
name = ogonek;
position = "{499, 0}";
},
{
name = top;
position = "{290, 476}";
},
{
name = topright;
position = "{570, 476}";
}
);
paths = (
{
closed = 1;
nodes = (
"320 -12 OFFCURVE",
"381 16 OFFCURVE",
"449 80 CURVE",
"409 141 LINE",
"365 110 OFFCURVE",
"325 96 OFFCURVE",
"278 96 CURVE SMOOTH",
"214 96 OFFCURVE",
"191 121 OFFCURVE",
"191 189 CURVE SMOOTH",
"191 476 LINE",
"73 476 LINE",
"73 171 LINE SMOOTH",
"73 54 OFFCURVE",
"135 -12 OFFCURVE",
"247 -12 CURVE SMOOTH"
);
},
{
closed = 1;
nodes = (
"499 0 LINE",
"499 476 LINE",
"381 476 LINE",
"381 123 LINE",
"412 0 LINE"
);
}
);
};
layerId = "27302DAC-E04E-41A7-B2D2-BD8305143A0A";
paths = (
{
closed = 1;
nodes = (
"303 -12 OFFCURVE",
"352 4 OFFCURVE",
"402 41 CURVE",
"412 0 LINE",
"499 0 LINE",
"499 476 LINE",
"381 476 LINE",
"381 123 LINE",
"347 105 OFFCURVE",
"315 96 OFFCURVE",
"278 96 CURVE SMOOTH",
"214 96 OFFCURVE",
"191 121 OFFCURVE",
"191 189 CURVE SMOOTH",
"191 476 LINE",
"73 476 LINE",
"73 171 LINE SMOOTH",
"73 54 OFFCURVE",
"135 -12 OFFCURVE",
"247 -12 CURVE SMOOTH"
);
}
);
width = 580;
},
{
anchors = (
{
name = bottom;
position = "{290, 0}";
},
{
name = ogonek;
position = "{491, 0}";
},
{
name = top;
position = "{290, 470}";
},
{
name = topright;
position = "{570, 470}";
}
);
background = {
anchors = (
{
name = bottom;
position = "{290, 0}";
},
{
name = ogonek;
position = "{491, 0}";
},
{
name = top;
position = "{290, 470}";
},
{
name = topright;
position = "{570, 470}";
}
);
paths = (
{
closed = 1;
nodes = (
"332 -12 OFFCURVE",
"403 20 OFFCURVE",
"466 83 CURVE",
"438 125 LINE",
"389 81 OFFCURVE",
"325 56 OFFCURVE",
"263 56 CURVE SMOOTH",
"188 56 OFFCURVE",
"155 92 OFFCURVE",
"155 176 CURVE SMOOTH",
"155 470 LINE",
"83 470 LINE",
"83 165 LINE SMOOTH",
"83 47 OFFCURVE",
"141 -12 OFFCURVE",
"251 -12 CURVE SMOOTH"
);
},
{
closed = 1;
nodes = (
"491 0 LINE",
"491 470 LINE",
"419 470 LINE",
"419 109 LINE",
"437 0 LINE"
);
}
);
};
layerId = "B9B856C8-1FA2-46F4-A929-F36A99765E59";
paths = (
{
closed = 1;
nodes = (
"316 -12 OFFCURVE",
"375 9 OFFCURVE",
"429 50 CURVE",
"437 0 LINE",
"491 0 LINE",
"491 470 LINE",
"419 470 LINE",
"419 109 LINE",
"373 75 OFFCURVE",
"317 56 OFFCURVE",
"263 56 CURVE SMOOTH",
"188 56 OFFCURVE",
"155 92 OFFCURVE",
"155 176 CURVE SMOOTH",
"155 470 LINE",
"83 470 LINE",
"83 165 LINE SMOOTH",
"83 47 OFFCURVE",
"141 -12 OFFCURVE",
"251 -12 CURVE SMOOTH"
);
}
);
width = 580;
}
);
unicode = 0075;
},
{
color = 0;
glyphname = v;
layers = (
{
anchors = (
{
name = bottom;
position = "{290, 0}";
},
{
name = top;
position = "{290, 476}";
}
);
background = {
anchors = (
{
name = bottom;
position = "{290, 0}";
},
{
name = top;
position = "{290, 476}";
}
);
paths = (
{
closed = 1;
nodes = (
"340 0 LINE",
"350 86 LINE",
"350 0 LINE",
"169 476 LINE",
"43 476 LINE",
"230 0 LINE"
);
},
{
closed = 1;
nodes = (
"238 86 LINE",
"248 0 LINE",
"350 0 LINE",
"537 476 LINE",
"419 476 LINE",
"238 0 LINE"
);
}
);
};
layerId = "27302DAC-E04E-41A7-B2D2-BD8305143A0A";
paths = (
{
closed = 1;
nodes = (
"350 0 LINE",
"537 476 LINE",
"419 476 LINE",
"294 147 LINE",
"169 476 LINE",
"43 476 LINE",
"230 0 LINE"
);
}
);
width = 580;
},
{
anchors = (
{
name = bottom;
position = "{290, 0}";
},
{
name = top;
position = "{290, 470}";
}
);
background = {
anchors = (
{
name = bottom;
position = "{290, 0}";
},
{
name = top;
position = "{290, 470}";
}
);
paths = (
{
closed = 1;
nodes = (
"312 0 LINE",
"334 82 LINE",
"322 0 LINE",
"135 470 LINE",
"57 470 LINE",
"247 0 LINE"
);
},
{
closed = 1;
nodes = (
"250 82 LINE",
"272 0 LINE",
"333 0 LINE",
"523 470 LINE",
"449 470 LINE",
"262 0 LINE"
);
}
);
};
layerId = "B9B856C8-1FA2-46F4-A929-F36A99765E59";
paths = (
{
closed = 1;
nodes = (
"333 0 LINE",
"523 470 LINE",
"449 470 LINE",
"292 75 LINE",
"135 470 LINE",
"57 470 LINE",
"247 0 LINE"
);
}
);
width = 580;
}
);
unicode = 0076;
},
